  0
SECTION
  2
HEADER
  9
$ACADVER
  1
AC1027
  9
$ACADMAINTVER
 70
   105
  9
$DWGCODEPAGE
  3
ANSI_1251
  9
$REQUIREDVERSIONS
160
                 0
  9
$INSBASE
 10
0.0
 20
0.0
 30
0.0
  9
$EXTMIN
 10
-6.026237932942641
 20
65.36580543925459
 30
0.0
  9
$EXTMAX
 10
585.929119360928
 20
899.6412452177337
 30
0.0
  9
$LIMMIN
 10
0.0
 20
0.0
  9
$LIMMAX
 10
420.0
 20
297.0
  9
$ORTHOMODE
 70
     0
  9
$REGENMODE
 70
     1
  9
$FILLMODE
 70
     1
  9
$QTEXTMODE
 70
     0
  9
$MIRRTEXT
 70
     1
  9
$LTSCALE
 40
1.0
  9
$ATTMODE
 70
     1
  9
$TEXTSIZE
 40
2.5
  9
$TRACEWID
 40
1.0
  9
$TEXTSTYLE
  7
Standard
  9
$CLAYER
  8
0
  9
$CELTYPE
  6
ByLayer
  9
$CECOLOR
 62
   256
  9
$CELTSCALE
 40
1.0
  9
$DISPSILH
 70
     0
  9
$DIMSCALE
 40
1.0
  9
$DIMASZ
 40
2.5
  9
$DIMEXO
 40
0.625
  9
$DIMDLI
 40
3.75
  9
$DIMRND
 40
0.0
  9
$DIMDLE
 40
0.0
  9
$DIMEXE
 40
1.25
  9
$DIMTP
 40
0.0
  9
$DIMTM
 40
0.0
  9
$DIMTXT
 40
2.5
  9
$DIMCEN
 40
2.5
  9
$DIMTSZ
 40
0.0
  9
$DIMTOL
 70
     0
  9
$DIMLIM
 70
     0
  9
$DIMTIH
 70
     0
  9
$DIMTOH
 70
     0
  9
$DIMSE1
 70
     0
  9
$DIMSE2
 70
     0
  9
$DIMTAD
 70
     1
  9
$DIMZIN
 70
     8
  9
$DIMBLK
  1

  9
$DIMASO
 70
     1
  9
$DIMSHO
 70
     1
  9
$DIMPOST
  1

  9
$DIMAPOST
  1

  9
$DIMALT
 70
     0
  9
$DIMALTD
 70
     3
  9
$DIMALTF
 40
0.03937007874016
  9
$DIMLFAC
 40
1.0
  9
$DIMTOFL
 70
     1
  9
$DIMTVP
 40
0.0
  9
$DIMTIX
 70
     0
  9
$DIMSOXD
 70
     0
  9
$DIMSAH
 70
     0
  9
$DIMBLK1
  1

  9
$DIMBLK2
  1

  9
$DIMSTYLE
  2
ISO-25
  9
$DIMCLRD
 70
     0
  9
$DIMCLRE
 70
     0
  9
$DIMCLRT
 70
     0
  9
$DIMTFAC
 40
1.0
  9
$DIMGAP
 40
0.625
  9
$DIMJUST
 70
     0
  9
$DIMSD1
 70
     0
  9
$DIMSD2
 70
     0
  9
$DIMTOLJ
 70
     0
  9
$DIMTZIN
 70
     8
  9
$DIMALTZ
 70
     0
  9
$DIMALTTZ
 70
     0
  9
$DIMUPT
 70
     0
  9
$DIMDEC
 70
     2
  9
$DIMTDEC
 70
     2
  9
$DIMALTU
 70
     2
  9
$DIMALTTD
 70
     3
  9
$DIMTXSTY
  7
Standard
  9
$DIMAUNIT
 70
     0
  9
$DIMADEC
 70
     0
  9
$DIMALTRND
 40
0.0
  9
$DIMAZIN
 70
     0
  9
$DIMDSEP
 70
    44
  9
$DIMATFIT
 70
     3
  9
$DIMFRAC
 70
     0
  9
$DIMLDRBLK
  1

  9
$DIMLUNIT
 70
     2
  9
$DIMLWD
 70
    -2
  9
$DIMLWE
 70
    -2
  9
$DIMTMOVE
 70
     0
  9
$DIMFXL
 40
1.0
  9
$DIMFXLON
 70
     0
  9
$DIMJOGANG
 40
0.7853981633974483
  9
$DIMTFILL
 70
     0
  9
$DIMTFILLCLR
 70
     0
  9
$DIMARCSYM
 70
     0
  9
$DIMLTYPE
  6

  9
$DIMLTEX1
  6

  9
$DIMLTEX2
  6

  9
$DIMTXTDIRECTION
 70
     0
  9
$LUNITS
 70
     2
  9
$LUPREC
 70
     4
  9
$SKETCHINC
 40
1.0
  9
$FILLETRAD
 40
10.0
  9
$AUNITS
 70
     0
  9
$AUPREC
 70
     0
  9
$MENU
  1
.
  9
$ELEVATION
 40
0.0
  9
$PELEVATION
 40
0.0
  9
$THICKNESS
 40
0.0
  9
$LIMCHECK
 70
     0
  9
$CHAMFERA
 40
0.0
  9
$CHAMFERB
 40
0.0
  9
$CHAMFERC
 40
0.0
  9
$CHAMFERD
 40
0.0
  9
$SKPOLY
 70
     0
  9
$TDCREATE
 40
2458601.944444039
  9
$TDUCREATE
 40
2458601.819444039
  9
$TDUPDATE
 40
2458601.944454491
  9
$TDUUPDATE
 40
2458601.819454491
  9
$TDINDWG
 40
0.0000000116
  9
$TDUSRTIMER
 40
0.0000000116
  9
$USRTIMER
 70
     1
  9
$ANGBASE
 50
0.0
  9
$ANGDIR
 70
     0
  9
$PDMODE
 70
     0
  9
$PDSIZE
 40
0.0
  9
$PLINEWID
 40
0.0
  9
$SPLFRAME
 70
     0
  9
$SPLINETYPE
 70
     6
  9
$SPLINESEGS
 70
     8
  9
$HANDSEED
  5
243
  9
$SURFTAB1
 70
     6
  9
$SURFTAB2
 70
     6
  9
$SURFTYPE
 70
     6
  9
$SURFU
 70
     6
  9
$SURFV
 70
     6
  9
$UCSBASE
  2

  9
$UCSNAME
  2

  9
$UCSORG
 10
0.0
 20
0.0
 30
0.0
  9
$UCSXDIR
 10
1.0
 20
0.0
 30
0.0
  9
$UCSYDIR
 10
0.0
 20
1.0
 30
0.0
  9
$UCSORTHOREF
  2

  9
$UCSORTHOVIEW
 70
     0
  9
$UCSORGTOP
 10
0.0
 20
0.0
 30
0.0
  9
$UCSORGBOTTOM
 10
0.0
 20
0.0
 30
0.0
  9
$UCSORGLEFT
 10
0.0
 20
0.0
 30
0.0
  9
$UCSORGRIGHT
 10
0.0
 20
0.0
 30
0.0
  9
$UCSORGFRONT
 10
0.0
 20
0.0
 30
0.0
  9
$UCSORGBACK
 10
0.0
 20
0.0
 30
0.0
  9
$PUCSBASE
  2

  9
$PUCSNAME
  2

  9
$PUCSORG
 10
0.0
 20
0.0
 30
0.0
  9
$PUCSXDIR
 10
1.0
 20
0.0
 30
0.0
  9
$PUCSYDIR
 10
0.0
 20
1.0
 30
0.0
  9
$PUCSORTHOREF
  2

  9
$PUCSORTHOVIEW
 70
     0
  9
$PUCSORGTOP
 10
0.0
 20
0.0
 30
0.0
  9
$PUCSORGBOTTOM
 10
0.0
 20
0.0
 30
0.0
  9
$PUCSORGLEFT
 10
0.0
 20
0.0
 30
0.0
  9
$PUCSORGRIGHT
 10
0.0
 20
0.0
 30
0.0
  9
$PUCSORGFRONT
 10
0.0
 20
0.0
 30
0.0
  9
$PUCSORGBACK
 10
0.0
 20
0.0
 30
0.0
  9
$USERI1
 70
     0
  9
$USERI2
 70
     0
  9
$USERI3
 70
     0
  9
$USERI4
 70
     0
  9
$USERI5
 70
     0
  9
$USERR1
 40
0.0
  9
$USERR2
 40
0.0
  9
$USERR3
 40
0.0
  9
$USERR4
 40
0.0
  9
$USERR5
 40
0.0
  9
$WORLDVIEW
 70
     1
  9
$SHADEDGE
 70
     3
  9
$SHADEDIF
 70
    70
  9
$TILEMODE
 70
     1
  9
$MAXACTVP
 70
    64
  9
$PINSBASE
 10
0.0
 20
0.0
 30
0.0
  9
$PLIMCHECK
 70
     0
  9
$PEXTMIN
 10
1.000000000000000E+20
 20
1.000000000000000E+20
 30
1.000000000000000E+20
  9
$PEXTMAX
 10
-1.000000000000000E+20
 20
-1.000000000000000E+20
 30
-1.000000000000000E+20
  9
$PLIMMIN
 10
0.0
 20
0.0
  9
$PLIMMAX
 10
420.0
 20
297.0
  9
$UNITMODE
 70
     0
  9
$VISRETAIN
 70
     1
  9
$PLINEGEN
 70
     0
  9
$PSLTSCALE
 70
     1
  9
$TREEDEPTH
 70
  3020
  9
$CMLSTYLE
  2
Standard
  9
$CMLJUST
 70
     0
  9
$CMLSCALE
 40
20.0
  9
$PROXYGRAPHICS
 70
     1
  9
$MEASUREMENT
 70
     1
  9
$CELWEIGHT
370
    -1
  9
$ENDCAPS
280
     0
  9
$JOINSTYLE
280
     0
  9
$LWDISPLAY
290
     0
  9
$INSUNITS
 70
     4
  9
$HYPERLINKBASE
  1

  9
$STYLESHEET
  1

  9
$XEDIT
290
     1
  9
$CEPSNTYPE
380
     0
  9
$PSTYLEMODE
290
     1
  9
$FINGERPRINTGUID
  2
{B5557C1C-3D0B-4923-B28E-ED5147237B48}
  9
$VERSIONGUID
  2
{FAEB1C32-E019-11D5-929B-00C0DF256EC4}
  9
$EXTNAMES
290
     1
  9
$PSVPSCALE
 40
0.0
  9
$OLESTARTUP
290
     0
  9
$SORTENTS
280
   127
  9
$INDEXCTL
280
     0
  9
$HIDETEXT
280
     1
  9
$XCLIPFRAME
280
     2
  9
$HALOGAP
280
     0
  9
$OBSCOLOR
 70
   257
  9
$OBSLTYPE
280
     0
  9
$INTERSECTIONDISPLAY
280
     0
  9
$INTERSECTIONCOLOR
 70
   257
  9
$DIMASSOC
280
     2
  9
$PROJECTNAME
  1

  9
$CAMERADISPLAY
290
     0
  9
$LENSLENGTH
 40
50.0
  9
$CAMERAHEIGHT
 40
0.0
  9
$STEPSPERSEC
 40
2.0
  9
$STEPSIZE
 40
6.0
  9
$3DDWFPREC
 40
2.0
  9
$PSOLWIDTH
 40
5.0
  9
$PSOLHEIGHT
 40
80.0
  9
$LOFTANG1
 40
1.570796326794897
  9
$LOFTANG2
 40
1.570796326794897
  9
$LOFTMAG1
 40
0.0
  9
$LOFTMAG2
 40
0.0
  9
$LOFTPARAM
 70
     7
  9
$LOFTNORMALS
280
     1
  9
$LATITUDE
 40
37.795
  9
$LONGITUDE
 40
-122.394
  9
$NORTHDIRECTION
 40
0.0
  9
$TIMEZONE
 70
 -8000
  9
$LIGHTGLYPHDISPLAY
280
     1
  9
$TILEMODELIGHTSYNCH
280
     1
  9
$CMATERIAL
347
44
  9
$SOLIDHIST
280
     0
  9
$SHOWHIST
280
     1
  9
$DWFFRAME
280
     2
  9
$DGNFRAME
280
     2
  9
$REALWORLDSCALE
290
     1
  9
$INTERFERECOLOR
 62
   256
  9
$CSHADOW
280
     0
  9
$SHADOWPLANELOCATION
 40
0.0
  0
ENDSEC
  0
SECTION
  2
CLASSES
  0
CLASS
  1
ACDBDICTIONARYWDFLT
  2
AcDbDictionaryWithDefault
  3
ObjectDBX Classes
 90
        0
 91
        4
280
     0
281
     0
  0
CLASS
  1
VISUALSTYLE
  2
AcDbVisualStyle
  3
ObjectDBX Classes
 90
     4095
 91
        4
280
     0
281
     0
  0
CLASS
  1
MATERIAL
  2
AcDbMaterial
  3
ObjectDBX Classes
 90
     1153
 91
        4
280
     0
281
     0
  0
CLASS
  1
SCALE
  2
AcDbScale
  3
ObjectDBX Classes
 90
     1153
 91
        4
280
     0
281
     0
  0
CLASS
  1
TABLESTYLE
  2
AcDbTableStyle
  3
ObjectDBX Classes
 90
     4095
 91
        4
280
     0
281
     0
  0
CLASS
  1
MLEADERSTYLE
  2
AcDbMLeaderStyle
  3
ACDB_MLEADERSTYLE_CLASS
 90
     4095
 91
        4
280
     0
281
     0
  0
CLASS
  1
SUN
  2
AcDbSun
  3
SCENEOE
 90
     1153
 91
        4
280
     0
281
     0
  0
CLASS
  1
DICTIONARYVAR
  2
AcDbDictionaryVar
  3
ObjectDBX Classes
 90
        0
 91
        4
280
     0
281
     0
  0
CLASS
  1
CELLSTYLEMAP
  2
AcDbCellStyleMap
  3
ObjectDBX Classes
 90
     1152
 91
        4
280
     0
281
     0
  0
ENDSEC
  0
SECTION
  2
TABLES
  0
TABLE
  2
VPORT
  5
8
330
0
100
AcDbSymbolTable
 70
     1
  0
VPORT
  5
29
330
8
100
AcDbSymbolTableRecord
100
AcDbViewportTableRecord
  2
*Active
 70
     0
 10
0.0
 20
0.0
 11
1.0
 21
1.0
 12
289.0764407139927
 22
482.5035253284942
 13
0.0
 23
0.0
 14
10.0
 24
10.0
 15
10.0
 25
10.0
 16
0.0
 26
0.0
 36
1.0
 17
0.0
 27
0.0
 37
0.0
 40
850.9609485740488
 41
0.7116418978503241
 42
50.0
 43
0.0
 44
0.0
 50
0.0
 51
0.0
 71
     0
 72
   100
 73
     1
 74
     3
 75
     0
 76
     0
 77
     0
 78
     0
281
     0
 65
     1
110
0.0
120
0.0
130
0.0
111
1.0
121
0.0
131
0.0
112
0.0
122
1.0
132
0.0
 79
     0
146
0.0
348
2F
 60
     3
 61
     5
292
     1
282
     1
141
0.0
142
0.0
 63
   250
361
6D
  0
ENDTAB
  0
TABLE
  2
LTYPE
  5
5
330
0
100
AcDbSymbolTable
 70
     2
  0
LTYPE
  5
14
330
5
100
AcDbSymbolTableRecord
100
AcDbLinetypeTableRecord
  2
ByBlock
 70
     0
  3

 72
    65
 73
     0
 40
0.0
  0
LTYPE
  5
15
330
5
100
AcDbSymbolTableRecord
100
AcDbLinetypeTableRecord
  2
ByLayer
 70
     0
  3

 72
    65
 73
     0
 40
0.0
  0
LTYPE
  5
16
330
5
100
AcDbSymbolTableRecord
100
AcDbLinetypeTableRecord
  2
Continuous
 70
     0
  3
Solid line
 72
    65
 73
     0
 40
0.0
  0
LTYPE
  5
71
330
5
100
AcDbSymbolTableRecord
100
AcDbLinetypeTableRecord
  2
K5LT_BASIC
 70
     0
  3

 72
    65
 73
     0
 40
0.0
  0
ENDTAB
  0
TABLE
  2
LAYER
  5
2
330
0
100
AcDbSymbolTable
 70
     3
  0
LAYER
  5
10
330
2
100
AcDbSymbolTableRecord
100
AcDbLayerTableRecord
  2
0
 70
     0
 62
     7
  6
Continuous
370
    -3
390
F
347
46
348
0
  0
LAYER
  5
6F
330
2
100
AcDbSymbolTableRecord
100
AcDbLayerTableRecord
  2
Системный слой
 70
     0
 62
     7
  6
Continuous
370
    -3
390
F
347
46
348
0
  0
LAYER
  5
70
330
2
100
AcDbSymbolTableRecord
100
AcDbLayerTableRecord
  2
Системный слой (1)
 70
     0
 62
   252
420
  9474192
  6
Continuous
370
    -3
390
F
347
46
348
0
  0
ENDTAB
  0
TABLE
  2
STYLE
  5
3
330
0
100
AcDbSymbolTable
 70
     2
  0
STYLE
  5
11
330
3
100
AcDbSymbolTableRecord
100
AcDbTextStyleTableRecord
  2
Standard
 70
     0
 40
0.0
 41
1.0
 50
0.0
 71
     0
 42
2.5
  3
txt
  4

  0
STYLE
  5
152
330
3
100
AcDbSymbolTableRecord
100
AcDbTextStyleTableRecord
  2
KTEXTSTYLE
 70
     0
 40
5.0
 41
0.96
 50
0.0
 71
     0
 42
2.5
  3
GOST_AU.SHX
  4

  0
ENDTAB
  0
TABLE
  2
VIEW
  5
6
330
0
100
AcDbSymbolTable
 70
     0
  0
ENDTAB
  0
TABLE
  2
UCS
  5
7
330
0
100
AcDbSymbolTable
 70
     0
  0
ENDTAB
  0
TABLE
  2
APPID
  5
9
330
0
100
AcDbSymbolTable
 70
     2
  0
APPID
  5
12
330
9
100
AcDbSymbolTableRecord
100
AcDbRegAppTableRecord
  2
ACAD
 70
     0
  0
APPID
  5
6E
330
9
100
AcDbSymbolTableRecord
100
AcDbRegAppTableRecord
  2
KOMPAS
 70
     0
  0
ENDTAB
  0
TABLE
  2
DIMSTYLE
  5
A
330
0
100
AcDbSymbolTable
 70
     1
100
AcDbDimStyleTable
  0
DIMSTYLE
105
27
330
A
100
AcDbSymbolTableRecord
100
AcDbDimStyleTableRecord
  2
ISO-25
 70
     0
 41
2.5
 42
0.625
 43
3.75
 44
1.25
 73
     0
 74
     0
 77
     1
 78
     8
140
2.5
141
2.5
143
0.03937007874016
147
0.625
171
     3
172
     1
178
     0
271
     2
272
     2
274
     3
278
    44
283
     0
284
     8
340
11
  0
ENDTAB
  0
TABLE
  2
BLOCK_RECORD
  5
1
330
0
100
AcDbSymbolTable
 70
     1
  0
BLOCK_RECORD
  5
1F
330
1
100
AcDbSymbolTableRecord
100
AcDbBlockTableRecord
  2
*Model_Space
340
22
 70
     0
280
     1
281
     0
  0
BLOCK_RECORD
  5
1B
330
1
100
AcDbSymbolTableRecord
100
AcDbBlockTableRecord
  2
*Paper_Space
340
1E
 70
     0
280
     1
281
     0
  0
BLOCK_RECORD
  5
23
330
1
100
AcDbSymbolTableRecord
100
AcDbBlockTableRecord
  2
*Paper_Space0
340
26
 70
     0
280
     1
281
     0
  0
ENDTAB
  0
ENDSEC
  0
SECTION
  2
BLOCKS
  0
BLOCK
  5
20
330
1F
100
AcDbEntity
  8
0
100
AcDbBlockBegin
  2
*Model_Space
 70
     0
 10
0.0
 20
0.0
 30
0.0
  3
*Model_Space
  1

  0
ENDBLK
  5
21
330
1F
100
AcDbEntity
  8
0
100
AcDbBlockEnd
  0
BLOCK
  5
1C
330
1B
100
AcDbEntity
 67
     1
  8
0
100
AcDbBlockBegin
  2
*Paper_Space
 70
     0
 10
0.0
 20
0.0
 30
0.0
  3
*Paper_Space
  1

  0
ENDBLK
  5
1D
330
1B
100
AcDbEntity
 67
     1
  8
0
100
AcDbBlockEnd
  0
BLOCK
  5
24
330
23
100
AcDbEntity
  8
0
100
AcDbBlockBegin
  2
*Paper_Space0
 70
     0
 10
0.0
 20
0.0
 30
0.0
  3
*Paper_Space0
  1

  0
ENDBLK
  5
25
330
23
100
AcDbEntity
  8
0
100
AcDbBlockEnd
  0
ENDSEC
  0
SECTION
  2
ENTITIES
  0
LINE
  5
72
330
1F
100
AcDbEntity
  8
Системный слой (1)
  6
K5LT_BASIC
 62
   150
420
    33023
370
    60
100
AcDbLine
 10
91.86474860887414
 20
400.2644396073017
 30
0.0
 11
86.86474860887414
 21
400.2644396073017
 31
0.0
  0
LINE
  5
73
330
1F
100
AcDbEntity
  8
Системный слой (1)
  6
K5LT_BASIC
 62
   150
420
    33023
370
    60
100
AcDbLine
 10
400.8647486088742
 20
89.15846434447724
 30
0.0
 11
400.8647486088742
 21
104.2644396073017
 31
0.0
  0
LINE
  5
74
330
1F
100
AcDbEntity
  8
Системный слой (1)
  6
K5LT_BASIC
 62
   150
420
    33023
370
    60
100
AcDbLine
 10
320.8647486088742
 20
719.1584643444771
 30
0.0
 11
325.8647486088742
 21
719.1584643444771
 31
0.0
  0
LINE
  5
75
330
1F
100
AcDbEntity
  8
Системный слой (1)
  6
K5LT_BASIC
 62
   150
420
    33023
370
    60
100
AcDbLine
 10
298.0164318342295
 20
739.8838228157927
 30
0.0
 11
342.0787106035124
 21
865.4922726966915
 31
0.0
  0
LINE
  5
76
330
1F
100
AcDbEntity
  8
Системный слой (1)
  6
K5LT_BASIC
 62
   150
420
    33023
370
    60
100
AcDbLine
 10
364.0533077983138
 20
559.4296771237043
 30
0.0
 11
364.0533077983138
 21
645.7085202639828
 31
0.0
  0
LINE
  5
77
330
1F
100
AcDbEntity
  8
Системный слой (1)
  6
K5LT_BASIC
 62
   150
420
    33023
370
    60
100
AcDbLine
 10
119.9155900597009
 20
719.1584643444771
 30
0.0
 11
119.9155900597009
 21
734.2644396073017
 31
0.0
  0
LINE
  5
78
330
1F
100
AcDbEntity
  8
Системный слой (1)
  6
K5LT_BASIC
 62
   150
420
    33023
370
    60
100
AcDbLine
 10
394.1910255369265
 20
559.4296771237043
 30
0.0
 11
394.1910255369265
 21
645.7085202639828
 31
0.0
  0
LINE
  5
79
330
1F
100
AcDbEntity
  8
Системный слой (1)
  6
K5LT_BASIC
 62
   150
420
    33023
370
    60
100
AcDbLine
 10
72.89016933428749
 20
855.3268593342646
 30
0.0
 11
72.89016933428749
 21
854.8466831092668
 31
0.0
  0
LINE
  5
7A
330
1F
100
AcDbEntity
  8
Системный слой (1)
  6
K5LT_BASIC
 62
   150
420
    33023
370
    60
100
AcDbLine
 10
369.8008927792456
 20
117.5530068068792
 30
0.0
 11
331.0348698162717
 21
373.9769841361092
 31
0.0
  0
LINE
  5
7B
330
1F
100
AcDbEntity
  8
Системный слой (1)
  6
K5LT_BASIC
 62
   150
420
    33023
370
    60
100
AcDbLine
 10
435.6653982859158
 20
65.36580543925459
 30
0.0
 11
369.8008927792456
 21
373.9769841361094
 31
0.0
  0
LINE
  5
7C
330
1F
100
AcDbEntity
  8
Системный слой (1)
  6
K5LT_BASIC
 62
   150
420
    33023
370
    60
100
AcDbLine
 10
46.58931313164844
 20
645.7085202639828
 30
0.0
 11
46.58931313164845
 21
559.4296771237043
 31
0.0
  0
LINE
  5
7D
330
1F
100
AcDbEntity
  8
Системный слой (1)
  6
K5LT_BASIC
 62
   150
420
    33023
370
    60
100
AcDbLine
 10
109.7454688523034
 20
408.4689629185095
 30
0.0
 11
331.0348698162717
 21
408.4689629185095
 31
0.0
  0
LINE
  5
7E
330
1F
100
AcDbEntity
  8
Системный слой (1)
  6
K5LT_BASIC
 62
   150
420
    33023
370
    60
100
AcDbLine
 10
67.89016933428749
 20
865.4922726966915
 30
0.0
 11
67.89016933428749
 21
855.3268593342646
 31
0.0
  0
LINE
  5
7F
330
1F
100
AcDbEntity
  8
Системный слой (1)
  6
K5LT_BASIC
 62
   150
420
    33023
370
    60
100
AcDbLine
 10
119.9155900597009
 20
734.2644396073017
 30
0.0
 11
114.9155900597009
 21
734.2644396073017
 31
0.0
  0
LINE
  5
80
330
1F
100
AcDbEntity
  8
Системный слой (1)
  6
K5LT_BASIC
 62
   150
420
    33023
370
    60
100
AcDbLine
 10
227.8901693342875
 20
739.8838228157927
 30
0.0
 11
298.0164318342295
 21
739.8838228157927
 31
0.0
  0
LINE
  5
81
330
1F
100
AcDbEntity
  8
Системный слой (1)
  6
K5LT_BASIC
 62
   150
420
    33023
370
    60
100
AcDbLine
 10
72.8901693342875
 20
865.4922726966915
 30
0.0
 11
67.89016933428749
 21
865.4922726966915
 31
0.0
  0
LINE
  5
82
330
1F
100
AcDbEntity
  8
Системный слой (1)
  6
K5LT_BASIC
 62
   150
420
    33023
370
    60
100
AcDbLine
 10
331.0348698162717
 20
373.9769841361092
 30
0.0
 11
109.7454688523034
 21
373.9769841361092
 31
0.0
  0
LINE
  5
83
330
1F
100
AcDbEntity
  8
Системный слой (1)
  6
K5LT_BASIC
 62
   150
420
    33023
370
    60
100
AcDbLine
 10
5.114940382659341
 20
65.36580543925459
 30
0.0
 11
435.6653982859158
 21
65.36580543925459
 31
0.0
  0
LINE
  5
84
330
1F
100
AcDbEntity
  8
Системный слой (1)
  6
K5LT_BASIC
 62
   150
420
    33023
370
    60
100
AcDbLine
 10
347.8647486088742
 20
387.1584643444772
 30
0.0
 11
352.8647486088742
 21
387.1584643444772
 31
0.0
  0
LINE
  5
85
330
1F
100
AcDbEntity
  8
Системный слой (1)
  6
K5LT_BASIC
 62
   150
420
    33023
370
    60
100
AcDbLine
 10
114.9155900597009
 20
719.1584643444771
 30
0.0
 11
119.9155900597009
 21
719.1584643444771
 31
0.0
  0
LINE
  5
86
330
1F
100
AcDbEntity
  8
Системный слой (1)
  6
K5LT_BASIC
 62
   150
420
    33023
370
    60
100
AcDbLine
 10
76.72703087026126
 20
645.7085202639828
 30
0.0
 11
76.72703087026127
 21
559.4296771237043
 31
0.0
  0
LINE
  5
87
330
1F
100
AcDbEntity
  8
Системный слой (1)
  6
K5LT_BASIC
 62
   150
420
    33023
370
    60
100
AcDbLine
 10
352.8647486088742
 20
402.2644396073017
 30
0.0
 11
347.8647486088742
 21
402.2644396073017
 31
0.0
  0
LINE
  5
88
330
1F
100
AcDbEntity
  8
Системный слой (1)
  6
K5LT_BASIC
 62
   150
420
    33023
370
    60
100
AcDbLine
 10
325.8647486088742
 20
719.1584643444771
 30
0.0
 11
325.8647486088742
 21
734.2644396073017
 31
0.0
  0
LINE
  5
89
330
1F
100
AcDbEntity
  8
Системный слой (1)
  6
K5LT_BASIC
 62
   150
420
    33023
370
    60
100
AcDbLine
 10
400.8647486088742
 20
104.2644396073017
 30
0.0
 11
395.8647486088742
 21
104.2644396073017
 31
0.0
  0
LINE
  5
8A
330
1F
100
AcDbEntity
  8
Системный слой (1)
  6
K5LT_BASIC
 62
   150
420
    33023
370
    60
100
AcDbLine
 10
98.70162806506264
 20
865.4922726966915
 30
0.0
 11
142.7639068343454
 21
739.8838228157927
 31
0.0
  0
LINE
  5
8B
330
1F
100
AcDbEntity
  8
Системный слой (1)
  6
K5LT_BASIC
 62
   150
420
    33023
370
    60
100
AcDbLine
 10
372.8901693342875
 20
855.3268593342646
 30
0.0
 11
372.8901693342875
 21
865.4922726966915
 31
0.0
  0
LINE
  5
8C
330
1F
100
AcDbEntity
  8
Системный слой (1)
  6
K5LT_BASIC
 62
   150
420
    33023
370
    60
100
AcDbLine
 10
67.89016933428749
 20
884.0703914859657
 30
0.0
 11
72.89016933428749
 21
884.0703914859657
 31
0.0
  0
LINE
  5
8D
330
1F
100
AcDbEntity
  8
Системный слой (1)
  6
K5LT_BASIC
 62
   150
420
    33023
370
    60
100
AcDbLine
 10
44.86474860887414
 20
102.2644396073017
 30
0.0
 11
39.86474860887414
 21
102.2644396073017
 31
0.0
  0
LINE
  5
8E
330
1F
100
AcDbEntity
  8
Системный слой (1)
  6
K5LT_BASIC
 62
   150
420
    33023
370
    60
100
AcDbLine
 10
367.8901693342875
 20
855.3268593342646
 30
0.0
 11
372.8901693342875
 21
855.3268593342646
 31
0.0
  0
LINE
  5
8F
330
1F
100
AcDbEntity
  8
Системный слой (1)
  6
K5LT_BASIC
 62
   150
420
    33023
370
    60
100
AcDbLine
 10
76.72703087026127
 20
559.4296771237043
 30
0.0
 11
109.7454688523034
 21
408.4689629185095
 31
0.0
  0
LINE
  5
90
330
1F
100
AcDbEntity
  8
Системный слой (1)
  6
K5LT_BASIC
 62
   150
420
    33023
370
    60
100
AcDbLine
 10
367.8901693342874
 20
884.0703914859657
 30
0.0
 11
372.8901693342875
 21
884.0703914859657
 31
0.0
  0
LINE
  5
91
330
1F
100
AcDbEntity
  8
Системный слой (1)
  6
K5LT_BASIC
 62
   150
420
    33023
370
    60
100
AcDbLine
 10
106.8647486088741
 20
713.8838228157927
 30
0.0
 11
46.58931313164844
 21
645.7085202639828
 31
0.0
  0
LINE
  5
92
330
1F
100
AcDbEntity
  8
Системный слой (1)
  6
K5LT_BASIC
 62
   150
420
    33023
370
    60
100
AcDbLine
 10
67.89016933428749
 20
855.3268593342646
 30
0.0
 11
72.89016933428749
 21
855.3268593342646
 31
0.0
  0
LINE
  5
93
330
1F
100
AcDbEntity
  8
Системный слой (1)
  6
K5LT_BASIC
 62
   150
420
    33023
370
    60
100
AcDbLine
 10
72.89016933428749
 20
854.8466831092668
 30
0.0
 11
106.8647486088741
 21
739.8838228157927
 31
0.0
  0
LINE
  5
94
330
1F
100
AcDbEntity
  8
Системный слой (1)
  6
K5LT_BASIC
 62
   150
420
    33023
370
    60
100
AcDbLine
 10
352.8647486088742
 20
387.1584643444772
 30
0.0
 11
352.8647486088742
 21
402.2644396073017
 31
0.0
  0
LINE
  5
95
330
1F
100
AcDbEntity
  8
Системный слой (1)
  6
K5LT_BASIC
 62
   150
420
    33023
370
    60
100
AcDbLine
 10
395.8647486088742
 20
89.15846434447724
 30
0.0
 11
400.8647486088742
 21
89.15846434447724
 31
0.0
  0
LINE
  5
96
330
1F
100
AcDbEntity
  8
Системный слой (1)
  6
K5LT_BASIC
 62
   150
420
    33023
370
    60
100
AcDbLine
 10
106.8647486088741
 20
739.8838228157927
 30
0.0
 11
106.8647486088741
 21
713.8838228157927
 31
0.0
  0
LINE
  5
97
330
1F
100
AcDbEntity
  8
Системный слой (1)
  6
K5LT_BASIC
 62
   150
420
    33023
370
    60
100
AcDbLine
 10
395.8647486088742
 20
104.2644396073017
 30
0.0
 11
395.8647486088742
 21
89.15846434447724
 31
0.0
  0
LINE
  5
98
330
1F
100
AcDbEntity
  8
Системный слой (1)
  6
K5LT_BASIC
 62
   150
420
    33023
370
    60
100
AcDbLine
 10
367.8901693342875
 20
865.4922726966915
 30
0.0
 11
367.8901693342874
 21
884.0703914859657
 31
0.0
  0
LINE
  5
99
330
1F
100
AcDbEntity
  8
Системный слой (1)
  6
K5LT_BASIC
 62
   150
420
    33023
370
    60
100
AcDbLine
 10
333.9155900597009
 20
739.8838228157927
 30
0.0
 11
367.8901693342875
 21
854.8466831092668
 31
0.0
  0
LINE
  5
9A
330
1F
100
AcDbEntity
  8
Системный слой (1)
  6
K5LT_BASIC
 62
   150
420
    33023
370
    60
100
AcDbLine
 10
372.8901693342875
 20
865.4922726966915
 30
0.0
 11
367.8901693342875
 21
865.4922726966915
 31
0.0
  0
LINE
  5
9B
330
1F
100
AcDbEntity
  8
Системный слой (1)
  6
K5LT_BASIC
 62
   150
420
    33023
370
    60
100
AcDbLine
 10
342.0787106035124
 20
865.4922726966915
 30
0.0
 11
98.70162806506264
 21
865.4922726966915
 31
0.0
  0
LINE
  5
9C
330
1F
100
AcDbEntity
  8
Системный слой (1)
  6
K5LT_BASIC
 62
   150
420
    33023
370
    60
100
AcDbLine
 10
70.97944588932945
 20
373.9769841361092
 30
0.0
 11
5.114940382659341
 21
65.36580543925459
 31
0.0
  0
LINE
  5
9D
330
1F
100
AcDbEntity
  8
Системный слой (1)
  6
K5LT_BASIC
 62
   150
420
    33023
370
    60
100
AcDbLine
 10
222.8901693342875
 20
713.8838228157927
 30
0.0
 11
217.8901693342875
 21
713.8838228157927
 31
0.0
  0
LINE
  5
9E
330
1F
100
AcDbEntity
  8
Системный слой (1)
  6
K5LT_BASIC
 62
   150
420
    33023
370
    60
100
AcDbLine
 10
86.86474860887414
 20
400.2644396073017
 30
0.0
 11
86.86474860887414
 21
385.1584643444772
 31
0.0
  0
LINE
  5
9F
330
1F
100
AcDbEntity
  8
Системный слой (1)
  6
K5LT_BASIC
 62
   150
420
    33023
370
    60
100
AcDbLine
 10
320.8647486088741
 20
734.2644396073017
 30
0.0
 11
320.8647486088742
 21
719.1584643444771
 31
0.0
  0
LINE
  5
A0
330
1F
100
AcDbEntity
  8
Системный слой (1)
  6
K5LT_BASIC
 62
   150
420
    33023
370
    60
100
AcDbLine
 10
347.8647486088742
 20
402.2644396073017
 30
0.0
 11
347.8647486088742
 21
387.1584643444772
 31
0.0
  0
LINE
  5
A1
330
1F
100
AcDbEntity
  8
Системный слой (1)
  6
K5LT_BASIC
 62
   150
420
    33023
370
    60
100
AcDbLine
 10
70.97944588932947
 20
117.5530068068792
 30
0.0
 11
369.8008927792456
 21
117.5530068068792
 31
0.0
  0
LINE
  5
A2
330
1F
100
AcDbEntity
  8
Системный слой (1)
  6
K5LT_BASIC
 62
   150
420
    33023
370
    60
100
AcDbLine
 10
369.8008927792456
 20
373.9769841361094
 30
0.0
 11
394.1910255369265
 21
559.4296771237043
 31
0.0
  0
LINE
  5
A3
330
1F
100
AcDbEntity
  8
Системный слой (1)
  6
K5LT_BASIC
 62
   150
420
    33023
370
    60
100
AcDbLine
 10
39.86474860887414
 20
102.2644396073017
 30
0.0
 11
39.86474860887414
 21
87.15846434447724
 31
0.0
  0
LINE
  5
A4
330
1F
100
AcDbEntity
  8
Системный слой (1)
  6
K5LT_BASIC
 62
   150
420
    33023
370
    60
100
AcDbLine
 10
114.9155900597009
 20
734.2644396073017
 30
0.0
 11
114.9155900597009
 21
719.1584643444771
 31
0.0
  0
LINE
  5
A5
330
1F
100
AcDbEntity
  8
Системный слой (1)
  6
K5LT_BASIC
 62
   150
420
    33023
370
    60
100
AcDbLine
 10
394.1910255369265
 20
645.7085202639828
 30
0.0
 11
333.9155900597009
 21
713.8838228157927
 31
0.0
  0
LINE
  5
A6
330
1F
100
AcDbEntity
  8
Системный слой (1)
  6
K5LT_BASIC
 62
   150
420
    33023
370
    60
100
AcDbLine
 10
325.8647486088742
 20
734.2644396073017
 30
0.0
 11
320.8647486088741
 21
734.2644396073017
 31
0.0
  0
LINE
  5
A7
330
1F
100
AcDbEntity
  8
Системный слой (1)
  6
K5LT_BASIC
 62
   150
420
    33023
370
    60
100
AcDbLine
 10
44.86474860887414
 20
87.15846434447724
 30
0.0
 11
44.86474860887414
 21
102.2644396073017
 31
0.0
  0
LINE
  5
A8
330
1F
100
AcDbEntity
  8
Системный слой (1)
  6
K5LT_BASIC
 62
   150
420
    33023
370
    60
100
AcDbLine
 10
67.89016933428749
 20
893.9032997865919
 30
0.0
 11
67.89016933428749
 21
884.0703914859657
 31
0.0
  0
LINE
  5
A9
330
1F
100
AcDbEntity
  8
Системный слой (1)
  6
K5LT_BASIC
 62
   150
420
    33023
370
    60
100
AcDbLine
 10
331.0348698162717
 20
408.4689629185095
 30
0.0
 11
364.0533077983138
 21
559.4296771237043
 31
0.0
  0
LINE
  5
AA
330
1F
100
AcDbEntity
  8
Системный слой (1)
  6
K5LT_BASIC
 62
   150
420
    33023
370
    60
100
AcDbLine
 10
109.7454688523034
 20
373.9769841361092
 30
0.0
 11
70.97944588932947
 21
117.5530068068792
 31
0.0
  0
LINE
  5
AB
330
1F
100
AcDbEntity
  8
Системный слой (1)
  6
K5LT_BASIC
 62
   150
420
    33023
370
    60
100
AcDbLine
 10
46.58931313164845
 20
559.4296771237043
 30
0.0
 11
70.97944588932945
 21
373.9769841361092
 31
0.0
  0
LINE
  5
AC
330
1F
100
AcDbEntity
  8
Системный слой (1)
  6
K5LT_BASIC
 62
   150
420
    33023
370
    60
100
AcDbLine
 10
372.8901693342875
 20
884.0703914859657
 30
0.0
 11
372.8901693342875
 21
893.9032997865919
 31
0.0
  0
LINE
  5
AD
330
1F
100
AcDbEntity
  8
Системный слой (1)
  6
K5LT_BASIC
 62
   150
420
    33023
370
    60
100
AcDbLine
 10
91.86474860887414
 20
385.1584643444772
 30
0.0
 11
91.86474860887414
 21
400.2644396073017
 31
0.0
  0
LINE
  5
AE
330
1F
100
AcDbEntity
  8
Системный слой (1)
  6
K5LT_BASIC
 62
   150
420
    33023
370
    60
100
AcDbLine
 10
86.86474860887414
 20
385.1584643444772
 30
0.0
 11
91.86474860887414
 21
385.1584643444772
 31
0.0
  0
LINE
  5
AF
330
1F
100
AcDbEntity
  8
Системный слой (1)
  6
K5LT_BASIC
 62
   150
420
    33023
370
    60
100
AcDbLine
 10
333.9155900597009
 20
713.8838228157927
 30
0.0
 11
333.9155900597009
 21
739.8838228157927
 31
0.0
  0
LINE
  5
B0
330
1F
100
AcDbEntity
  8
Системный слой (1)
  6
K5LT_BASIC
 62
   150
420
    33023
370
    60
100
AcDbLine
 10
39.86474860887414
 20
87.15846434447724
 30
0.0
 11
44.86474860887414
 21
87.15846434447724
 31
0.0
  0
LINE
  5
B1
330
1F
100
AcDbEntity
  8
Системный слой (1)
  6
K5LT_BASIC
 62
   150
420
    33023
370
    60
100
AcDbLine
 10
364.0533077983138
 20
645.7085202639828
 30
0.0
 11
298.0164318342296
 21
713.8838228157927
 31
0.0
  0
LINE
  5
B2
330
1F
100
AcDbEntity
  8
Системный слой (1)
  6
K5LT_BASIC
 62
   150
420
    33023
370
    60
100
AcDbLine
 10
367.8901693342875
 20
854.8466831092668
 30
0.0
 11
367.8901693342875
 21
855.3268593342646
 31
0.0
  0
LINE
  5
B3
330
1F
100
AcDbEntity
  8
Системный слой (1)
  6
K5LT_BASIC
 62
   150
420
    33023
370
    60
100
AcDbLine
 10
72.89016933428749
 20
884.0703914859657
 30
0.0
 11
72.8901693342875
 21
865.4922726966915
 31
0.0
  0
LINE
  5
B4
330
1F
100
AcDbEntity
  8
Системный слой (1)
  6
K5LT_BASIC
 62
   150
420
    33023
370
    60
100
AcDbLine
 10
142.7639068343454
 20
713.8838228157927
 30
0.0
 11
76.72703087026126
 21
645.7085202639828
 31
0.0
  0
LINE
  5
B5
330
1F
100
AcDbEntity
  8
Системный слой (1)
  6
K5LT_BASIC
 62
   150
420
    33023
370
    60
100
AcDbLine
 10
372.8901693342875
 20
893.9032997865919
 30
0.0
 11
67.89016933428749
 21
893.9032997865919
 31
0.0
  0
LINE
  5
B6
330
1F
100
AcDbEntity
  8
Системный слой (1)
  6
K5LT_BASIC
 62
   150
420
    33023
370
    60
100
AcDbLine
 10
290.0955310567666
 20
102.2644396073017
 30
0.0
 11
290.0955310567666
 21
87.15846434447724
 31
0.0
  0
LINE
  5
B7
330
1F
100
AcDbEntity
  8
Системный слой (1)
  6
K5LT_BASIC
 62
   150
420
    33023
370
    60
100
AcDbLine
 10
70.97944588932947
 20
102.2644396073017
 30
0.0
 11
70.97944588932947
 21
87.15846434447724
 31
0.0
  0
LINE
  5
B8
330
1F
100
AcDbEntity
  8
Системный слой (1)
  6
K5LT_BASIC
 62
   150
420
    33023
370
    60
100
AcDbLine
 10
290.0955310567666
 20
87.15846434447724
 30
0.0
 11
295.0955310567666
 21
87.15846434447724
 31
0.0
  0
LINE
  5
B9
330
1F
100
AcDbEntity
  8
Системный слой (1)
  6
K5LT_BASIC
 62
   150
420
    33023
370
    60
100
AcDbLine
 10
145.6848076118085
 20
87.15846434447724
 30
0.0
 11
150.6848076118085
 21
87.15846434447724
 31
0.0
  0
LINE
  5
BA
330
1F
100
AcDbEntity
  8
Системный слой (1)
  6
K5LT_BASIC
 62
   150
420
    33023
370
    60
100
AcDbLine
 10
109.8647486088741
 20
102.2644396073017
 30
0.0
 11
109.8647486088741
 21
87.15846434447724
 31
0.0
  0
LINE
  5
BB
330
1F
100
AcDbEntity
  8
Системный слой (1)
  6
K5LT_BASIC
 62
   150
420
    33023
370
    60
100
AcDbLine
 10
295.0955310567666
 20
102.2644396073017
 30
0.0
 11
290.0955310567666
 21
102.2644396073017
 31
0.0
  0
LINE
  5
BC
330
1F
100
AcDbEntity
  8
Системный слой (1)
  6
K5LT_BASIC
 62
   150
420
    33023
370
    60
100
AcDbLine
 10
75.97944588932947
 20
102.2644396073017
 30
0.0
 11
70.97944588932947
 21
102.2644396073017
 31
0.0
  0
LINE
  5
BD
330
1F
100
AcDbEntity
  8
Системный слой (1)
  6
K5LT_BASIC
 62
   150
420
    33023
370
    60
100
AcDbLine
 10
70.97944588932947
 20
87.15846434447724
 30
0.0
 11
75.97944588932947
 21
87.15846434447724
 31
0.0
  0
LINE
  5
BE
330
1F
100
AcDbEntity
  8
Системный слой (1)
  6
K5LT_BASIC
 62
   150
420
    33023
370
    60
100
AcDbLine
 10
150.6848076118085
 20
102.2644396073017
 30
0.0
 11
145.6848076118085
 21
102.2644396073017
 31
0.0
  0
LINE
  5
BF
330
1F
100
AcDbEntity
  8
Системный слой (1)
  6
K5LT_BASIC
 62
   150
420
    33023
370
    60
100
AcDbLine
 10
330.915590059701
 20
102.2644396073017
 30
0.0
 11
325.915590059701
 21
102.2644396073017
 31
0.0
  0
LINE
  5
C0
330
1F
100
AcDbEntity
  8
Системный слой (1)
  6
K5LT_BASIC
 62
   150
420
    33023
370
    60
100
AcDbLine
 10
145.6848076118085
 20
102.2644396073017
 30
0.0
 11
145.6848076118085
 21
87.15846434447724
 31
0.0
  0
LINE
  5
C1
330
1F
100
AcDbEntity
  8
Системный слой (1)
  6
K5LT_BASIC
 62
   150
420
    33023
370
    60
100
AcDbLine
 10
369.8008927792456
 20
102.2644396073017
 30
0.0
 11
364.8008927792456
 21
102.2644396073017
 31
0.0
  0
LINE
  5
C2
330
1F
100
AcDbEntity
  8
Системный слой (1)
  6
K5LT_BASIC
 62
   150
420
    33023
370
    60
100
AcDbLine
 10
325.915590059701
 20
102.2644396073017
 30
0.0
 11
325.915590059701
 21
87.15846434447724
 31
0.0
  0
LINE
  5
C3
330
1F
100
AcDbEntity
  8
Системный слой (1)
  6
K5LT_BASIC
 62
   150
420
    33023
370
    60
100
AcDbLine
 10
364.8008927792456
 20
87.15846434447724
 30
0.0
 11
369.8008927792456
 21
87.15846434447724
 31
0.0
  0
LINE
  5
C4
330
1F
100
AcDbEntity
  8
Системный слой (1)
  6
K5LT_BASIC
 62
   150
420
    33023
370
    60
100
AcDbLine
 10
150.6848076118085
 20
87.15846434447724
 30
0.0
 11
150.6848076118085
 21
102.2644396073017
 31
0.0
  0
LINE
  5
C5
330
1F
100
AcDbEntity
  8
Системный слой (1)
  6
K5LT_BASIC
 62
   150
420
    33023
370
    60
100
AcDbLine
 10
114.8647486088741
 20
102.2644396073017
 30
0.0
 11
109.8647486088741
 21
102.2644396073017
 31
0.0
  0
LINE
  5
C6
330
1F
100
AcDbEntity
  8
Системный слой (1)
  6
K5LT_BASIC
 62
   150
420
    33023
370
    60
100
AcDbLine
 10
295.0955310567666
 20
87.15846434447724
 30
0.0
 11
295.0955310567666
 21
102.2644396073017
 31
0.0
  0
LINE
  5
C7
330
1F
100
AcDbEntity
  8
Системный слой (1)
  6
K5LT_BASIC
 62
   150
420
    33023
370
    60
100
AcDbLine
 10
369.8008927792456
 20
87.15846434447724
 30
0.0
 11
369.8008927792456
 21
102.2644396073017
 31
0.0
  0
LINE
  5
C8
330
1F
100
AcDbEntity
  8
Системный слой (1)
  6
K5LT_BASIC
 62
   150
420
    33023
370
    60
100
AcDbLine
 10
114.8647486088741
 20
87.15846434447724
 30
0.0
 11
114.8647486088741
 21
102.2644396073017
 31
0.0
  0
CIRCLE
  5
C9
330
1F
100
AcDbEntity
  8
Системный слой (1)
  6
K5LT_BASIC
 62
   150
420
    33023
370
    60
100
AcDbCircle
 10
44.86474860887414
 20
155.6746669562431
 30
0.0
 40
4.0
  0
LINE
  5
CA
330
1F
100
AcDbEntity
  8
Системный слой (1)
  6
K5LT_BASIC
 62
   150
420
    33023
370
    60
100
AcDbLine
 10
75.97944588932947
 20
87.15846434447724
 30
0.0
 11
75.97944588932947
 21
102.2644396073017
 31
0.0
  0
LINE
  5
CB
330
1F
100
AcDbEntity
  8
Системный слой (1)
  6
K5LT_BASIC
 62
   150
420
    33023
370
    60
100
AcDbLine
 10
325.915590059701
 20
87.15846434447724
 30
0.0
 11
330.915590059701
 21
87.15846434447724
 31
0.0
  0
LINE
  5
CC
330
1F
100
AcDbEntity
  8
Системный слой (1)
  6
K5LT_BASIC
 62
   150
420
    33023
370
    60
100
AcDbLine
 10
109.8647486088741
 20
87.15846434447724
 30
0.0
 11
114.8647486088741
 21
87.15846434447724
 31
0.0
  0
LINE
  5
CD
330
1F
100
AcDbEntity
  8
Системный слой (1)
  6
K5LT_BASIC
 62
   150
420
    33023
370
    60
100
AcDbLine
 10
364.8008927792456
 20
102.2644396073017
 30
0.0
 11
364.8008927792456
 21
87.15846434447724
 31
0.0
  0
LINE
  5
CE
330
1F
100
AcDbEntity
  8
Системный слой (1)
  6
K5LT_BASIC
 62
   150
420
    33023
370
    60
100
AcDbLine
 10
330.915590059701
 20
87.15846434447724
 30
0.0
 11
330.915590059701
 21
102.2644396073017
 31
0.0
  0
LINE
  5
CF
330
1F
100
AcDbEntity
  8
Системный слой (1)
  6
K5LT_BASIC
 62
   150
420
    33023
370
    60
100
AcDbLine
 10
212.8901693342875
 20
754.8742111506174
 30
0.0
 11
217.8901693342875
 21
754.8742111506174
 31
0.0
  0
LINE
  5
D0
330
1F
100
AcDbEntity
  8
Системный слой (1)
  6
K5LT_BASIC
 62
   150
420
    33023
370
    60
100
AcDbLine
 10
222.8901693342875
 20
699.8838228157927
 30
0.0
 11
222.8901693342875
 21
713.8838228157927
 31
0.0
  0
LINE
  5
D1
330
1F
100
AcDbEntity
  8
Системный слой (1)
  6
K5LT_BASIC
 62
   150
420
    33023
370
    60
100
AcDbLine
 10
227.8901693342875
 20
699.8838228157927
 30
0.0
 11
222.8901693342875
 21
699.8838228157927
 31
0.0
  0
LINE
  5
D2
330
1F
100
AcDbEntity
  8
Системный слой (1)
  6
K5LT_BASIC
 62
   150
420
    33023
370
    60
100
AcDbLine
 10
217.8901693342875
 20
713.8838228157927
 30
0.0
 11
217.8901693342875
 21
699.8838228157927
 31
0.0
  0
LINE
  5
D3
330
1F
100
AcDbEntity
  8
Системный слой (1)
  6
K5LT_BASIC
 62
   150
420
    33023
370
    60
100
AcDbLine
 10
227.8901693342875
 20
713.8838228157927
 30
0.0
 11
227.8901693342875
 21
699.8838228157927
 31
0.0
  0
LINE
  5
D4
330
1F
100
AcDbEntity
  8
Системный слой (1)
  6
K5LT_BASIC
 62
   150
420
    33023
370
    60
100
AcDbLine
 10
212.8901693342875
 20
739.8838228157927
 30
0.0
 11
212.8901693342875
 21
754.8742111506174
 31
0.0
  0
LINE
  5
D5
330
1F
100
AcDbEntity
  8
Системный слой (1)
  6
K5LT_BASIC
 62
   150
420
    33023
370
    60
100
AcDbLine
 10
142.7639068343454
 20
739.8838228157927
 30
0.0
 11
212.8901693342875
 21
739.8838228157927
 31
0.0
  0
LINE
  5
D6
330
1F
100
AcDbEntity
  8
Системный слой (1)
  6
K5LT_BASIC
 62
   150
420
    33023
370
    60
100
AcDbLine
 10
212.8901693342875
 20
713.8838228157927
 30
0.0
 11
142.7639068343454
 21
713.8838228157927
 31
0.0
  0
LINE
  5
D7
330
1F
100
AcDbEntity
  8
Системный слой (1)
  6
K5LT_BASIC
 62
   150
420
    33023
370
    60
100
AcDbLine
 10
222.8901693342875
 20
754.8742111506174
 30
0.0
 11
227.8901693342875
 21
754.8742111506174
 31
0.0
  0
LINE
  5
D8
330
1F
100
AcDbEntity
  8
Системный слой (1)
  6
K5LT_BASIC
 62
   150
420
    33023
370
    60
100
AcDbLine
 10
212.8901693342875
 20
699.8838228157927
 30
0.0
 11
212.8901693342875
 21
713.8838228157927
 31
0.0
  0
LINE
  5
D9
330
1F
100
AcDbEntity
  8
Системный слой (1)
  6
K5LT_BASIC
 62
   150
420
    33023
370
    60
100
AcDbLine
 10
217.8901693342875
 20
739.8838228157927
 30
0.0
 11
222.8901693342875
 21
739.8838228157927
 31
0.0
  0
LINE
  5
DA
330
1F
100
AcDbEntity
  8
Системный слой (1)
  6
K5LT_BASIC
 62
   150
420
    33023
370
    60
100
AcDbLine
 10
298.0164318342296
 20
713.8838228157927
 30
0.0
 11
227.8901693342875
 21
713.8838228157927
 31
0.0
  0
LINE
  5
DB
330
1F
100
AcDbEntity
  8
Системный слой (1)
  6
K5LT_BASIC
 62
   150
420
    33023
370
    60
100
AcDbLine
 10
217.8901693342875
 20
699.8838228157927
 30
0.0
 11
212.8901693342875
 21
699.8838228157927
 31
0.0
  0
LINE
  5
DC
330
1F
100
AcDbEntity
  8
Системный слой (1)
  6
K5LT_BASIC
 62
   150
420
    33023
370
    60
100
AcDbLine
 10
222.8901693342875
 20
739.8838228157927
 30
0.0
 11
222.8901693342875
 21
754.8742111506174
 31
0.0
  0
LINE
  5
DD
330
1F
100
AcDbEntity
  8
Системный слой (1)
  6
K5LT_BASIC
 62
   150
420
    33023
370
    60
100
AcDbLine
 10
217.8901693342875
 20
754.8742111506174
 30
0.0
 11
217.8901693342875
 21
739.8838228157927
 31
0.0
  0
LINE
  5
DE
330
1F
100
AcDbEntity
  8
Системный слой (1)
  6
K5LT_BASIC
 62
   150
420
    33023
370
    60
100
AcDbLine
 10
227.8901693342875
 20
754.8742111506174
 30
0.0
 11
227.8901693342875
 21
739.8838228157927
 31
0.0
  0
ARC
  5
DF
330
1F
100
AcDbEntity
  8
Системный слой (1)
  6
K5LT_BASIC
 62
   150
420
    33023
370
    60
100
AcDbCircle
 10
210.9681552947297
 20
303.0458141065988
 30
0.0
 40
20.0
100
AcDbArc
 50
0.0
 51
90.0
  0
ARC
  5
E0
330
1F
100
AcDbEntity
  8
Системный слой (1)
  6
K5LT_BASIC
 62
   150
420
    33023
370
    60
100
AcDbCircle
 10
195.8331219427535
 20
149.30108737041
 30
0.0
 40
20.0
100
AcDbArc
 50
269.9999999999999
 51
307.0552171910414
  0
LINE
  5
E1
330
1F
100
AcDbEntity
  8
Системный слой (1)
  6
K5LT_BASIC
 62
   150
420
    33023
370
    60
100
AcDbLine
 10
242.1097029853235
 20
159.1820411241304
 30
0.0
 11
207.8848100628209
 21
133.3399842300683
 31
0.0
  0
LINE
  5
E2
330
1F
100
AcDbEntity
  8
Системный слой (1)
  6
K5LT_BASIC
 62
   150
420
    33023
370
    60
100
AcDbLine
 10
263.4681552947297
 20
270.9705435769189
 30
0.0
 11
258.4681552947297
 21
270.9705435769189
 31
0.0
  0
LINE
  5
E3
330
1F
100
AcDbEntity
  8
Системный слой (1)
  6
K5LT_BASIC
 62
   150
420
    33023
370
    60
100
AcDbLine
 10
113.4681552947297
 20
285.7431141305208
 30
0.0
 11
113.4681552947297
 21
270.9705435769189
 31
0.0
  0
LINE
  5
E4
330
1F
100
AcDbEntity
  8
Системный слой (1)
  6
K5LT_BASIC
 62
   150
420
    33023
370
    60
100
AcDbLine
 10
258.4681552947297
 20
285.7431141305208
 30
0.0
 11
263.4681552947297
 21
285.7431141305208
 31
0.0
  0
LINE
  5
E5
330
1F
100
AcDbEntity
  8
Системный слой (1)
  6
K5LT_BASIC
 62
   150
420
    33023
370
    60
100
AcDbLine
 10
195.8331219427536
 20
129.30108737041
 30
0.0
 11
176.1031886467059
 21
129.30108737041
 31
0.0
  0
ARC
  5
E6
330
1F
100
AcDbEntity
  8
Системный слой (1)
  6
K5LT_BASIC
 62
   150
420
    33023
370
    60
100
AcDbCircle
 10
160.9681552947297
 20
303.0458141065988
 30
0.0
 40
20.0
100
AcDbArc
 50
90.0
 51
180.0
  0
LINE
  5
E7
330
1F
100
AcDbEntity
  8
Системный слой (1)
  6
K5LT_BASIC
 62
   150
420
    33023
370
    60
100
AcDbLine
 10
246.0580043830317
 20
350.7125172614388
 30
0.0
 11
266.4300057847396
 21
301.0358900994357
 31
0.0
  0
ARC
  5
E8
330
1F
100
AcDbEntity
  8
Системный слой (1)
  6
K5LT_BASIC
 62
   150
420
    33023
370
    60
100
AcDbCircle
 10
124.0107434778493
 20
232.1827600693219
 30
0.0
 40
20.0
100
AcDbArc
 50
180.0
 51
197.3930667440374
  0
ARC
  5
E9
330
1F
100
AcDbEntity
  8
Системный слой (1)
  6
K5LT_BASIC
 62
   150
420
    33023
370
    60
100
AcDbCircle
 10
141.8782957242033
 20
175.1431442644721
 30
0.0
 40
20.0
100
AcDbArc
 50
197.3930667440373
 51
232.9447828089585
  0
ARC
  5
EA
330
1F
100
AcDbEntity
  8
Системный слой (1)
  6
K5LT_BASIC
 62
   150
420
    33023
370
    60
100
AcDbCircle
 10
227.5535657099022
 20
343.123989776321
 30
0.0
 40
20.0
100
AcDbArc
 50
22.29815548935403
 51
90.0
  0
ARC
  5
EB
330
1F
100
AcDbEntity
  8
Системный слой (1)
  6
K5LT_BASIC
 62
   150
420
    33023
370
    60
100
AcDbCircle
 10
247.9255671116101
 20
293.4473626143179
 30
0.0
 40
20.0
100
AcDbArc
 50
0.0
 51
22.29815548935419
  0
LINE
  5
EC
330
1F
100
AcDbEntity
  8
Системный слой (1)
  6
K5LT_BASIC
 62
   150
420
    33023
370
    60
100
AcDbLine
 10
258.4681552947297
 20
252.6701949806658
 30
0.0
 11
263.4681552947297
 21
252.6701949806658
 31
0.0
  0
LINE
  5
ED
330
1F
100
AcDbEntity
  8
Системный слой (1)
  6
K5LT_BASIC
 62
   150
420
    33023
370
    60
100
AcDbLine
 10
108.4681552947297
 20
252.6701949806658
 30
0.0
 11
113.4681552947297
 21
252.6701949806658
 31
0.0
  0
ARC
  5
EE
330
1F
100
AcDbEntity
  8
Системный слой (1)
  6
K5LT_BASIC
 62
   150
420
    33023
370
    60
100
AcDbCircle
 10
176.1031886467059
 20
149.30108737041
 30
0.0
 40
20.0
100
AcDbArc
 50
232.9447828089585
 51
270.0
  0
LINE
  5
EF
330
1F
100
AcDbEntity
  8
Системный слой (1)
  6
K5LT_BASIC
 62
   150
420
    33023
370
    60
100
AcDbLine
 10
113.4681552947297
 20
241.2049163420494
 30
0.0
 11
108.4681552947297
 21
241.2049163420494
 31
0.0
  0
ARC
  5
F0
330
1F
100
AcDbEntity
  8
Системный слой (1)
  6
K5LT_BASIC
 62
   150
420
    33023
370
    60
100
AcDbCircle
 10
124.0107434778493
 20
293.4473626143179
 30
0.0
 40
20.0
100
AcDbArc
 50
157.7018445106458
 51
180.0
  0
LINE
  5
F1
330
1F
100
AcDbEntity
  8
Системный слой (1)
  6
K5LT_BASIC
 62
   150
420
    33023
370
    60
100
AcDbLine
 10
230.9681552947297
 20
303.0458141065988
 30
0.0
 11
230.9681552947297
 21
203.0458141065988
 31
0.0
  0
LINE
  5
F2
330
1F
100
AcDbEntity
  8
Системный слой (1)
  6
K5LT_BASIC
 62
   150
420
    33023
370
    60
100
AcDbLine
 10
267.9255671116101
 20
293.4473626143179
 30
0.0
 11
267.9255671116101
 21
232.1827600693219
 31
0.0
  0
LINE
  5
F3
330
1F
100
AcDbEntity
  8
Системный слой (1)
  6
K5LT_BASIC
 62
   150
420
    33023
370
    60
100
AcDbLine
 10
267.0110972696323
 20
226.2042536850129
 30
0.0
 11
249.1435450232784
 21
169.1646378801631
 31
0.0
  0
LINE
  5
F4
330
1F
100
AcDbEntity
  8
Системный слой (1)
  6
K5LT_BASIC
 62
   150
420
    33023
370
    60
100
AcDbLine
 10
108.4681552947297
 20
285.7431141305208
 30
0.0
 11
113.4681552947297
 21
285.7431141305208
 31
0.0
  0
LINE
  5
F5
330
1F
100
AcDbEntity
  8
Системный слой (1)
  6
K5LT_BASIC
 62
   150
420
    33023
370
    60
100
AcDbLine
 10
160.9681552947297
 20
323.0458141065988
 30
0.0
 11
210.9681552947297
 21
323.0458141065988
 31
0.0
  0
LINE
  5
F6
330
1F
100
AcDbEntity
  8
Системный слой (1)
  6
K5LT_BASIC
 62
   150
420
    33023
370
    60
100
AcDbLine
 10
108.4681552947297
 20
270.9705435769189
 30
0.0
 11
108.4681552947297
 21
285.7431141305208
 31
0.0
  0
ARC
  5
F7
330
1F
100
AcDbEntity
  8
Системный слой (1)
  6
K5LT_BASIC
 62
   150
420
    33023
370
    60
100
AcDbCircle
 10
230.0580148652562
 20
175.1431442644721
 30
0.0
 40
20.0
100
AcDbArc
 50
307.0552171910414
 51
342.6069332559628
  0
LINE
  5
F8
330
1F
100
AcDbEntity
  8
Системный слой (1)
  6
K5LT_BASIC
 62
   150
420
    33023
370
    60
100
AcDbLine
 10
258.4681552947297
 20
241.2049163420494
 30
0.0
 11
258.4681552947297
 21
252.6701949806658
 31
0.0
  0
LINE
  5
F9
330
1F
100
AcDbEntity
  8
Системный слой (1)
  6
K5LT_BASIC
 62
   150
420
    33023
370
    60
100
AcDbLine
 10
113.4681552947297
 20
270.9705435769189
 30
0.0
 11
108.4681552947297
 21
270.9705435769189
 31
0.0
  0
LINE
  5
FA
330
1F
100
AcDbEntity
  8
Системный слой (1)
  6
K5LT_BASIC
 62
   150
420
    33023
370
    60
100
AcDbLine
 10
140.9681552947297
 20
203.0458141065988
 30
0.0
 11
140.9681552947297
 21
303.0458141065988
 31
0.0
  0
LINE
  5
FB
330
1F
100
AcDbEntity
  8
Системный слой (1)
  6
K5LT_BASIC
 62
   150
420
    33023
370
    60
100
AcDbLine
 10
108.4681552947297
 20
241.2049163420494
 30
0.0
 11
108.4681552947297
 21
252.6701949806658
 31
0.0
  0
ARC
  5
FC
330
1F
100
AcDbEntity
  8
Системный слой (1)
  6
K5LT_BASIC
 62
   150
420
    33023
370
    60
100
AcDbCircle
 10
180.9681552947297
 20
203.0458141065988
 30
0.0
 40
40.0
100
AcDbArc
 50
180.0
 51
270.0
  0
LINE
  5
FD
330
1F
100
AcDbEntity
  8
Системный слой (1)
  6
K5LT_BASIC
 62
   150
420
    33023
370
    60
100
AcDbLine
 10
263.4681552947297
 20
285.7431141305208
 30
0.0
 11
263.4681552947297
 21
270.9705435769189
 31
0.0
  0
LINE
  5
FE
330
1F
100
AcDbEntity
  8
Системный слой (1)
  6
K5LT_BASIC
 62
   150
420
    33023
370
    60
100
AcDbLine
 10
144.3827448795573
 20
363.123989776321
 30
0.0
 11
227.5535657099022
 21
363.123989776321
 31
0.0
  0
ARC
  5
FF
330
1F
100
AcDbEntity
  8
Системный слой (1)
  6
K5LT_BASIC
 62
   150
420
    33023
370
    60
100
AcDbCircle
 10
190.9681552947297
 20
203.0458141065988
 30
0.0
 40
40.0
100
AcDbArc
 50
270.0
 51
0.0
  0
LINE
  5
100
330
1F
100
AcDbEntity
  8
Системный слой (1)
  6
K5LT_BASIC
 62
   150
420
    33023
370
    60
100
AcDbLine
 10
258.4681552947297
 20
270.9705435769189
 30
0.0
 11
258.4681552947297
 21
285.7431141305208
 31
0.0
  0
LINE
  5
101
330
1F
100
AcDbEntity
  8
Системный слой (1)
  6
K5LT_BASIC
 62
   150
420
    33023
370
    60
100
AcDbLine
 10
263.4681552947297
 20
241.2049163420494
 30
0.0
 11
258.4681552947297
 21
241.2049163420494
 31
0.0
  0
LINE
  5
102
330
1F
100
AcDbEntity
  8
Системный слой (1)
  6
K5LT_BASIC
 62
   150
420
    33023
370
    60
100
AcDbLine
 10
263.4681552947297
 20
252.6701949806658
 30
0.0
 11
263.4681552947297
 21
241.2049163420494
 31
0.0
  0
LINE
  5
103
330
1F
100
AcDbEntity
  8
Системный слой (1)
  6
K5LT_BASIC
 62
   150
420
    33023
370
    60
100
AcDbLine
 10
104.0107434778493
 20
232.1827600693219
 30
0.0
 11
104.0107434778493
 21
293.4473626143179
 31
0.0
  0
LINE
  5
104
330
1F
100
AcDbEntity
  8
Системный слой (1)
  6
K5LT_BASIC
 62
   150
420
    33023
370
    60
100
AcDbLine
 10
164.0515005266385
 20
133.3399842300683
 30
0.0
 11
129.8266076041359
 21
159.1820411241304
 31
0.0
  0
ARC
  5
105
330
1F
100
AcDbEntity
  8
Системный слой (1)
  6
K5LT_BASIC
 62
   150
420
    33023
370
    60
100
AcDbCircle
 10
144.3827448795573
 20
343.123989776321
 30
0.0
 40
20.0
100
AcDbArc
 50
90.0
 51
157.7018445106458
  0
LINE
  5
106
330
1F
100
AcDbEntity
  8
Системный слой (1)
  6
K5LT_BASIC
 62
   150
420
    33023
370
    60
100
AcDbLine
 10
122.7927655661811
 20
169.1646378801631
 30
0.0
 11
104.9252133198271
 21
226.2042536850129
 31
0.0
  0
LINE
  5
107
330
1F
100
AcDbEntity
  8
Системный слой (1)
  6
K5LT_BASIC
 62
   150
420
    33023
370
    60
100
AcDbLine
 10
105.5063048047198
 20
301.0358900994357
 30
0.0
 11
125.8783062064278
 21
350.7125172614388
 31
0.0
  0
LINE
  5
108
330
1F
100
AcDbEntity
  8
Системный слой (1)
  6
K5LT_BASIC
 62
   150
420
    33023
370
    60
100
AcDbLine
 10
113.4681552947297
 20
252.6701949806658
 30
0.0
 11
113.4681552947297
 21
241.2049163420494
 31
0.0
  0
LINE
  5
109
330
1F
100
AcDbEntity
  8
Системный слой (1)
  6
K5LT_BASIC
 62
   150
420
    33023
370
    60
100
AcDbLine
 10
190.9681552947297
 20
163.0458141065988
 30
0.0
 11
180.9681552947297
 21
163.0458141065988
 31
0.0
  0
ARC
  5
10A
330
1F
100
AcDbEntity
  8
Системный слой (1)
  6
K5LT_BASIC
 62
   150
420
    33023
370
    60
100
AcDbCircle
 10
247.9255671116101
 20
232.1827600693219
 30
0.0
 40
20.0
100
AcDbArc
 50
342.6069332559626
 51
0.0
  0
LINE
  5
10B
330
1F
100
AcDbEntity
  8
Системный слой (1)
  6
K5LT_BASIC
 62
   150
420
    33023
370
    60
100
AcDbLine
 10
275.1443228610385
 20
697.5034753314951
 30
0.0
 11
254.8056917747162
 21
697.5034753314951
 31
0.0
  0
LINE
  5
10C
330
1F
100
AcDbEntity
  8
Системный слой (1)
  6
K5LT_BASIC
 62
   150
420
    33023
370
    60
100
AcDbLine
 10
301.8331219427536
 20
454.88448949542
 30
0.0
 11
301.8331219427536
 21
465.0499028578471
 31
0.0
  0
LINE
  5
10D
330
1F
100
AcDbEntity
  8
Системный слой (1)
  6
K5LT_BASIC
 62
   150
420
    33023
370
    60
100
AcDbLine
 10
192.7629913649842
 20
678.0919372705704
 30
0.0
 11
278.226368640096
 21
678.0919372705704
 31
0.0
  0
LINE
  5
10E
330
1F
100
AcDbEntity
  8
Системный слой (1)
  6
K5LT_BASIC
 62
   150
420
    33023
370
    60
100
AcDbLine
 10
301.8331219427536
 20
493.4609299477474
 30
0.0
 11
306.8331219427536
 21
493.4609299477474
 31
0.0
  0
LINE
  5
10F
330
1F
100
AcDbEntity
  8
Системный слой (1)
  6
K5LT_BASIC
 62
   150
420
    33023
370
    60
100
AcDbLine
 10
306.8331219427536
 20
454.88448949542
 30
0.0
 11
301.8331219427536
 21
454.88448949542
 31
0.0
  0
LINE
  5
110
330
1F
100
AcDbEntity
  8
Системный слой (1)
  6
K5LT_BASIC
 62
   150
420
    33023
370
    60
100
AcDbLine
 10
93.83312194275354
 20
496.2501407666032
 30
0.0
 11
93.83312194275354
 21
531.7174399898755
 31
0.0
  0
LINE
  5
111
330
1F
100
AcDbEntity
  8
Системный слой (1)
  6
K5LT_BASIC
 62
   150
420
    33023
370
    60
100
AcDbLine
 10
317.0797988782837
 20
447.5034753314951
 30
0.0
 11
146.1530443280601
 21
447.5034753314951
 31
0.0
  0
LINE
  5
112
330
1F
100
AcDbEntity
  8
Системный слой (1)
  6
K5LT_BASIC
 62
   150
420
    33023
370
    60
100
AcDbLine
 10
108.8331219427535
 20
520.8972019174734
 30
0.0
 11
108.8331219427535
 21
505.3630958228285
 31
0.0
  0
LINE
  5
113
330
1F
100
AcDbEntity
  8
Системный слой (1)
  6
K5LT_BASIC
 62
   150
420
    33023
370
    60
100
AcDbLine
 10
301.8331219427536
 20
465.0499028578471
 30
0.0
 11
306.8331219427536
 21
465.0499028578471
 31
0.0
  0
LINE
  5
114
330
1F
100
AcDbEntity
  8
Системный слой (1)
  6
K5LT_BASIC
 62
   150
420
    33023
370
    60
100
AcDbLine
 10
150.8331219427536
 20
454.88448949542
 30
0.0
 11
150.8331219427536
 21
465.0499028578471
 31
0.0
  0
LINE
  5
115
330
1F
100
AcDbEntity
  8
Системный слой (1)
  6
K5LT_BASIC
 62
   150
420
    33023
370
    60
100
AcDbLine
 10
121.5076516741005
 20
537.4631089972746
 30
0.0
 11
192.7629913649842
 21
678.0919372705704
 31
0.0
  0
LINE
  5
116
330
1F
100
AcDbEntity
  8
Системный слой (1)
  6
K5LT_BASIC
 62
   150
420
    33023
370
    60
100
AcDbLine
 10
329.5076516741005
 20
619.8497992412133
 30
0.0
 11
329.5076516741005
 21
527.8912113755722
 31
0.0
  0
LINE
  5
117
330
1F
100
AcDbEntity
  8
Системный слой (1)
  6
K5LT_BASIC
 62
   150
420
    33023
370
    60
100
AcDbLine
 10
329.5076516741005
 20
527.8912113755722
 30
0.0
 11
314.8063224483126
 21
498.9915743230713
 31
0.0
  0
LINE
  5
118
330
1F
100
AcDbEntity
  8
Системный слой (1)
  6
K5LT_BASIC
 62
   150
420
    33023
370
    60
100
AcDbLine
 10
182.9022965563581
 20
707.5034753314951
 30
0.0
 11
289.7315181502479
 21
707.5034753314951
 31
0.0
  0
LINE
  5
119
330
1F
100
AcDbEntity
  8
Системный слой (1)
  6
K5LT_BASIC
 62
   150
420
    33023
370
    60
100
AcDbLine
 10
339.8331219427536
 20
537.8972019174734
 30
0.0
 11
344.8331219427536
 21
537.8972019174734
 31
0.0
  0
LINE
  5
11A
330
1F
100
AcDbEntity
  8
Системный слой (1)
  6
K5LT_BASIC
 62
   150
420
    33023
370
    60
100
AcDbLine
 10
155.8331219427536
 20
454.88448949542
 30
0.0
 11
150.8331219427536
 21
454.88448949542
 31
0.0
  0
LINE
  5
11B
330
1F
100
AcDbEntity
  8
Системный слой (1)
  6
K5LT_BASIC
 62
   150
420
    33023
370
    60
100
AcDbLine
 10
344.8331219427536
 20
537.8972019174734
 30
0.0
 11
344.8331219427536
 21
522.3630958228285
 31
0.0
  0
LINE
  5
11C
330
1F
100
AcDbEntity
  8
Системный слой (1)
  6
K5LT_BASIC
 62
   150
420
    33023
370
    60
100
AcDbLine
 10
353.8331219427536
 20
634.7008027947987
 30
0.0
 11
353.8331219427536
 21
519.7525679627474
 31
0.0
  0
LINE
  5
11D
330
1F
100
AcDbEntity
  8
Системный слой (1)
  6
K5LT_BASIC
 62
   150
420
    33023
370
    60
100
AcDbLine
 10
306.8331219427536
 20
483.6280216471213
 30
0.0
 11
301.8331219427536
 21
483.6280216471213
 31
0.0
  0
LINE
  5
11E
330
1F
100
AcDbEntity
  8
Системный слой (1)
  6
K5LT_BASIC
 62
   150
420
    33023
370
    60
100
AcDbLine
 10
155.8331219427536
 20
465.0499028578471
 30
0.0
 11
155.8331219427536
 21
454.88448949542
 31
0.0
  0
LINE
  5
11F
330
1F
100
AcDbEntity
  8
Системный слой (1)
  6
K5LT_BASIC
 62
   150
420
    33023
370
    60
100
AcDbLine
 10
103.8331219427535
 20
520.8972019174734
 30
0.0
 11
108.8331219427535
 21
520.8972019174734
 31
0.0
  0
LINE
  5
120
330
1F
100
AcDbEntity
  8
Системный слой (1)
  6
K5LT_BASIC
 62
   150
420
    33023
370
    60
100
AcDbLine
 10
155.8331219427536
 20
483.6280216471213
 30
0.0
 11
150.8331219427536
 21
483.6280216471213
 31
0.0
  0
LINE
  5
121
330
1F
100
AcDbEntity
  8
Системный слой (1)
  6
K5LT_BASIC
 62
   150
420
    33023
370
    60
100
AcDbLine
 10
254.8056917747162
 20
697.5034753314951
 30
0.0
 11
254.8056917747162
 21
702.5034753314951
 31
0.0
  0
LINE
  5
122
330
1F
100
AcDbEntity
  8
Системный слой (1)
  6
K5LT_BASIC
 62
   150
420
    33023
370
    60
100
AcDbLine
 10
306.8331219427536
 20
493.4609299477474
 30
0.0
 11
306.8331219427536
 21
483.6280216471213
 31
0.0
  0
LINE
  5
123
330
1F
100
AcDbEntity
  8
Системный слой (1)
  6
K5LT_BASIC
 62
   150
420
    33023
370
    60
100
AcDbLine
 10
155.8331219427536
 20
493.4609299477474
 30
0.0
 11
155.8331219427536
 21
483.6280216471213
 31
0.0
  0
LINE
  5
124
330
1F
100
AcDbEntity
  8
Системный слой (1)
  6
K5LT_BASIC
 62
   150
420
    33023
370
    60
100
AcDbLine
 10
108.8331219427535
 20
505.3630958228285
 30
0.0
 11
103.8331219427535
 21
505.3630958228285
 31
0.0
  0
LINE
  5
125
330
1F
100
AcDbEntity
  8
Системный слой (1)
  6
K5LT_BASIC
 62
   150
420
    33023
370
    60
100
AcDbLine
 10
217.8281229318899
 20
697.5034753314951
 30
0.0
 11
197.4894918455675
 21
697.5034753314951
 31
0.0
  0
LINE
  5
126
330
1F
100
AcDbEntity
  8
Системный слой (1)
  6
K5LT_BASIC
 62
   150
420
    33023
370
    60
100
AcDbLine
 10
150.8331219427536
 20
493.4609299477474
 30
0.0
 11
155.8331219427536
 21
493.4609299477474
 31
0.0
  0
LINE
  5
127
330
1F
100
AcDbEntity
  8
Системный слой (1)
  6
K5LT_BASIC
 62
   150
420
    33023
370
    60
100
AcDbLine
 10
217.8281229318899
 20
702.5034753314951
 30
0.0
 11
217.8281229318899
 21
697.5034753314951
 31
0.0
  0
LINE
  5
128
330
1F
100
AcDbEntity
  8
Системный слой (1)
  6
K5LT_BASIC
 62
   150
420
    33023
370
    60
100
AcDbLine
 10
339.8331219427536
 20
522.3630958228285
 30
0.0
 11
339.8331219427536
 21
537.8972019174734
 31
0.0
  0
LINE
  5
129
330
1F
100
AcDbEntity
  8
Системный слой (1)
  6
K5LT_BASIC
 62
   150
420
    33023
370
    60
100
AcDbLine
 10
146.1530443280601
 20
447.5034753314951
 30
0.0
 11
93.83312194275354
 21
496.2501407666032
 31
0.0
  0
LINE
  5
12A
330
1F
100
AcDbEntity
  8
Системный слой (1)
  6
K5LT_BASIC
 62
   150
420
    33023
370
    60
100
AcDbLine
 10
353.8331219427536
 20
519.7525679627474
 30
0.0
 11
317.0797988782837
 21
447.5034753314951
 31
0.0
  0
LINE
  5
12B
330
1F
100
AcDbEntity
  8
Системный слой (1)
  6
K5LT_BASIC
 62
   150
420
    33023
370
    60
100
AcDbLine
 10
150.8331219427536
 20
483.6280216471213
 30
0.0
 11
150.8331219427536
 21
493.4609299477474
 31
0.0
  0
LINE
  5
12C
330
1F
100
AcDbEntity
  8
Системный слой (1)
  6
K5LT_BASIC
 62
   150
420
    33023
370
    60
100
AcDbLine
 10
314.8063224483126
 20
498.9915743230713
 30
0.0
 11
132.3455342127288
 21
498.9915743230713
 31
0.0
  0
LINE
  5
12D
330
1F
100
AcDbEntity
  8
Системный слой (1)
  6
K5LT_BASIC
 62
   150
420
    33023
370
    60
100
AcDbLine
 10
132.3455342127288
 20
498.9915743230713
 30
0.0
 11
121.5076516741005
 21
509.0892696186568
 31
0.0
  0
LINE
  5
12E
330
1F
100
AcDbEntity
  8
Системный слой (1)
  6
K5LT_BASIC
 62
   150
420
    33023
370
    60
100
AcDbLine
 10
254.8056917747162
 20
702.5034753314951
 30
0.0
 11
275.1443228610385
 21
702.5034753314951
 31
0.0
  0
LINE
  5
12F
330
1F
100
AcDbEntity
  8
Системный слой (1)
  6
K5LT_BASIC
 62
   150
420
    33023
370
    60
100
AcDbLine
 10
278.226368640096
 20
678.0919372705704
 30
0.0
 11
329.5076516741005
 21
619.8497992412133
 31
0.0
  0
LINE
  5
130
330
1F
100
AcDbEntity
  8
Системный слой (1)
  6
K5LT_BASIC
 62
   150
420
    33023
370
    60
100
AcDbLine
 10
103.8331219427535
 20
505.3630958228285
 30
0.0
 11
103.8331219427535
 21
520.8972019174734
 31
0.0
  0
LINE
  5
131
330
1F
100
AcDbEntity
  8
Системный слой (1)
  6
K5LT_BASIC
 62
   150
420
    33023
370
    60
100
AcDbLine
 10
301.8331219427536
 20
483.6280216471213
 30
0.0
 11
301.8331219427536
 21
493.4609299477474
 31
0.0
  0
LINE
  5
132
330
1F
100
AcDbEntity
  8
Системный слой (1)
  6
K5LT_BASIC
 62
   150
420
    33023
370
    60
100
AcDbLine
 10
306.8331219427536
 20
465.0499028578471
 30
0.0
 11
306.8331219427536
 21
454.88448949542
 31
0.0
  0
LINE
  5
133
330
1F
100
AcDbEntity
  8
Системный слой (1)
  6
K5LT_BASIC
 62
   150
420
    33023
370
    60
100
AcDbLine
 10
93.83312194275354
 20
531.7174399898755
 30
0.0
 11
182.9022965563581
 21
707.5034753314951
 31
0.0
  0
LINE
  5
134
330
1F
100
AcDbEntity
  8
Системный слой (1)
  6
K5LT_BASIC
 62
   150
420
    33023
370
    60
100
AcDbLine
 10
289.7315181502479
 20
707.5034753314951
 30
0.0
 11
353.8331219427536
 21
634.7008027947987
 31
0.0
  0
LINE
  5
135
330
1F
100
AcDbEntity
  8
Системный слой (1)
  6
K5LT_BASIC
 62
   150
420
    33023
370
    60
100
AcDbLine
 10
150.8331219427536
 20
465.0499028578471
 30
0.0
 11
155.8331219427536
 21
465.0499028578471
 31
0.0
  0
LINE
  5
136
330
1F
100
AcDbEntity
  8
Системный слой (1)
  6
K5LT_BASIC
 62
   150
420
    33023
370
    60
100
AcDbLine
 10
121.5076516741005
 20
509.0892696186568
 30
0.0
 11
121.5076516741005
 21
537.4631089972746
 31
0.0
  0
LINE
  5
137
330
1F
100
AcDbEntity
  8
Системный слой (1)
  6
K5LT_BASIC
 62
   150
420
    33023
370
    60
100
AcDbLine
 10
275.1443228610385
 20
702.5034753314951
 30
0.0
 11
275.1443228610385
 21
697.5034753314951
 31
0.0
  0
LINE
  5
138
330
1F
100
AcDbEntity
  8
Системный слой (1)
  6
K5LT_BASIC
 62
   150
420
    33023
370
    60
100
AcDbLine
 10
197.4894918455675
 20
697.5034753314951
 30
0.0
 11
197.4894918455675
 21
702.5034753314951
 31
0.0
  0
LINE
  5
139
330
1F
100
AcDbEntity
  8
Системный слой (1)
  6
K5LT_BASIC
 62
   150
420
    33023
370
    60
100
AcDbLine
 10
344.8331219427536
 20
522.3630958228285
 30
0.0
 11
339.8331219427536
 21
522.3630958228285
 31
0.0
  0
LINE
  5
13A
330
1F
100
AcDbEntity
  8
Системный слой (1)
  6
K5LT_BASIC
 62
   150
420
    33023
370
    60
100
AcDbLine
 10
197.4894918455675
 20
702.5034753314951
 30
0.0
 11
217.8281229318899
 21
702.5034753314951
 31
0.0
  0
LINE
  5
13B
330
1F
100
AcDbEntity
  8
Системный слой (1)
  6
K5LT_BASIC
 62
   150
420
    33023
370
    60
100
AcDbLine
 10
393.3768748189636
 20
717.8288911070141
 30
0.0
 11
416.3208479749396
 21
719.433290003129
 31
0.0
  0
LINE
  5
13C
330
1F
100
AcDbEntity
  8
Системный слой (1)
  6
K5LT_BASIC
 62
   150
420
    33023
370
    60
100
AcDbLine
 10
416.3208479749396
 20
719.433290003129
 30
0.0
 11
414.5071796575924
 21
745.3699553098844
 31
0.0
  0
LINE
  5
13D
330
1F
100
AcDbEntity
  8
Системный слой (1)
  6
K5LT_BASIC
 62
   150
420
    33023
370
    60
100
AcDbLine
 10
440.0315504427476
 20
380.3544472988114
 30
0.0
 11
437.6255116304302
 21
414.7624053544586
 31
0.0
  0
LINE
  5
13E
330
1F
100
AcDbEntity
  8
Системный слой (1)
  6
K5LT_BASIC
 62
   150
420
    33023
370
    60
100
AcDbLine
 10
560.9697604396132
 20
105.6038136213573
 30
0.0
 11
565.9575806909123
 21
105.952595990078
 31
0.0
  0
LINE
  5
13F
330
1F
100
AcDbEntity
  8
Системный слой (1)
  6
K5LT_BASIC
 62
   150
420
    33023
370
    60
100
AcDbLine
 10
567.2131972183065
 20
87.9964430854011
 30
0.0
 11
562.2253769670074
 21
87.64766071668043
 31
0.0
  0
LINE
  5
140
330
1F
100
AcDbEntity
  8
Системный слой (1)
  6
K5LT_BASIC
 62
   150
420
    33023
370
    60
100
AcDbLine
 10
585.929119360928
 20
81.1918234216256
 30
0.0
 11
461.5591780266584
 21
72.49502992251871
 31
0.0
  0
LINE
  5
141
330
1F
100
AcDbEntity
  8
Системный слой (1)
  6
K5LT_BASIC
 62
   150
420
    33023
370
    60
100
AcDbLine
 10
430.9548176636101
 20
761.5567146708637
 30
0.0
 11
573.5667502609733
 21
223.7426397266535
 31
0.0
  0
LINE
  5
142
330
1F
100
AcDbEntity
  8
Системный слой (1)
  6
K5LT_BASIC
 62
   150
420
    33023
370
    60
100
AcDbLine
 10
414.6815384744542
 20
413.1580064583437
 30
0.0
 11
393.3768748189636
 21
717.8288911070141
 31
0.0
  0
LINE
  5
143
330
1F
100
AcDbEntity
  8
Системный слой (1)
  6
K5LT_BASIC
 62
   150
420
    33023
370
    60
100
AcDbLine
 10
533.0379670323381
 20
103.6506323565218
 30
0.0
 11
538.0257872836372
 21
103.9994147252424
 31
0.0
  0
LINE
  5
144
330
1F
100
AcDbEntity
  8
Системный слой (1)
  6
K5LT_BASIC
 62
   150
420
    33023
370
    60
100
AcDbLine
 10
538.0257872836372
 20
103.9994147252424
 30
0.0
 11
539.2814038110315
 21
86.04326182056559
 31
0.0
  0
LINE
  5
145
330
1F
100
AcDbEntity
  8
Системный слой (1)
  6
K5LT_BASIC
 62
   150
420
    33023
370
    60
100
AcDbLine
 10
573.5667502609733
 20
223.7426397266535
 30
0.0
 11
585.929119360928
 21
81.1918234216256
 31
0.0
  0
LINE
  5
146
330
1F
100
AcDbEntity
  8
Системный слой (1)
  6
K5LT_BASIC
 62
   150
420
    33023
370
    60
100
AcDbLine
 10
534.2935835597324
 20
85.69447945184493
 30
0.0
 11
533.0379670323381
 21
103.6506323565218
 31
0.0
  0
LINE
  5
147
330
1F
100
AcDbEntity
  8
Системный слой (1)
  6
K5LT_BASIC
 62
   150
420
    33023
370
    60
100
AcDbLine
 10
539.2814038110315
 20
86.04326182056559
 30
0.0
 11
534.2935835597324
 21
85.69447945184493
 31
0.0
  0
LINE
  5
148
330
1F
100
AcDbEntity
  8
Системный слой (1)
  6
K5LT_BASIC
 62
   150
420
    33023
370
    60
100
AcDbLine
 10
437.6255116304302
 20
414.7624053544586
 30
0.0
 11
414.6815384744542
 21
413.1580064583437
 31
0.0
  0
LINE
  5
149
330
1F
100
AcDbEntity
  8
Системный слой (1)
  6
K5LT_BASIC
 62
   150
420
    33023
370
    60
100
AcDbLine
 10
434.9748097287023
 20
122.9507069944167
 30
0.0
 11
417.0875772867716
 21
378.7500484026965
 31
0.0
  0
LINE
  5
14A
330
1F
100
AcDbEntity
  8
Системный слой (1)
  6
K5LT_BASIC
 62
   150
420
    33023
370
    60
100
AcDbLine
 10
461.5591780266584
 20
72.49502992251871
 30
0.0
 11
457.9187828846783
 21
124.5551058905315
 31
0.0
  0
LINE
  5
14B
330
1F
100
AcDbEntity
  8
Системный слой (1)
  6
K5LT_BASIC
 62
   150
420
    33023
370
    60
100
AcDbLine
 10
414.5071796575924
 20
745.3699553098844
 30
0.0
 11
391.5632065016164
 21
743.7655564137694
 31
0.0
  0
LINE
  5
14C
330
1F
100
AcDbEntity
  8
Системный слой (1)
  6
K5LT_BASIC
 62
   150
420
    33023
370
    60
100
AcDbLine
 10
417.0875772867716
 20
378.7500484026965
 30
0.0
 11
440.0315504427476
 21
380.3544472988114
 31
0.0
  0
LINE
  5
14D
330
1F
100
AcDbEntity
  8
Системный слой (1)
  6
K5LT_BASIC
 62
   150
420
    33023
370
    60
100
AcDbLine
 10
391.5632065016164
 20
743.7655564137694
 30
0.0
 11
390.5168593954545
 21
758.7290171676668
 31
0.0
  0
LINE
  5
14E
330
1F
100
AcDbEntity
  8
Системный слой (1)
  6
K5LT_BASIC
 62
   150
420
    33023
370
    60
100
AcDbLine
 10
565.9575806909123
 20
105.952595990078
 30
0.0
 11
567.2131972183065
 21
87.9964430854011
 31
0.0
  0
LINE
  5
14F
330
1F
100
AcDbEntity
  8
Системный слой (1)
  6
K5LT_BASIC
 62
   150
420
    33023
370
    60
100
AcDbLine
 10
390.5168593954545
 20
758.7290171676668
 30
0.0
 11
430.9548176636101
 21
761.5567146708637
 31
0.0
  0
LINE
  5
150
330
1F
100
AcDbEntity
  8
Системный слой (1)
  6
K5LT_BASIC
 62
   150
420
    33023
370
    60
100
AcDbLine
 10
457.9187828846783
 20
124.5551058905315
 30
0.0
 11
434.9748097287023
 21
122.9507069944167
 31
0.0
  0
LINE
  5
151
330
1F
100
AcDbEntity
  8
Системный слой (1)
  6
K5LT_BASIC
 62
   150
420
    33023
370
    60
100
AcDbLine
 10
562.2253769670074
 20
87.64766071668043
 30
0.0
 11
560.9697604396132
 21
105.6038136213573
 31
0.0
  0
MTEXT
  5
153
330
1F
100
AcDbEntity
  8
Системный слой (1)
 62
     7
100
AcDbMText
 10
469.5938956451513
 20
779.3345418181523
 30
0.0
 40
0.0
 41
0.0
 46
0.0
 71
     1
 72
     1
  1
\H3.5;\W0.965;\Q15;\Q0;\H10.00;{\c16711680;{\W1.000;}}
  7
KTEXTSTYLE
 73
     1
 44
1.0
  0
LINE
  5
154
330
1F
100
AcDbEntity
  8
Системный слой (1)
  6
K5LT_BASIC
 62
   150
420
    33023
370
    60
100
AcDbLine
 10
327.8017068707792
 20
282.918517462006
 30
0.0
 11
339.3141853418678
 21
282.918517462006
 31
0.0
  0
LINE
  5
155
330
1F
100
AcDbEntity
  8
Системный слой (1)
  6
K5LT_BASIC
 62
   150
420
    33023
370
    60
100
AcDbLine
 10
339.3141853418678
 20
126.9762077666297
 30
0.0
 11
339.3141853418678
 21
121.9762077666298
 31
0.0
  0
LINE
  5
156
330
1F
100
AcDbEntity
  8
Системный слой (1)
  6
K5LT_BASIC
 62
   150
420
    33023
370
    60
100
AcDbLine
 10
272.8827957827005
 20
126.9762077666297
 30
0.0
 11
284.0598463754722
 21
277.918517462006
 31
0.0
  0
LINE
  5
157
330
1F
100
AcDbEntity
  8
Системный слой (1)
  6
K5LT_BASIC
 62
   150
420
    33023
370
    60
100
AcDbLine
 10
295.5723248465607
 20
121.9762077666298
 30
0.0
 11
284.0598463754722
 21
121.9762077666298
 31
0.0
  0
LINE
  5
158
330
1F
100
AcDbEntity
  8
Системный слой (1)
  6
K5LT_BASIC
 62
   150
420
    33023
370
    60
100
AcDbLine
 10
327.8017068707792
 20
121.9762077666298
 30
0.0
 11
327.8017068707792
 21
126.9762077666297
 31
0.0
  0
LINE
  5
159
330
1F
100
AcDbEntity
  8
Системный слой (1)
  6
K5LT_BASIC
 62
   150
420
    33023
370
    60
100
AcDbLine
 10
284.0598463754722
 20
121.9762077666298
 30
0.0
 11
284.0598463754722
 21
126.9762077666297
 31
0.0
  0
LINE
  5
15A
330
1F
100
AcDbEntity
  8
Системный слой (1)
  6
K5LT_BASIC
 62
   150
420
    33023
370
    60
100
AcDbLine
 10
339.3141853418678
 20
121.9762077666298
 30
0.0
 11
327.8017068707792
 21
121.9762077666298
 31
0.0
  0
LINE
  5
15B
330
1F
100
AcDbEntity
  8
Системный слой (1)
  6
K5LT_BASIC
 62
   150
420
    33023
370
    60
100
AcDbLine
 10
327.8017068707792
 20
277.918517462006
 30
0.0
 11
327.8017068707792
 21
282.918517462006
 31
0.0
  0
LINE
  5
15C
330
1F
100
AcDbEntity
  8
Системный слой (1)
  6
K5LT_BASIC
 62
   150
420
    33023
370
    60
100
AcDbLine
 10
284.0598463754722
 20
126.9762077666297
 30
0.0
 11
272.8827957827005
 21
126.9762077666297
 31
0.0
  0
LINE
  5
15D
330
1F
100
AcDbEntity
  8
Системный слой (1)
  6
K5LT_BASIC
 62
   150
420
    33023
370
    60
100
AcDbLine
 10
339.3141853418678
 20
277.918517462006
 30
0.0
 11
350.4912359346395
 21
126.9762077666297
 31
0.0
  0
LINE
  5
15E
330
1F
100
AcDbEntity
  8
Системный слой (1)
  6
K5LT_BASIC
 62
   150
420
    33023
370
    60
100
AcDbLine
 10
284.0598463754722
 20
277.918517462006
 30
0.0
 11
284.0598463754722
 21
282.918517462006
 31
0.0
  0
LINE
  5
15F
330
1F
100
AcDbEntity
  8
Системный слой (1)
  6
K5LT_BASIC
 62
   150
420
    33023
370
    60
100
AcDbLine
 10
295.5723248465607
 20
282.918517462006
 30
0.0
 11
295.5723248465607
 21
277.918517462006
 31
0.0
  0
LINE
  5
160
330
1F
100
AcDbEntity
  8
Системный слой (1)
  6
K5LT_BASIC
 62
   150
420
    33023
370
    60
100
AcDbLine
 10
295.5723248465607
 20
277.918517462006
 30
0.0
 11
327.8017068707792
 21
277.918517462006
 31
0.0
  0
LINE
  5
161
330
1F
100
AcDbEntity
  8
Системный слой (1)
  6
K5LT_BASIC
 62
   150
420
    33023
370
    60
100
AcDbLine
 10
327.8017068707792
 20
126.9762077666297
 30
0.0
 11
295.5723248465607
 21
126.9762077666297
 31
0.0
  0
LINE
  5
162
330
1F
100
AcDbEntity
  8
Системный слой (1)
  6
K5LT_BASIC
 62
   150
420
    33023
370
    60
100
AcDbLine
 10
284.0598463754722
 20
282.918517462006
 30
0.0
 11
295.5723248465607
 21
282.918517462006
 31
0.0
  0
LINE
  5
163
330
1F
100
AcDbEntity
  8
Системный слой (1)
  6
K5LT_BASIC
 62
   150
420
    33023
370
    60
100
AcDbLine
 10
339.3141853418678
 20
282.918517462006
 30
0.0
 11
339.3141853418678
 21
277.918517462006
 31
0.0
  0
LINE
  5
164
330
1F
100
AcDbEntity
  8
Системный слой (1)
  6
K5LT_BASIC
 62
   150
420
    33023
370
    60
100
AcDbLine
 10
295.5723248465607
 20
126.9762077666297
 30
0.0
 11
295.5723248465607
 21
121.9762077666298
 31
0.0
  0
LINE
  5
165
330
1F
100
AcDbEntity
  8
Системный слой (1)
  6
K5LT_BASIC
 62
   150
420
    33023
370
    60
100
AcDbLine
 10
350.4912359346395
 20
126.9762077666297
 30
0.0
 11
339.3141853418678
 21
126.9762077666297
 31
0.0
  0
CIRCLE
  5
166
330
1F
100
AcDbEntity
  8
Системный слой (1)
  6
K5LT_BASIC
 62
   150
420
    33023
370
    60
100
AcDbCircle
 10
223.3963205125528
 20
841.9238253989785
 30
0.0
 40
2.0
  0
LINE
  5
167
330
1F
100
AcDbEntity
  8
Системный слой (1)
  6
K5LT_BASIC
 62
   150
420
    33023
370
    60
100
AcDbLine
 10
153.3963205125528
 20
845.8465702507069
 30
0.0
 11
158.3963205125527
 21
845.8465702507069
 31
0.0
  0
LINE
  5
168
330
1F
100
AcDbEntity
  8
Системный слой (1)
  6
K5LT_BASIC
 62
   150
420
    33023
370
    60
100
AcDbLine
 10
153.3963205125527
 20
801.3083724622355
 30
0.0
 11
153.3963205125527
 21
812.7736511008519
 31
0.0
  0
CIRCLE
  5
169
330
1F
100
AcDbEntity
  8
Системный слой (1)
  6
K5LT_BASIC
 62
   150
420
    33023
370
    60
100
AcDbCircle
 10
223.3963205125528
 20
811.9238253989785
 30
0.0
 40
2.0
  0
LINE
  5
16A
330
1F
100
AcDbEntity
  8
Системный слой (1)
  6
K5LT_BASIC
 62
   150
420
    33023
370
    60
100
AcDbLine
 10
153.3963205125528
 20
831.073999697105
 30
0.0
 11
153.3963205125528
 21
845.8465702507069
 31
0.0
  0
LINE
  5
16B
330
1F
100
AcDbEntity
  8
Системный слой (1)
  6
K5LT_BASIC
 62
   150
420
    33023
370
    60
100
AcDbLine
 10
288.3963205125527
 20
845.8465702507069
 30
0.0
 11
293.3963205125527
 21
845.8465702507069
 31
0.0
  0
LINE
  5
16C
330
1F
100
AcDbEntity
  8
Системный слой (1)
  6
K5LT_BASIC
 62
   150
420
    33023
370
    60
100
AcDbLine
 10
158.3963205125527
 20
845.8465702507069
 30
0.0
 11
158.3963205125527
 21
853.550818734504
 31
0.0
  0
LINE
  5
16D
330
1F
100
AcDbEntity
  8
Системный слой (1)
  6
K5LT_BASIC
 62
   150
420
    33023
370
    60
100
AcDbLine
 10
288.3963205125527
 20
831.073999697105
 30
0.0
 11
288.3963205125527
 21
812.7736511008519
 31
0.0
  0
CIRCLE
  5
16E
330
1F
100
AcDbEntity
  8
Системный слой (1)
  6
K5LT_BASIC
 62
   150
420
    33023
370
    60
100
AcDbCircle
 10
223.3963205125528
 20
821.9238253989785
 30
0.0
 40
2.0
  0
CIRCLE
  5
16F
330
1F
100
AcDbEntity
  8
Системный слой (1)
  6
K5LT_BASIC
 62
   150
420
    33023
370
    60
100
AcDbCircle
 10
223.3963205125528
 20
801.9238253989785
 30
0.0
 40
2.0
  0
LINE
  5
170
330
1F
100
AcDbEntity
  8
Системный слой (1)
  6
K5LT_BASIC
 62
   150
420
    33023
370
    60
100
AcDbLine
 10
158.3963205125527
 20
853.550818734504
 30
0.0
 11
288.3963205125527
 21
853.550818734504
 31
0.0
  0
LINE
  5
171
330
1F
100
AcDbEntity
  8
Системный слой (1)
  6
K5LT_BASIC
 62
   150
420
    33023
370
    60
100
AcDbLine
 10
158.3963205125527
 20
812.7736511008519
 30
0.0
 11
158.3963205125527
 21
831.073999697105
 31
0.0
  0
LINE
  5
172
330
1F
100
AcDbEntity
  8
Системный слой (1)
  6
K5LT_BASIC
 62
   150
420
    33023
370
    60
100
AcDbLine
 10
293.3963205125527
 20
831.073999697105
 30
0.0
 11
288.3963205125527
 21
831.073999697105
 31
0.0
  0
LINE
  5
173
330
1F
100
AcDbEntity
  8
Системный слой (1)
  6
K5LT_BASIC
 62
   150
420
    33023
370
    60
100
AcDbLine
 10
293.3963205125528
 20
801.3083724622355
 30
0.0
 11
288.3963205125528
 21
801.3083724622355
 31
0.0
  0
LINE
  5
174
330
1F
100
AcDbEntity
  8
Системный слой (1)
  6
K5LT_BASIC
 62
   150
420
    33023
370
    60
100
AcDbLine
 10
288.3963205125527
 20
812.7736511008519
 30
0.0
 11
293.3963205125527
 21
812.7736511008519
 31
0.0
  0
LINE
  5
175
330
1F
100
AcDbEntity
  8
Системный слой (1)
  6
K5LT_BASIC
 62
   150
420
    33023
370
    60
100
AcDbLine
 10
288.3963205125528
 20
801.3083724622355
 30
0.0
 11
288.3963205125528
 21
792.286216189508
 31
0.0
  0
LINE
  5
176
330
1F
100
AcDbEntity
  8
Системный слой (1)
  6
K5LT_BASIC
 62
   150
420
    33023
370
    60
100
AcDbLine
 10
158.3963205125527
 20
801.3083724622355
 30
0.0
 11
153.3963205125527
 21
801.3083724622355
 31
0.0
  0
LINE
  5
177
330
1F
100
AcDbEntity
  8
Системный слой (1)
  6
K5LT_BASIC
 62
   150
420
    33023
370
    60
100
AcDbLine
 10
288.3963205125528
 20
792.286216189508
 30
0.0
 11
158.3963205125527
 21
792.286216189508
 31
0.0
  0
LINE
  5
178
330
1F
100
AcDbEntity
  8
Системный слой (1)
  6
K5LT_BASIC
 62
   150
420
    33023
370
    60
100
AcDbLine
 10
288.3963205125527
 20
853.550818734504
 30
0.0
 11
288.3963205125527
 21
845.8465702507069
 31
0.0
  0
LINE
  5
179
330
1F
100
AcDbEntity
  8
Системный слой (1)
  6
K5LT_BASIC
 62
   150
420
    33023
370
    60
100
AcDbLine
 10
153.3963205125527
 20
812.7736511008519
 30
0.0
 11
158.3963205125527
 21
812.7736511008519
 31
0.0
  0
LINE
  5
17A
330
1F
100
AcDbEntity
  8
Системный слой (1)
  6
K5LT_BASIC
 62
   150
420
    33023
370
    60
100
AcDbLine
 10
158.3963205125527
 20
831.073999697105
 30
0.0
 11
153.3963205125528
 21
831.073999697105
 31
0.0
  0
LINE
  5
17B
330
1F
100
AcDbEntity
  8
Системный слой (1)
  6
K5LT_BASIC
 62
   150
420
    33023
370
    60
100
AcDbLine
 10
293.3963205125527
 20
845.8465702507069
 30
0.0
 11
293.3963205125527
 21
831.073999697105
 31
0.0
  0
LINE
  5
17C
330
1F
100
AcDbEntity
  8
Системный слой (1)
  6
K5LT_BASIC
 62
   150
420
    33023
370
    60
100
AcDbLine
 10
293.3963205125527
 20
812.7736511008519
 30
0.0
 11
293.3963205125528
 21
801.3083724622355
 31
0.0
  0
CIRCLE
  5
17D
330
1F
100
AcDbEntity
  8
Системный слой (1)
  6
K5LT_BASIC
 62
   150
420
    33023
370
    60
100
AcDbCircle
 10
223.3963205125528
 20
831.9238253989785
 30
0.0
 40
2.0
  0
LINE
  5
17E
330
1F
100
AcDbEntity
  8
Системный слой (1)
  6
K5LT_BASIC
 62
   150
420
    33023
370
    60
100
AcDbLine
 10
158.3963205125527
 20
792.286216189508
 30
0.0
 11
158.3963205125527
 21
801.3083724622355
 31
0.0
  0
LINE
  5
17F
330
1F
100
AcDbEntity
  8
Системный слой (1)
  6
K5LT_BASIC
 62
   150
420
    33023
370
    60
100
AcDbLine
 10
566.0140996661657
 20
894.6412452177337
 30
0.0
 11
566.0140996661657
 21
899.6412452177337
 31
0.0
  0
LINE
  5
180
330
1F
100
AcDbEntity
  8
Системный слой (1)
  6
K5LT_BASIC
 62
   150
420
    33023
370
    60
100
AcDbLine
 10
503.0755474046157
 20
719.5140757345359
 30
0.0
 11
503.0755474046157
 21
731.0265542056245
 31
0.0
  0
LINE
  5
181
330
1F
100
AcDbEntity
  8
Системный слой (1)
  6
K5LT_BASIC
 62
   150
420
    33023
370
    60
100
AcDbLine
 10
503.0755474046157
 20
763.255936229843
 30
0.0
 11
503.0755474046157
 21
774.7684147009315
 31
0.0
  0
LINE
  5
182
330
1F
100
AcDbEntity
  8
Системный слой (1)
  6
K5LT_BASIC
 62
   150
420
    33023
370
    60
100
AcDbLine
 10
557.0755474046157
 20
763.255936229843
 30
0.0
 11
557.0755474046157
 21
774.7684147009315
 31
0.0
  0
LINE
  5
183
330
1F
100
AcDbEntity
  8
Системный слой (1)
  6
K5LT_BASIC
 62
   150
420
    33023
370
    60
100
AcDbLine
 10
566.0140996661657
 20
594.6412452177337
 30
0.0
 11
566.0140996661657
 21
599.6412452177337
 31
0.0
  0
LINE
  5
184
330
1F
100
AcDbEntity
  8
Системный слой (1)
  6
K5LT_BASIC
 62
   150
420
    33023
370
    60
100
AcDbLine
 10
545.6754685798434
 20
894.6412452177337
 30
0.0
 11
508.6978997370171
 21
894.6412452177337
 31
0.0
  0
LINE
  5
185
330
1F
100
AcDbEntity
  8
Системный слой (1)
  6
K5LT_BASIC
 62
   150
420
    33023
370
    60
100
AcDbLine
 10
557.0755474046157
 20
731.0265542056245
 30
0.0
 11
552.0755474046157
 21
731.0265542056245
 31
0.0
  0
LINE
  5
186
330
1F
100
AcDbEntity
  8
Системный слой (1)
  6
K5LT_BASIC
 62
   150
420
    33023
370
    60
100
AcDbLine
 10
488.3592686506947
 20
894.6412452177337
 30
0.0
 11
473.7720733614854
 21
894.6412452177337
 31
0.0
  0
LINE
  5
187
330
1F
100
AcDbEntity
  8
Системный слой (1)
  6
K5LT_BASIC
 62
   150
420
    33023
370
    60
100
AcDbLine
 10
552.0755474046157
 20
763.255936229843
 30
0.0
 11
557.0755474046157
 21
763.255936229843
 31
0.0
  0
LINE
  5
188
330
1F
100
AcDbEntity
  8
Системный слой (1)
  6
K5LT_BASIC
 62
   150
420
    33023
370
    60
100
AcDbLine
 10
498.0755474046157
 20
774.7684147009315
 30
0.0
 11
498.0755474046157
 21
763.255936229843
 31
0.0
  0
LINE
  5
189
330
1F
100
AcDbEntity
  8
Системный слой (1)
  6
K5LT_BASIC
 62
   150
420
    33023
370
    60
100
AcDbLine
 10
557.0755474046157
 20
719.5140757345359
 30
0.0
 11
557.0755474046157
 21
731.0265542056245
 31
0.0
  0
LINE
  5
18A
330
1F
100
AcDbEntity
  8
Системный слой (1)
  6
K5LT_BASIC
 62
   150
420
    33023
370
    60
100
AcDbLine
 10
552.0755474046157
 20
731.0265542056245
 30
0.0
 11
552.0755474046157
 21
719.5140757345359
 31
0.0
  0
LINE
  5
18B
330
1F
100
AcDbEntity
  8
Системный слой (1)
  6
K5LT_BASIC
 62
   150
420
    33023
370
    60
100
AcDbLine
 10
473.7720733614854
 20
894.6412452177337
 30
0.0
 11
473.7720733614854
 21
599.6412452177337
 31
0.0
  0
LINE
  5
18C
330
1F
100
AcDbEntity
  8
Системный слой (1)
  6
K5LT_BASIC
 62
   150
420
    33023
370
    60
100
AcDbLine
 10
508.6978997370171
 20
594.6412452177337
 30
0.0
 11
508.6978997370171
 21
599.6412452177337
 31
0.0
  0
LINE
  5
18D
330
1F
100
AcDbEntity
  8
Системный слой (1)
  6
K5LT_BASIC
 62
   150
420
    33023
370
    60
100
AcDbLine
 10
552.0755474046157
 20
774.7684147009315
 30
0.0
 11
552.0755474046157
 21
763.255936229843
 31
0.0
  0
LINE
  5
18E
330
1F
100
AcDbEntity
  8
Системный слой (1)
  6
K5LT_BASIC
 62
   150
420
    33023
370
    60
100
AcDbLine
 10
508.6978997370171
 20
599.6412452177337
 30
0.0
 11
545.6754685798434
 21
599.6412452177337
 31
0.0
  0
LINE
  5
18F
330
1F
100
AcDbEntity
  8
Системный слой (1)
  6
K5LT_BASIC
 62
   150
420
    33023
370
    60
100
AcDbLine
 10
566.0140996661657
 20
899.6412452177337
 30
0.0
 11
545.6754685798434
 21
899.6412452177337
 31
0.0
  0
LINE
  5
190
330
1F
100
AcDbEntity
  8
Системный слой (1)
  6
K5LT_BASIC
 62
   150
420
    33023
370
    60
100
AcDbLine
 10
552.0755474046157
 20
719.5140757345359
 30
0.0
 11
557.0755474046157
 21
719.5140757345359
 31
0.0
  0
LINE
  5
191
330
1F
100
AcDbEntity
  8
Системный слой (1)
  6
K5LT_BASIC
 62
   150
420
    33023
370
    60
100
AcDbLine
 10
488.3592686506947
 20
599.6412452177337
 30
0.0
 11
488.3592686506947
 21
594.6412452177337
 31
0.0
  0
LINE
  5
192
330
1F
100
AcDbEntity
  8
Системный слой (1)
  6
K5LT_BASIC
 62
   150
420
    33023
370
    60
100
AcDbLine
 10
545.6754685798434
 20
899.6412452177337
 30
0.0
 11
545.6754685798434
 21
894.6412452177337
 31
0.0
  0
LINE
  5
193
330
1F
100
AcDbEntity
  8
Системный слой (1)
  6
K5LT_BASIC
 62
   150
420
    33023
370
    60
100
AcDbLine
 10
498.0755474046157
 20
731.0265542056245
 30
0.0
 11
498.0755474046157
 21
719.5140757345359
 31
0.0
  0
LINE
  5
194
330
1F
100
AcDbEntity
  8
Системный слой (1)
  6
K5LT_BASIC
 62
   150
420
    33023
370
    60
100
AcDbLine
 10
473.7720733614854
 20
599.6412452177337
 30
0.0
 11
488.3592686506947
 21
599.6412452177337
 31
0.0
  0
LINE
  5
195
330
1F
100
AcDbEntity
  8
Системный слой (1)
  6
K5LT_BASIC
 62
   150
420
    33023
370
    60
100
AcDbLine
 10
503.0755474046157
 20
774.7684147009315
 30
0.0
 11
498.0755474046157
 21
774.7684147009315
 31
0.0
  0
LINE
  5
196
330
1F
100
AcDbEntity
  8
Системный слой (1)
  6
K5LT_BASIC
 62
   150
420
    33023
370
    60
100
AcDbLine
 10
498.0755474046157
 20
719.5140757345359
 30
0.0
 11
503.0755474046157
 21
719.5140757345359
 31
0.0
  0
LINE
  5
197
330
1F
100
AcDbEntity
  8
Системный слой (1)
  6
K5LT_BASIC
 62
   150
420
    33023
370
    60
100
AcDbLine
 10
503.0755474046157
 20
731.0265542056245
 30
0.0
 11
498.0755474046157
 21
731.0265542056245
 31
0.0
  0
LINE
  5
198
330
1F
100
AcDbEntity
  8
Системный слой (1)
  6
K5LT_BASIC
 62
   150
420
    33023
370
    60
100
AcDbLine
 10
566.0140996661657
 20
599.6412452177337
 30
0.0
 11
580.6012949553751
 21
599.6412452177337
 31
0.0
  0
LINE
  5
199
330
1F
100
AcDbEntity
  8
Системный слой (1)
  6
K5LT_BASIC
 62
   150
420
    33023
370
    60
100
AcDbLine
 10
545.6754685798434
 20
599.6412452177337
 30
0.0
 11
545.6754685798434
 21
594.6412452177337
 31
0.0
  0
LINE
  5
19A
330
1F
100
AcDbEntity
  8
Системный слой (1)
  6
K5LT_BASIC
 62
   150
420
    33023
370
    60
100
AcDbLine
 10
508.6978997370171
 20
899.6412452177337
 30
0.0
 11
488.3592686506947
 21
899.6412452177337
 31
0.0
  0
LINE
  5
19B
330
1F
100
AcDbEntity
  8
Системный слой (1)
  6
K5LT_BASIC
 62
   150
420
    33023
370
    60
100
AcDbLine
 10
508.6978997370171
 20
894.6412452177337
 30
0.0
 11
508.6978997370171
 21
899.6412452177337
 31
0.0
  0
LINE
  5
19C
330
1F
100
AcDbEntity
  8
Системный слой (1)
  6
K5LT_BASIC
 62
   150
420
    33023
370
    60
100
AcDbLine
 10
557.0755474046157
 20
774.7684147009315
 30
0.0
 11
552.0755474046157
 21
774.7684147009315
 31
0.0
  0
LINE
  5
19D
330
1F
100
AcDbEntity
  8
Системный слой (1)
  6
K5LT_BASIC
 62
   150
420
    33023
370
    60
100
AcDbLine
 10
488.3592686506947
 20
594.6412452177337
 30
0.0
 11
508.6978997370171
 21
594.6412452177337
 31
0.0
  0
LINE
  5
19E
330
1F
100
AcDbEntity
  8
Системный слой (1)
  6
K5LT_BASIC
 62
   150
420
    33023
370
    60
100
AcDbLine
 10
580.6012949553751
 20
599.6412452177337
 30
0.0
 11
580.6012949553751
 21
894.6412452177337
 31
0.0
  0
LINE
  5
19F
330
1F
100
AcDbEntity
  8
Системный слой (1)
  6
K5LT_BASIC
 62
   150
420
    33023
370
    60
100
AcDbLine
 10
488.3592686506947
 20
899.6412452177337
 30
0.0
 11
488.3592686506947
 21
894.6412452177337
 31
0.0
  0
LINE
  5
1A0
330
1F
100
AcDbEntity
  8
Системный слой (1)
  6
K5LT_BASIC
 62
   150
420
    33023
370
    60
100
AcDbLine
 10
545.6754685798434
 20
594.6412452177337
 30
0.0
 11
566.0140996661657
 21
594.6412452177337
 31
0.0
  0
LINE
  5
1A1
330
1F
100
AcDbEntity
  8
Системный слой (1)
  6
K5LT_BASIC
 62
   150
420
    33023
370
    60
100
AcDbLine
 10
580.6012949553751
 20
894.6412452177337
 30
0.0
 11
566.0140996661657
 21
894.6412452177337
 31
0.0
  0
LINE
  5
1A2
330
1F
100
AcDbEntity
  8
Системный слой (1)
  6
K5LT_BASIC
 62
   150
420
    33023
370
    60
100
AcDbLine
 10
498.0755474046157
 20
763.255936229843
 30
0.0
 11
503.0755474046157
 21
763.255936229843
 31
0.0
  0
LINE
  5
1A3
330
1F
100
AcDbEntity
  8
Системный слой (1)
  6
K5LT_BASIC
 62
   150
420
    33023
370
    60
100
AcDbLine
 10
543.0755474046157
 20
731.0265542056245
 30
0.0
 11
538.0755474046157
 21
731.0265542056245
 31
0.0
  0
LINE
  5
1A4
330
1F
100
AcDbEntity
  8
Системный слой (1)
  6
K5LT_BASIC
 62
   150
420
    33023
370
    60
100
AcDbLine
 10
516.0755474046157
 20
763.255936229843
 30
0.0
 11
516.0755474046157
 21
774.7684147009315
 31
0.0
  0
LINE
  5
1A5
330
1F
100
AcDbEntity
  8
Системный слой (1)
  6
K5LT_BASIC
 62
   150
420
    33023
370
    60
100
AcDbLine
 10
511.0755474046157
 20
774.7684147009315
 30
0.0
 11
511.0755474046157
 21
763.255936229843
 31
0.0
  0
LINE
  5
1A6
330
1F
100
AcDbEntity
  8
Системный слой (1)
  6
K5LT_BASIC
 62
   150
420
    33023
370
    60
100
AcDbLine
 10
543.0755474046157
 20
774.7684147009315
 30
0.0
 11
538.0755474046157
 21
774.7684147009315
 31
0.0
  0
LINE
  5
1A7
330
1F
100
AcDbEntity
  8
Системный слой (1)
  6
K5LT_BASIC
 62
   150
420
    33023
370
    60
100
AcDbLine
 10
538.0755474046157
 20
763.255936229843
 30
0.0
 11
543.0755474046157
 21
763.255936229843
 31
0.0
  0
LINE
  5
1A8
330
1F
100
AcDbEntity
  8
Системный слой (1)
  6
K5LT_BASIC
 62
   150
420
    33023
370
    60
100
AcDbLine
 10
511.0755474046157
 20
763.255936229843
 30
0.0
 11
516.0755474046157
 21
763.255936229843
 31
0.0
  0
LINE
  5
1A9
330
1F
100
AcDbEntity
  8
Системный слой (1)
  6
K5LT_BASIC
 62
   150
420
    33023
370
    60
100
AcDbLine
 10
543.0755474046157
 20
719.5140757345359
 30
0.0
 11
543.0755474046157
 21
731.0265542056245
 31
0.0
  0
LINE
  5
1AA
330
1F
100
AcDbEntity
  8
Системный слой (1)
  6
K5LT_BASIC
 62
   150
420
    33023
370
    60
100
AcDbLine
 10
511.0755474046157
 20
719.5140757345359
 30
0.0
 11
516.0755474046157
 21
719.5140757345359
 31
0.0
  0
LINE
  5
1AB
330
1F
100
AcDbEntity
  8
Системный слой (1)
  6
K5LT_BASIC
 62
   150
420
    33023
370
    60
100
AcDbLine
 10
516.0755474046157
 20
719.5140757345359
 30
0.0
 11
516.0755474046157
 21
731.0265542056245
 31
0.0
  0
LINE
  5
1AC
330
1F
100
AcDbEntity
  8
Системный слой (1)
  6
K5LT_BASIC
 62
   150
420
    33023
370
    60
100
AcDbLine
 10
543.0755474046157
 20
763.255936229843
 30
0.0
 11
543.0755474046157
 21
774.7684147009315
 31
0.0
  0
LINE
  5
1AD
330
1F
100
AcDbEntity
  8
Системный слой (1)
  6
K5LT_BASIC
 62
   150
420
    33023
370
    60
100
AcDbLine
 10
511.0755474046157
 20
731.0265542056245
 30
0.0
 11
511.0755474046157
 21
719.5140757345359
 31
0.0
  0
LINE
  5
1AE
330
1F
100
AcDbEntity
  8
Системный слой (1)
  6
K5LT_BASIC
 62
   150
420
    33023
370
    60
100
AcDbLine
 10
538.0755474046157
 20
731.0265542056245
 30
0.0
 11
538.0755474046157
 21
719.5140757345359
 31
0.0
  0
LINE
  5
1AF
330
1F
100
AcDbEntity
  8
Системный слой (1)
  6
K5LT_BASIC
 62
   150
420
    33023
370
    60
100
AcDbLine
 10
516.0755474046157
 20
731.0265542056245
 30
0.0
 11
511.0755474046157
 21
731.0265542056245
 31
0.0
  0
LINE
  5
1B0
330
1F
100
AcDbEntity
  8
Системный слой (1)
  6
K5LT_BASIC
 62
   150
420
    33023
370
    60
100
AcDbLine
 10
538.0755474046157
 20
774.7684147009315
 30
0.0
 11
538.0755474046157
 21
763.255936229843
 31
0.0
  0
LINE
  5
1B1
330
1F
100
AcDbEntity
  8
Системный слой (1)
  6
K5LT_BASIC
 62
   150
420
    33023
370
    60
100
AcDbLine
 10
538.0755474046157
 20
719.5140757345359
 30
0.0
 11
543.0755474046157
 21
719.5140757345359
 31
0.0
  0
LINE
  5
1B2
330
1F
100
AcDbEntity
  8
Системный слой (1)
  6
K5LT_BASIC
 62
   150
420
    33023
370
    60
100
AcDbLine
 10
516.0755474046157
 20
774.7684147009315
 30
0.0
 11
511.0755474046157
 21
774.7684147009315
 31
0.0
  0
CIRCLE
  5
1B3
330
1F
100
AcDbEntity
  8
Системный слой (1)
  6
K5LT_BASIC
 62
   150
420
    33023
370
    60
100
AcDbCircle
 10
555.8447841230046
 20
867.1237527176759
 30
0.0
 40
2.0
  0
CIRCLE
  5
1B4
330
1F
100
AcDbEntity
  8
Системный слой (1)
  6
K5LT_BASIC
 62
   150
420
    33023
370
    60
100
AcDbCircle
 10
555.8447841230046
 20
654.371769256802
 30
0.0
 40
2.0
  0
CIRCLE
  5
1B5
330
1F
100
AcDbEntity
  8
Системный слой (1)
  6
K5LT_BASIC
 62
   150
420
    33023
370
    60
100
AcDbCircle
 10
490.3063106862268
 20
867.1237527176759
 30
0.0
 40
2.0
  0
CIRCLE
  5
1B6
330
1F
100
AcDbEntity
  8
Системный слой (1)
  6
K5LT_BASIC
 62
   150
420
    33023
370
    60
100
AcDbCircle
 10
554.5755474046157
 20
747.1412452177337
 30
0.0
 40
2.0
  0
CIRCLE
  5
1B7
330
1F
100
AcDbEntity
  8
Системный слой (1)
  6
K5LT_BASIC
 62
   150
420
    33023
370
    60
100
AcDbCircle
 10
555.8447841230046
 20
627.1587377177916
 30
0.0
 40
2.0
  0
CIRCLE
  5
1B8
330
1F
100
AcDbEntity
  8
Системный слой (1)
  6
K5LT_BASIC
 62
   150
420
    33023
370
    60
100
AcDbCircle
 10
490.3063106862268
 20
839.9107211786654
 30
0.0
 40
2.0
  0
CIRCLE
  5
1B9
330
1F
100
AcDbEntity
  8
Системный слой (1)
  6
K5LT_BASIC
 62
   150
420
    33023
370
    60
100
AcDbCircle
 10
500.5755474046157
 20
747.1412452177337
 30
0.0
 40
2.0
  0
CIRCLE
  5
1BA
330
1F
100
AcDbEntity
  8
Системный слой (1)
  6
K5LT_BASIC
 62
   150
420
    33023
370
    60
100
AcDbCircle
 10
555.8447841230046
 20
839.9107211786654
 30
0.0
 40
2.0
  0
CIRCLE
  5
1BB
330
1F
100
AcDbEntity
  8
Системный слой (1)
  6
K5LT_BASIC
 62
   150
420
    33023
370
    60
100
AcDbCircle
 10
490.3063106862268
 20
654.371769256802
 30
0.0
 40
2.0
  0
CIRCLE
  5
1BC
330
1F
100
AcDbEntity
  8
Системный слой (1)
  6
K5LT_BASIC
 62
   150
420
    33023
370
    60
100
AcDbCircle
 10
490.3063106862268
 20
627.1587377177916
 30
0.0
 40
2.0
  0
CIRCLE
  5
1BD
330
1F
100
AcDbEntity
  8
Системный слой (1)
  6
K5LT_BASIC
 62
   150
420
    33023
370
    60
100
AcDbCircle
 10
527.0755474046157
 20
747.1412452177337
 30
0.0
 40
2.0
  0
MTEXT
  5
1BE
330
1F
100
AcDbEntity
  8
Системный слой (1)
 62
     7
100
AcDbMText
 10
462.4322818251542
 20
757.1412452177337
 30
0.0
 40
0.0
 41
0.0
 46
0.0
 71
     1
 72
     1
  1
\H3.5;\W0.965;\Q15;\Q0;\H10.00;{\c16711680;{\W1.000;}}
  7
KTEXTSTYLE
 73
     1
 44
1.0
  0
LINE
  5
1BF
330
1F
100
AcDbEntity
  8
Системный слой (1)
  6
K5LT_BASIC
 62
   150
420
    33023
370
    60
100
AcDbLine
 10
525.8751472888046
 20
165.6589754597576
 30
0.0
 11
525.8751472888046
 21
310.6589754597576
 31
0.0
  0
LINE
  5
1C0
330
1F
100
AcDbEntity
  8
Системный слой (1)
  6
K5LT_BASIC
 62
   150
420
    33023
370
    60
100
AcDbLine
 10
474.4905045659631
 20
254.2736664718668
 30
0.0
 11
479.4905045659631
 21
254.2736664718668
 31
0.0
  0
LINE
  5
1C1
330
1F
100
AcDbEntity
  8
Системный слой (1)
  6
K5LT_BASIC
 62
   150
420
    33023
370
    60
100
AcDbLine
 10
478.1538853327688
 20
193.513968736415
 30
0.0
 11
473.1538853327688
 21
193.513968736415
 31
0.0
  0
LINE
  5
1C2
330
1F
100
AcDbEntity
  8
Системный слой (1)
  6
K5LT_BASIC
 62
   150
420
    33023
370
    60
100
AcDbLine
 10
501.4905045659631
 20
222.0442844476484
 30
0.0
 11
501.4905045659631
 21
210.5318059765598
 31
0.0
  0
LINE
  5
1C3
330
1F
100
AcDbEntity
  8
Системный слой (1)
  6
K5LT_BASIC
 62
   150
420
    33023
370
    60
100
AcDbLine
 10
503.7464102755218
 20
278.4750901081979
 30
0.0
 11
508.7464102755218
 21
278.4750901081979
 31
0.0
  0
LINE
  5
1C4
330
1F
100
AcDbEntity
  8
Системный слой (1)
  6
K5LT_BASIC
 62
   150
420
    33023
370
    60
100
AcDbLine
 10
506.4905045659631
 20
210.5318059765598
 30
0.0
 11
506.4905045659631
 21
222.0442844476484
 31
0.0
  0
LINE
  5
1C5
330
1F
100
AcDbEntity
  8
Системный слой (1)
  6
K5LT_BASIC
 62
   150
420
    33023
370
    60
100
AcDbLine
 10
478.1538853327688
 20
296.4750901081979
 30
0.0
 11
473.1538853327688
 21
296.4750901081979
 31
0.0
  0
LINE
  5
1C6
330
1F
100
AcDbEntity
  8
Системный слой (1)
  6
K5LT_BASIC
 62
   150
420
    33023
370
    60
100
AcDbLine
 10
478.1538853327688
 20
278.4750901081979
 30
0.0
 11
478.1538853327688
 21
296.4750901081979
 31
0.0
  0
LINE
  5
1C7
330
1F
100
AcDbEntity
  8
Системный слой (1)
  6
K5LT_BASIC
 62
   150
420
    33023
370
    60
100
AcDbLine
 10
508.7464102755218
 20
193.513968736415
 30
0.0
 11
503.7464102755218
 21
193.513968736415
 31
0.0
  0
LINE
  5
1C8
330
1F
100
AcDbEntity
  8
Системный слой (1)
  6
K5LT_BASIC
 62
   150
420
    33023
370
    60
100
AcDbLine
 10
479.4905045659631
 20
254.2736664718668
 30
0.0
 11
479.4905045659631
 21
265.7861449429554
 31
0.0
  0
LINE
  5
1C9
330
1F
100
AcDbEntity
  8
Системный слой (1)
  6
K5LT_BASIC
 62
   150
420
    33023
370
    60
100
AcDbLine
 10
503.7464102755218
 20
193.513968736415
 30
0.0
 11
503.7464102755218
 21
175.513968736415
 31
0.0
  0
LINE
  5
1CA
330
1F
100
AcDbEntity
  8
Системный слой (1)
  6
K5LT_BASIC
 62
   150
420
    33023
370
    60
100
AcDbLine
 10
474.4905045659631
 20
265.7861449429554
 30
0.0
 11
474.4905045659631
 21
254.2736664718668
 31
0.0
  0
LINE
  5
1CB
330
1F
100
AcDbEntity
  8
Системный слой (1)
  6
K5LT_BASIC
 62
   150
420
    33023
370
    60
100
AcDbLine
 10
479.4905045659631
 20
210.5318059765598
 30
0.0
 11
479.4905045659631
 21
222.0442844476484
 31
0.0
  0
LINE
  5
1CC
330
1F
100
AcDbEntity
  8
Системный слой (1)
  6
K5LT_BASIC
 62
   150
420
    33023
370
    60
100
AcDbLine
 10
501.4905045659631
 20
210.5318059765598
 30
0.0
 11
506.4905045659631
 21
210.5318059765598
 31
0.0
  0
LINE
  5
1CD
330
1F
100
AcDbEntity
  8
Системный слой (1)
  6
K5LT_BASIC
 62
   150
420
    33023
370
    60
100
AcDbLine
 10
456.025148319486
 20
165.6589754597576
 30
0.0
 11
525.8751472888046
 21
165.6589754597576
 31
0.0
  0
LINE
  5
1CE
330
1F
100
AcDbEntity
  8
Системный слой (1)
  6
K5LT_BASIC
 62
   150
420
    33023
370
    60
100
AcDbLine
 10
508.7464102755218
 20
278.4750901081979
 30
0.0
 11
508.7464102755218
 21
296.4750901081979
 31
0.0
  0
LINE
  5
1CF
330
1F
100
AcDbEntity
  8
Системный слой (1)
  6
K5LT_BASIC
 62
   150
420
    33023
370
    60
100
AcDbLine
 10
506.4905045659631
 20
254.2736664718668
 30
0.0
 11
506.4905045659631
 21
265.7861449429554
 31
0.0
  0
LINE
  5
1D0
330
1F
100
AcDbEntity
  8
Системный слой (1)
  6
K5LT_BASIC
 62
   150
420
    33023
370
    60
100
AcDbLine
 10
473.1538853327688
 20
193.513968736415
 30
0.0
 11
473.1538853327688
 21
175.513968736415
 31
0.0
  0
LINE
  5
1D1
330
1F
100
AcDbEntity
  8
Системный слой (1)
  6
K5LT_BASIC
 62
   150
420
    33023
370
    60
100
AcDbLine
 10
473.1538853327688
 20
175.513968736415
 30
0.0
 11
478.1538853327688
 21
175.513968736415
 31
0.0
  0
LINE
  5
1D2
330
1F
100
AcDbEntity
  8
Системный слой (1)
  6
K5LT_BASIC
 62
   150
420
    33023
370
    60
100
AcDbLine
 10
503.7464102755218
 20
296.4750901081979
 30
0.0
 11
503.7464102755218
 21
278.4750901081979
 31
0.0
  0
LINE
  5
1D3
330
1F
100
AcDbEntity
  8
Системный слой (1)
  6
K5LT_BASIC
 62
   150
420
    33023
370
    60
100
AcDbLine
 10
456.025148319486
 20
310.6589754597576
 30
0.0
 11
456.025148319486
 21
165.6589754597576
 31
0.0
  0
LINE
  5
1D4
330
1F
100
AcDbEntity
  8
Системный слой (1)
  6
K5LT_BASIC
 62
   150
420
    33023
370
    60
100
AcDbLine
 10
506.4905045659631
 20
265.7861449429554
 30
0.0
 11
501.4905045659631
 21
265.7861449429554
 31
0.0
  0
LINE
  5
1D5
330
1F
100
AcDbEntity
  8
Системный слой (1)
  6
K5LT_BASIC
 62
   150
420
    33023
370
    60
100
AcDbLine
 10
525.8751472888046
 20
310.6589754597576
 30
0.0
 11
456.025148319486
 21
310.6589754597576
 31
0.0
  0
LINE
  5
1D6
330
1F
100
AcDbEntity
  8
Системный слой (1)
  6
K5LT_BASIC
 62
   150
420
    33023
370
    60
100
AcDbLine
 10
508.7464102755218
 20
175.513968736415
 30
0.0
 11
508.7464102755218
 21
193.513968736415
 31
0.0
  0
LINE
  5
1D7
330
1F
100
AcDbEntity
  8
Системный слой (1)
  6
K5LT_BASIC
 62
   150
420
    33023
370
    60
100
AcDbLine
 10
474.4905045659631
 20
222.0442844476484
 30
0.0
 11
474.4905045659631
 21
210.5318059765598
 31
0.0
  0
LINE
  5
1D8
330
1F
100
AcDbEntity
  8
Системный слой (1)
  6
K5LT_BASIC
 62
   150
420
    33023
370
    60
100
AcDbLine
 10
501.4905045659631
 20
254.2736664718668
 30
0.0
 11
506.4905045659631
 21
254.2736664718668
 31
0.0
  0
LINE
  5
1D9
330
1F
100
AcDbEntity
  8
Системный слой (1)
  6
K5LT_BASIC
 62
   150
420
    33023
370
    60
100
AcDbLine
 10
506.4905045659631
 20
222.0442844476484
 30
0.0
 11
501.4905045659631
 21
222.0442844476484
 31
0.0
  0
LINE
  5
1DA
330
1F
100
AcDbEntity
  8
Системный слой (1)
  6
K5LT_BASIC
 62
   150
420
    33023
370
    60
100
AcDbLine
 10
503.7464102755218
 20
175.513968736415
 30
0.0
 11
508.7464102755218
 21
175.513968736415
 31
0.0
  0
LINE
  5
1DB
330
1F
100
AcDbEntity
  8
Системный слой (1)
  6
K5LT_BASIC
 62
   150
420
    33023
370
    60
100
AcDbLine
 10
501.4905045659631
 20
265.7861449429554
 30
0.0
 11
501.4905045659631
 21
254.2736664718668
 31
0.0
  0
LINE
  5
1DC
330
1F
100
AcDbEntity
  8
Системный слой (1)
  6
K5LT_BASIC
 62
   150
420
    33023
370
    60
100
AcDbLine
 10
478.1538853327688
 20
175.513968736415
 30
0.0
 11
478.1538853327688
 21
193.513968736415
 31
0.0
  0
LINE
  5
1DD
330
1F
100
AcDbEntity
  8
Системный слой (1)
  6
K5LT_BASIC
 62
   150
420
    33023
370
    60
100
AcDbLine
 10
508.7464102755218
 20
296.4750901081979
 30
0.0
 11
503.7464102755218
 21
296.4750901081979
 31
0.0
  0
LINE
  5
1DE
330
1F
100
AcDbEntity
  8
Системный слой (1)
  6
K5LT_BASIC
 62
   150
420
    33023
370
    60
100
AcDbLine
 10
479.4905045659631
 20
222.0442844476484
 30
0.0
 11
474.4905045659631
 21
222.0442844476484
 31
0.0
  0
LINE
  5
1DF
330
1F
100
AcDbEntity
  8
Системный слой (1)
  6
K5LT_BASIC
 62
   150
420
    33023
370
    60
100
AcDbLine
 10
479.4905045659631
 20
265.7861449429554
 30
0.0
 11
474.4905045659631
 21
265.7861449429554
 31
0.0
  0
LINE
  5
1E0
330
1F
100
AcDbEntity
  8
Системный слой (1)
  6
K5LT_BASIC
 62
   150
420
    33023
370
    60
100
AcDbLine
 10
473.1538853327688
 20
278.4750901081979
 30
0.0
 11
478.1538853327688
 21
278.4750901081979
 31
0.0
  0
LINE
  5
1E1
330
1F
100
AcDbEntity
  8
Системный слой (1)
  6
K5LT_BASIC
 62
   150
420
    33023
370
    60
100
AcDbLine
 10
474.4905045659631
 20
210.5318059765598
 30
0.0
 11
479.4905045659631
 21
210.5318059765598
 31
0.0
  0
LINE
  5
1E2
330
1F
100
AcDbEntity
  8
Системный слой (1)
  6
K5LT_BASIC
 62
   150
420
    33023
370
    60
100
AcDbLine
 10
473.1538853327688
 20
296.4750901081979
 30
0.0
 11
473.1538853327688
 21
278.4750901081979
 31
0.0
  0
MTEXT
  5
1E3
330
1F
100
AcDbEntity
  8
Системный слой (1)
 62
     7
100
AcDbMText
 10
444.6853567831548
 20
248.1589754597576
 30
0.0
 40
0.0
 41
0.0
 46
0.0
 71
     1
 72
     1
  1
\H3.5;\W0.965;\Q15;\Q0;\H10.00;{\c16711680;{\W1.000;}}
  7
KTEXTSTYLE
 73
     1
 44
1.0
  0
LINE
  5
1E4
330
1F
100
AcDbEntity
  8
Системный слой (1)
  6
K5LT_BASIC
 62
   150
420
    33023
370
    60
100
AcDbLine
 10
5.313553603388584
 20
382.1093746880102
 30
0.0
 11
5.313553603388584
 21
677.1093746880102
 31
0.0
  0
LINE
  5
1E5
330
1F
100
AcDbEntity
  8
Системный слой (1)
  6
K5LT_BASIC
 62
   150
420
    33023
370
    60
100
AcDbLine
 10
16.13379167579066
 20
682.1093746880102
 30
0.0
 11
31.66789777043549
 21
682.1093746880102
 31
0.0
  0
LINE
  5
1E6
330
1F
100
AcDbEntity
  8
Системный слой (1)
  6
K5LT_BASIC
 62
   150
420
    33023
370
    60
100
AcDbLine
 10
5.313553603388584
 20
677.1093746880102
 30
0.0
 11
16.13379167579066
 21
677.1093746880102
 31
0.0
  0
LINE
  5
1E7
330
1F
100
AcDbEntity
  8
Системный слой (1)
  6
K5LT_BASIC
 62
   150
420
    33023
370
    60
100
AcDbLine
 10
31.66789777043549
 20
677.1093746880102
 30
0.0
 11
40.78085282666088
 21
677.1093746880102
 31
0.0
  0
LINE
  5
1E8
330
1F
100
AcDbEntity
  8
Системный слой (1)
  6
K5LT_BASIC
 62
   150
420
    33023
370
    60
100
AcDbLine
 10
31.66789777043548
 20
377.1093746880102
 30
0.0
 11
16.13379167579066
 21
377.1093746880102
 31
0.0
  0
LINE
  5
1E9
330
1F
100
AcDbEntity
  8
Системный слой (1)
  6
K5LT_BASIC
 62
   150
420
    33023
370
    60
100
AcDbLine
 10
40.78085282666089
 20
382.1093746880102
 30
0.0
 11
31.66789777043548
 21
382.1093746880102
 31
0.0
  0
LINE
  5
1EA
330
1F
100
AcDbEntity
  8
Системный слой (1)
  6
K5LT_BASIC
 62
   150
420
    33023
370
    60
100
AcDbLine
 10
31.66789777043549
 20
682.1093746880102
 30
0.0
 11
31.66789777043549
 21
677.1093746880102
 31
0.0
  0
LINE
  5
1EB
330
1F
100
AcDbEntity
  8
Системный слой (1)
  6
K5LT_BASIC
 62
   150
420
    33023
370
    60
100
AcDbLine
 10
16.13379167579066
 20
677.1093746880102
 30
0.0
 11
16.13379167579066
 21
682.1093746880102
 31
0.0
  0
LINE
  5
1EC
330
1F
100
AcDbEntity
  8
Системный слой (1)
  6
K5LT_BASIC
 62
   150
420
    33023
370
    60
100
AcDbLine
 10
16.13379167579066
 20
377.1093746880102
 30
0.0
 11
16.13379167579065
 21
382.1093746880102
 31
0.0
  0
LINE
  5
1ED
330
1F
100
AcDbEntity
  8
Системный слой (1)
  6
K5LT_BASIC
 62
   150
420
    33023
370
    60
100
AcDbLine
 10
16.13379167579065
 20
382.1093746880102
 30
0.0
 11
5.313553603388584
 21
382.1093746880102
 31
0.0
  0
LINE
  5
1EE
330
1F
100
AcDbEntity
  8
Системный слой (1)
  6
K5LT_BASIC
 62
   150
420
    33023
370
    60
100
AcDbLine
 10
40.78085282666088
 20
677.1093746880102
 30
0.0
 11
40.78085282666089
 21
382.1093746880102
 31
0.0
  0
LINE
  5
1EF
330
1F
100
AcDbEntity
  8
Системный слой (1)
  6
K5LT_BASIC
 62
   150
420
    33023
370
    60
100
AcDbLine
 10
31.66789777043548
 20
382.1093746880102
 30
0.0
 11
31.66789777043548
 21
377.1093746880102
 31
0.0
  0
MTEXT
  5
1F0
330
1F
100
AcDbEntity
  8
Системный слой (1)
 62
     7
100
AcDbMText
 10
-6.026237932942638
 20
539.6093746880103
 30
0.0
 40
0.0
 41
0.0
 46
0.0
 71
     1
 72
     1
  1
\H3.5;\W0.965;\Q15;\Q0;\H10.00;{\c16711680;{\W1.000;}}
  7
KTEXTSTYLE
 73
     1
 44
1.0
  0
LINE
  5
1F1
330
1F
100
AcDbEntity
  8
Системный слой (1)
  6
K5LT_BASIC
 62
   150
420
    33023
370
    60
100
AcDbLine
 10
316.7131389839293
 20
594.9754443234833
 30
0.0
 11
321.7131389839293
 21
594.9754443234833
 31
0.0
  0
LINE
  5
1F2
330
1F
100
AcDbEntity
  8
Системный слой (1)
  6
K5LT_BASIC
 62
   150
420
    33023
370
    60
100
AcDbLine
 10
321.7131389839293
 20
594.9754443234833
 30
0.0
 11
321.7131389839293
 21
610.0814195863078
 31
0.0
  0
LINE
  5
1F3
330
1F
100
AcDbEntity
  8
Системный слой (1)
  6
K5LT_BASIC
 62
   150
420
    33023
370
    60
100
AcDbLine
 10
165.7131389839293
 20
594.9754443234833
 30
0.0
 11
170.7131389839293
 21
594.9754443234833
 31
0.0
  0
LINE
  5
1F4
330
1F
100
AcDbEntity
  8
Системный слой (1)
  6
K5LT_BASIC
 62
   150
420
    33023
370
    60
100
AcDbLine
 10
316.7131389839293
 20
610.0814195863078
 30
0.0
 11
316.7131389839293
 21
615.7008027947987
 31
0.0
  0
LINE
  5
1F5
330
1F
100
AcDbEntity
  8
Системный слой (1)
  6
K5LT_BASIC
 62
   150
420
    33023
370
    60
100
AcDbLine
 10
316.7131389839293
 20
615.7008027947987
 30
0.0
 11
170.7131389839293
 21
615.7008027947987
 31
0.0
  0
LINE
  5
1F6
330
1F
100
AcDbEntity
  8
Системный слой (1)
  6
K5LT_BASIC
 62
   150
420
    33023
370
    60
100
AcDbLine
 10
165.7131389839293
 20
610.0814195863078
 30
0.0
 11
165.7131389839293
 21
594.9754443234833
 31
0.0
  0
LINE
  5
1F7
330
1F
100
AcDbEntity
  8
Системный слой (1)
  6
K5LT_BASIC
 62
   150
420
    33023
370
    60
100
AcDbLine
 10
170.7131389839293
 20
615.7008027947987
 30
0.0
 11
170.7131389839293
 21
610.0814195863078
 31
0.0
  0
LINE
  5
1F8
330
1F
100
AcDbEntity
  8
Системный слой (1)
  6
K5LT_BASIC
 62
   150
420
    33023
370
    60
100
AcDbLine
 10
170.7131389839293
 20
589.7008027947987
 30
0.0
 11
316.7131389839293
 21
589.7008027947987
 31
0.0
  0
LINE
  5
1F9
330
1F
100
AcDbEntity
  8
Системный слой (1)
  6
K5LT_BASIC
 62
   150
420
    33023
370
    60
100
AcDbLine
 10
321.7131389839293
 20
610.0814195863078
 30
0.0
 11
316.7131389839293
 21
610.0814195863078
 31
0.0
  0
LINE
  5
1FA
330
1F
100
AcDbEntity
  8
Системный слой (1)
  6
K5LT_BASIC
 62
   150
420
    33023
370
    60
100
AcDbLine
 10
170.7131389839293
 20
610.0814195863078
 30
0.0
 11
165.7131389839293
 21
610.0814195863078
 31
0.0
  0
LINE
  5
1FB
330
1F
100
AcDbEntity
  8
Системный слой (1)
  6
K5LT_BASIC
 62
   150
420
    33023
370
    60
100
AcDbLine
 10
170.7131389839293
 20
594.9754443234833
 30
0.0
 11
170.7131389839293
 21
589.7008027947987
 31
0.0
  0
LINE
  5
1FC
330
1F
100
AcDbEntity
  8
Системный слой (1)
  6
K5LT_BASIC
 62
   150
420
    33023
370
    60
100
AcDbLine
 10
316.7131389839293
 20
589.7008027947987
 30
0.0
 11
316.7131389839293
 21
594.9754443234833
 31
0.0
  0
LINE
  5
1FD
330
1F
100
AcDbEntity
  8
Системный слой (1)
  6
K5LT_BASIC
 62
   150
420
    33023
370
    60
100
AcDbLine
 10
313.7131389839293
 20
557.3032044044214
 30
0.0
 11
318.7131389839293
 21
557.3032044044214
 31
0.0
  0
LINE
  5
1FE
330
1F
100
AcDbEntity
  8
Системный слой (1)
  6
K5LT_BASIC
 62
   150
420
    33023
370
    60
100
AcDbLine
 10
318.7131389839293
 20
557.3032044044214
 30
0.0
 11
318.7131389839293
 21
572.409179667246
 31
0.0
  0
LINE
  5
1FF
330
1F
100
AcDbEntity
  8
Системный слой (1)
  6
K5LT_BASIC
 62
   150
420
    33023
370
    60
100
AcDbLine
 10
162.7131389839293
 20
557.3032044044214
 30
0.0
 11
167.7131389839293
 21
557.3032044044214
 31
0.0
  0
LINE
  5
200
330
1F
100
AcDbEntity
  8
Системный слой (1)
  6
K5LT_BASIC
 62
   150
420
    33023
370
    60
100
AcDbLine
 10
313.7131389839293
 20
572.409179667246
 30
0.0
 11
313.7131389839293
 21
578.028562875737
 31
0.0
  0
LINE
  5
201
330
1F
100
AcDbEntity
  8
Системный слой (1)
  6
K5LT_BASIC
 62
   150
420
    33023
370
    60
100
AcDbLine
 10
313.7131389839293
 20
578.028562875737
 30
0.0
 11
167.7131389839293
 21
578.028562875737
 31
0.0
  0
LINE
  5
202
330
1F
100
AcDbEntity
  8
Системный слой (1)
  6
K5LT_BASIC
 62
   150
420
    33023
370
    60
100
AcDbLine
 10
162.7131389839293
 20
572.409179667246
 30
0.0
 11
162.7131389839293
 21
557.3032044044214
 31
0.0
  0
LINE
  5
203
330
1F
100
AcDbEntity
  8
Системный слой (1)
  6
K5LT_BASIC
 62
   150
420
    33023
370
    60
100
AcDbLine
 10
167.7131389839293
 20
578.028562875737
 30
0.0
 11
167.7131389839293
 21
572.409179667246
 31
0.0
  0
LINE
  5
204
330
1F
100
AcDbEntity
  8
Системный слой (1)
  6
K5LT_BASIC
 62
   150
420
    33023
370
    60
100
AcDbLine
 10
167.7131389839293
 20
552.028562875737
 30
0.0
 11
313.7131389839293
 21
552.028562875737
 31
0.0
  0
LINE
  5
205
330
1F
100
AcDbEntity
  8
Системный слой (1)
  6
K5LT_BASIC
 62
   150
420
    33023
370
    60
100
AcDbLine
 10
318.7131389839293
 20
572.409179667246
 30
0.0
 11
313.7131389839293
 21
572.409179667246
 31
0.0
  0
LINE
  5
206
330
1F
100
AcDbEntity
  8
Системный слой (1)
  6
K5LT_BASIC
 62
   150
420
    33023
370
    60
100
AcDbLine
 10
167.7131389839293
 20
572.409179667246
 30
0.0
 11
162.7131389839293
 21
572.409179667246
 31
0.0
  0
LINE
  5
207
330
1F
100
AcDbEntity
  8
Системный слой (1)
  6
K5LT_BASIC
 62
   150
420
    33023
370
    60
100
AcDbLine
 10
167.7131389839293
 20
557.3032044044214
 30
0.0
 11
167.7131389839293
 21
552.028562875737
 31
0.0
  0
LINE
  5
208
330
1F
100
AcDbEntity
  8
Системный слой (1)
  6
K5LT_BASIC
 62
   150
420
    33023
370
    60
100
AcDbLine
 10
313.7131389839293
 20
552.028562875737
 30
0.0
 11
313.7131389839293
 21
557.3032044044214
 31
0.0
  0
LINE
  5
209
330
1F
100
AcDbEntity
  8
Системный слой (1)
  6
K5LT_BASIC
 62
   150
420
    33023
370
    60
100
AcDbLine
 10
301.7131389839293
 20
519.0272094914319
 30
0.0
 11
306.7131389839293
 21
519.0272094914319
 31
0.0
  0
LINE
  5
20A
330
1F
100
AcDbEntity
  8
Системный слой (1)
  6
K5LT_BASIC
 62
   150
420
    33023
370
    60
100
AcDbLine
 10
306.7131389839293
 20
519.0272094914319
 30
0.0
 11
306.7131389839293
 21
534.1331847542565
 31
0.0
  0
LINE
  5
20B
330
1F
100
AcDbEntity
  8
Системный слой (1)
  6
K5LT_BASIC
 62
   150
420
    33023
370
    60
100
AcDbLine
 10
150.7131389839293
 20
519.0272094914319
 30
0.0
 11
155.7131389839293
 21
519.0272094914319
 31
0.0
  0
LINE
  5
20C
330
1F
100
AcDbEntity
  8
Системный слой (1)
  6
K5LT_BASIC
 62
   150
420
    33023
370
    60
100
AcDbLine
 10
301.7131389839293
 20
534.1331847542565
 30
0.0
 11
301.7131389839293
 21
539.7525679627474
 31
0.0
  0
LINE
  5
20D
330
1F
100
AcDbEntity
  8
Системный слой (1)
  6
K5LT_BASIC
 62
   150
420
    33023
370
    60
100
AcDbLine
 10
301.7131389839293
 20
539.7525679627474
 30
0.0
 11
155.7131389839293
 21
539.7525679627474
 31
0.0
  0
LINE
  5
20E
330
1F
100
AcDbEntity
  8
Системный слой (1)
  6
K5LT_BASIC
 62
   150
420
    33023
370
    60
100
AcDbLine
 10
150.7131389839293
 20
534.1331847542565
 30
0.0
 11
150.7131389839293
 21
519.0272094914319
 31
0.0
  0
LINE
  5
20F
330
1F
100
AcDbEntity
  8
Системный слой (1)
  6
K5LT_BASIC
 62
   150
420
    33023
370
    60
100
AcDbLine
 10
155.7131389839293
 20
539.7525679627474
 30
0.0
 11
155.7131389839293
 21
534.1331847542565
 31
0.0
  0
LINE
  5
210
330
1F
100
AcDbEntity
  8
Системный слой (1)
  6
K5LT_BASIC
 62
   150
420
    33023
370
    60
100
AcDbLine
 10
155.7131389839293
 20
513.7525679627474
 30
0.0
 11
301.7131389839293
 21
513.7525679627474
 31
0.0
  0
LINE
  5
211
330
1F
100
AcDbEntity
  8
Системный слой (1)
  6
K5LT_BASIC
 62
   150
420
    33023
370
    60
100
AcDbLine
 10
306.7131389839293
 20
534.1331847542565
 30
0.0
 11
301.7131389839293
 21
534.1331847542565
 31
0.0
  0
LINE
  5
212
330
1F
100
AcDbEntity
  8
Системный слой (1)
  6
K5LT_BASIC
 62
   150
420
    33023
370
    60
100
AcDbLine
 10
155.7131389839293
 20
534.1331847542565
 30
0.0
 11
150.7131389839293
 21
534.1331847542565
 31
0.0
  0
LINE
  5
213
330
1F
100
AcDbEntity
  8
Системный слой (1)
  6
K5LT_BASIC
 62
   150
420
    33023
370
    60
100
AcDbLine
 10
155.7131389839293
 20
519.0272094914319
 30
0.0
 11
155.7131389839293
 21
513.7525679627474
 31
0.0
  0
LINE
  5
214
330
1F
100
AcDbEntity
  8
Системный слой (1)
  6
K5LT_BASIC
 62
   150
420
    33023
370
    60
100
AcDbLine
 10
301.7131389839293
 20
513.7525679627474
 30
0.0
 11
301.7131389839293
 21
519.0272094914319
 31
0.0
  0
LINE
  5
215
330
1F
100
AcDbEntity
  8
Системный слой (1)
  6
K5LT_BASIC
 62
   150
420
    33023
370
    60
100
AcDbLine
 10
84.4115489936867
 20
763.8838228157927
 30
0.0
 11
84.4115489936867
 21
768.8838228157927
 31
0.0
  0
LINE
  5
216
330
1F
100
AcDbEntity
  8
Системный слой (1)
  6
K5LT_BASIC
 62
   150
420
    33023
370
    60
100
AcDbLine
 10
84.4115489936867
 20
714.8838228157927
 30
0.0
 11
72.89907052259812
 21
714.8838228157927
 31
0.0
  0
LINE
  5
217
330
1F
100
AcDbEntity
  8
Системный слой (1)
  6
K5LT_BASIC
 62
   150
420
    33023
370
    60
100
AcDbLine
 10
29.15721002729116
 20
755.8838228157927
 30
0.0
 11
29.15721002729116
 21
750.8838228157927
 31
0.0
  0
LINE
  5
218
330
1F
100
AcDbEntity
  8
Системный слой (1)
  6
K5LT_BASIC
 62
   150
420
    33023
370
    60
100
AcDbLine
 10
29.15721002729116
 20
763.8838228157927
 30
0.0
 11
40.66968849837971
 21
763.8838228157927
 31
0.0
  0
LINE
  5
219
330
1F
100
AcDbEntity
  8
Системный слой (1)
  6
K5LT_BASIC
 62
   150
420
    33023
370
    60
100
AcDbLine
 10
84.4115489936867
 20
723.8838228157927
 30
0.0
 11
84.4115489936867
 21
728.8838228157927
 31
0.0
  0
LINE
  5
21A
330
1F
100
AcDbEntity
  8
Системный слой (1)
  6
K5LT_BASIC
 62
   150
420
    33023
370
    60
100
AcDbLine
 10
72.89907052259812
 20
723.8838228157927
 30
0.0
 11
84.4115489936867
 21
723.8838228157927
 31
0.0
  0
LINE
  5
21B
330
1F
100
AcDbEntity
  8
Системный слой (1)
  6
K5LT_BASIC
 62
   150
420
    33023
370
    60
100
AcDbLine
 10
29.15721002729116
 20
714.8838228157927
 30
0.0
 11
29.15721002729116
 21
709.8838228157927
 31
0.0
  0
CIRCLE
  5
21C
330
1F
100
AcDbEntity
  8
Системный слой (1)
  6
K5LT_BASIC
 62
   150
420
    33023
370
    60
100
AcDbCircle
 10
56.78437951048892
 20
739.8838228157927
 30
0.0
 40
2.0
  0
LINE
  5
21D
330
1F
100
AcDbEntity
  8
Системный слой (1)
  6
K5LT_BASIC
 62
   150
420
    33023
370
    60
100
AcDbLine
 10
72.89907052259812
 20
709.8838228157927
 30
0.0
 11
84.4115489936867
 21
709.8838228157927
 31
0.0
  0
LINE
  5
21E
330
1F
100
AcDbEntity
  8
Системный слой (1)
  6
K5LT_BASIC
 62
   150
420
    33023
370
    60
100
AcDbLine
 10
72.89907052259812
 20
750.8838228157927
 30
0.0
 11
84.4115489936867
 21
750.8838228157927
 31
0.0
  0
LINE
  5
21F
330
1F
100
AcDbEntity
  8
Системный слой (1)
  6
K5LT_BASIC
 62
   150
420
    33023
370
    60
100
AcDbLine
 10
40.66968849837971
 20
755.8838228157927
 30
0.0
 11
29.15721002729116
 21
755.8838228157927
 31
0.0
  0
LINE
  5
220
330
1F
100
AcDbEntity
  8
Системный слой (1)
  6
K5LT_BASIC
 62
   150
420
    33023
370
    60
100
AcDbLine
 10
72.89907052259812
 20
755.8838228157927
 30
0.0
 11
72.89907052259812
 21
750.8838228157927
 31
0.0
  0
LINE
  5
221
330
1F
100
AcDbEntity
  8
Системный слой (1)
  6
K5LT_BASIC
 62
   150
420
    33023
370
    60
100
AcDbLine
 10
84.4115489936867
 20
728.8838228157927
 30
0.0
 11
72.89907052259812
 21
728.8838228157927
 31
0.0
  0
LINE
  5
222
330
1F
100
AcDbEntity
  8
Системный слой (1)
  6
K5LT_BASIC
 62
   150
420
    33023
370
    60
100
AcDbLine
 10
29.15721002729116
 20
709.8838228157927
 30
0.0
 11
40.66968849837971
 21
709.8838228157927
 31
0.0
  0
LINE
  5
223
330
1F
100
AcDbEntity
  8
Системный слой (1)
  6
K5LT_BASIC
 62
   150
420
    33023
370
    60
100
AcDbLine
 10
84.4115489936867
 20
709.8838228157927
 30
0.0
 11
84.4115489936867
 21
714.8838228157927
 31
0.0
  0
LINE
  5
224
330
1F
100
AcDbEntity
  8
Системный слой (1)
  6
K5LT_BASIC
 62
   150
420
    33023
370
    60
100
AcDbLine
 10
84.4115489936867
 20
755.8838228157927
 30
0.0
 11
72.89907052259812
 21
755.8838228157927
 31
0.0
  0
LINE
  5
225
330
1F
100
AcDbEntity
  8
Системный слой (1)
  6
K5LT_BASIC
 62
   150
420
    33023
370
    60
100
AcDbLine
 10
72.89907052259812
 20
768.8838228157927
 30
0.0
 11
72.89907052259812
 21
763.8838228157927
 31
0.0
  0
CIRCLE
  5
226
330
1F
100
AcDbEntity
  8
Системный слой (1)
  6
K5LT_BASIC
 62
   150
420
    33023
370
    60
100
AcDbCircle
 10
56.78437951048892
 20
739.8838228157927
 30
0.0
 40
45.85282069237208
  0
LINE
  5
227
330
1F
100
AcDbEntity
  8
Системный слой (1)
  6
K5LT_BASIC
 62
   150
420
    33023
370
    60
100
AcDbLine
 10
29.15721002729116
 20
750.8838228157927
 30
0.0
 11
40.66968849837971
 21
750.8838228157927
 31
0.0
  0
LINE
  5
228
330
1F
100
AcDbEntity
  8
Системный слой (1)
  6
K5LT_BASIC
 62
   150
420
    33023
370
    60
100
AcDbLine
 10
29.15721002729116
 20
768.8838228157927
 30
0.0
 11
29.15721002729116
 21
763.8838228157927
 31
0.0
  0
LINE
  5
229
330
1F
100
AcDbEntity
  8
Системный слой (1)
  6
K5LT_BASIC
 62
   150
420
    33023
370
    60
100
AcDbLine
 10
40.66968849837971
 20
763.8838228157927
 30
0.0
 11
40.66968849837971
 21
768.8838228157927
 31
0.0
  0
LINE
  5
22A
330
1F
100
AcDbEntity
  8
Системный слой (1)
  6
K5LT_BASIC
 62
   150
420
    33023
370
    60
100
AcDbLine
 10
40.66968849837971
 20
768.8838228157927
 30
0.0
 11
29.15721002729116
 21
768.8838228157927
 31
0.0
  0
LINE
  5
22B
330
1F
100
AcDbEntity
  8
Системный слой (1)
  6
K5LT_BASIC
 62
   150
420
    33023
370
    60
100
AcDbLine
 10
40.66968849837971
 20
728.8838228157927
 30
0.0
 11
29.15721002729116
 21
728.8838228157927
 31
0.0
  0
LINE
  5
22C
330
1F
100
AcDbEntity
  8
Системный слой (1)
  6
K5LT_BASIC
 62
   150
420
    33023
370
    60
100
AcDbLine
 10
40.66968849837971
 20
723.8838228157927
 30
0.0
 11
40.66968849837971
 21
728.8838228157927
 31
0.0
  0
LINE
  5
22D
330
1F
100
AcDbEntity
  8
Системный слой (1)
  6
K5LT_BASIC
 62
   150
420
    33023
370
    60
100
AcDbLine
 10
40.66968849837971
 20
709.8838228157927
 30
0.0
 11
40.66968849837971
 21
714.8838228157927
 31
0.0
  0
LINE
  5
22E
330
1F
100
AcDbEntity
  8
Системный слой (1)
  6
K5LT_BASIC
 62
   150
420
    33023
370
    60
100
AcDbLine
 10
72.89907052259812
 20
763.8838228157927
 30
0.0
 11
84.4115489936867
 21
763.8838228157927
 31
0.0
  0
LINE
  5
22F
330
1F
100
AcDbEntity
  8
Системный слой (1)
  6
K5LT_BASIC
 62
   150
420
    33023
370
    60
100
AcDbLine
 10
40.66968849837971
 20
750.8838228157927
 30
0.0
 11
40.66968849837971
 21
755.8838228157927
 31
0.0
  0
LINE
  5
230
330
1F
100
AcDbEntity
  8
Системный слой (1)
  6
K5LT_BASIC
 62
   150
420
    33023
370
    60
100
AcDbLine
 10
72.89907052259812
 20
728.8838228157927
 30
0.0
 11
72.89907052259812
 21
723.8838228157927
 31
0.0
  0
LINE
  5
231
330
1F
100
AcDbEntity
  8
Системный слой (1)
  6
K5LT_BASIC
 62
   150
420
    33023
370
    60
100
AcDbLine
 10
40.66968849837971
 20
714.8838228157927
 30
0.0
 11
29.15721002729116
 21
714.8838228157927
 31
0.0
  0
LINE
  5
232
330
1F
100
AcDbEntity
  8
Системный слой (1)
  6
K5LT_BASIC
 62
   150
420
    33023
370
    60
100
AcDbLine
 10
84.4115489936867
 20
750.8838228157927
 30
0.0
 11
84.4115489936867
 21
755.8838228157927
 31
0.0
  0
LINE
  5
233
330
1F
100
AcDbEntity
  8
Системный слой (1)
  6
K5LT_BASIC
 62
   150
420
    33023
370
    60
100
AcDbLine
 10
29.15721002729116
 20
728.8838228157927
 30
0.0
 11
29.15721002729116
 21
723.8838228157927
 31
0.0
  0
LINE
  5
234
330
1F
100
AcDbEntity
  8
Системный слой (1)
  6
K5LT_BASIC
 62
   150
420
    33023
370
    60
100
AcDbLine
 10
84.4115489936867
 20
768.8838228157927
 30
0.0
 11
72.89907052259812
 21
768.8838228157927
 31
0.0
  0
LINE
  5
235
330
1F
100
AcDbEntity
  8
Системный слой (1)
  6
K5LT_BASIC
 62
   150
420
    33023
370
    60
100
AcDbLine
 10
29.15721002729116
 20
723.8838228157927
 30
0.0
 11
40.66968849837971
 21
723.8838228157927
 31
0.0
  0
LINE
  5
236
330
1F
100
AcDbEntity
  8
Системный слой (1)
  6
K5LT_BASIC
 62
   150
420
    33023
370
    60
100
AcDbLine
 10
72.89907052259812
 20
714.8838228157927
 30
0.0
 11
72.89907052259812
 21
709.8838228157927
 31
0.0
  0
ENDSEC
  0
SECTION
  2
OBJECTS
  0
DICTIONARY
  5
C
330
0
100
AcDbDictionary
281
     1
  3
ACAD_DETAILVIEWSTYLE
350
23E
  3
ACAD_GROUP
350
D
  3
ACAD_LAYOUT
350
1A
  3
ACAD_MATERIAL
350
43
  3
ACAD_MLEADERSTYLE
350
6B
  3
ACAD_MLINESTYLE
350
17
  3
ACAD_PLOTSETTINGS
350
19
  3
ACAD_PLOTSTYLENAME
350
E
  3
ACAD_SCALELIST
350
47
  3
ACAD_SECTIONVIEWSTYLE
350
23F
  3
ACAD_TABLESTYLE
350
69
  3
ACAD_VISUALSTYLE
350
2A
  3
ACDB_RECOMPOSE_DATA
350
23B
  3
AcDbVariableDictionary
350
237
  0
SUN
  5
6D
330
29
100
AcDbSun
 90
        1
290
     0
 63
     7
421
 16777215
 40
1.0
291
     1
 91
  2455826
 92
 54000000
292
     0
 70
     2
 71
   256
280
     1
  0
DICTIONARY
  5
23E
102
{ACAD_REACTORS
330
C
102
}
330
C
100
AcDbDictionary
281
     1
  0
DICTIONARY
  5
D
102
{ACAD_REACTORS
330
C
102
}
330
C
100
AcDbDictionary
281
     1
  0
DICTIONARY
  5
1A
102
{ACAD_REACTORS
330
C
102
}
330
C
100
AcDbDictionary
281
     1
  3
Layout1
350
1E
  3
Layout2
350
26
  3
Model
350
22
  0
DICTIONARY
  5
43
102
{ACAD_REACTORS
330
C
102
}
330
C
100
AcDbDictionary
281
     1
  3
ByBlock
350
45
  3
ByLayer
350
44
  3
Global
350
46
  0
DICTIONARY
  5
6B
102
{ACAD_REACTORS
330
C
102
}
330
C
100
AcDbDictionary
281
     1
  3
Standard
350
6C
  0
DICTIONARY
  5
17
102
{ACAD_REACTORS
330
C
102
}
330
C
100
AcDbDictionary
281
     1
  3
Standard
350
18
  0
DICTIONARY
  5
19
102
{ACAD_REACTORS
330
C
102
}
330
C
100
AcDbDictionary
281
     1
  0
ACDBDICTIONARYWDFLT
  5
E
102
{ACAD_REACTORS
330
C
102
}
330
C
100
AcDbDictionary
281
     1
  3
Normal
350
F
100
AcDbDictionaryWithDefault
340
F
  0
DICTIONARY
  5
47
102
{ACAD_REACTORS
330
C
102
}
330
C
100
AcDbDictionary
281
     1
  3
A0
350
48
  3
A1
350
49
  3
A2
350
4A
  3
A3
350
4B
  3
A4
350
4C
  3
A5
350
4D
  3
A6
350
4E
  3
A7
350
4F
  3
A8
350
50
  3
A9
350
51
  3
B0
350
52
  3
B1
350
53
  3
B2
350
54
  3
B3
350
55
  3
B4
350
56
  3
B5
350
57
  3
B6
350
58
  3
B7
350
59
  3
B8
350
5A
  3
B9
350
5B
  3
C0
350
5C
  3
C1
350
5D
  3
C2
350
5E
  3
C3
350
5F
  3
C4
350
60
  3
C5
350
61
  3
C6
350
62
  3
C7
350
63
  3
C8
350
64
  3
C9
350
65
  3
D0
350
66
  3
D1
350
67
  3
D2
350
68
  0
DICTIONARY
  5
23F
102
{ACAD_REACTORS
330
C
102
}
330
C
100
AcDbDictionary
281
     1
  0
DICTIONARY
  5
69
102
{ACAD_REACTORS
330
C
102
}
330
C
100
AcDbDictionary
281
     1
  3
Standard
350
6A
  0
DICTIONARY
  5
2A
102
{ACAD_REACTORS
330
C
102
}
330
C
100
AcDbDictionary
281
     1
  3
2dWireframe
350
2F
  3
Basic
350
32
  3
Brighten
350
36
  3
ColorChange
350
3A
  3
Conceptual
350
34
  3
Dim
350
35
  3
EdgeColorOff
350
3D
  3
Facepattern
350
39
  3
Flat
350
2B
  3
FlatWithEdges
350
2C
  3
Gouraud
350
2D
  3
GouraudWithEdges
350
2E
  3
Hidden
350
31
  3
JitterOff
350
3B
  3
Linepattern
350
38
  3
OverhangOff
350
3C
  3
Realistic
350
33
  3
Shaded
350
42
  3
Shaded with edges
350
41
  3
Shades of Gray
350
3E
  3
Sketchy
350
3F
  3
Thicken
350
37
  3
Wireframe
350
30
  3
X-Ray
350
40
  0
XRECORD
  5
23B
102
{ACAD_REACTORS
330
C
102
}
330
C
100
AcDbXrecord
280
     1
 90
        1
330
6A
  0
DICTIONARY
  5
237
102
{ACAD_REACTORS
330
C
102
}
330
C
100
AcDbDictionary
281
     1
  3
CANNOSCALE
350
238
  3
CENTEREXE
350
241
  3
CENTERLTYPEFILE
350
242
  3
CMLEADERSTYLE
350
23D
  3
CTABLESTYLE
350
23C
  3
WIPEOUTFRAME
350
240
  0
LAYOUT
  5
1E
102
{ACAD_REACTORS
330
1A
102
}
330
1A
100
AcDbPlotSettings
  1

  2
none_device
  4

  6

 40
0.0
 41
0.0
 42
0.0
 43
0.0
 44
0.0
 45
0.0
 46
0.0
 47
0.0
 48
0.0
 49
0.0
140
0.0
141
0.0
142
1.0
143
1.0
 70
   688
 72
     1
 73
     0
 74
     5
  7

 75
    16
 76
     0
 77
     2
 78
   300
147
1.0
148
0.0
149
0.0
100
AcDbLayout
  1
Layout1
 70
     1
 71
     1
 10
0.0
 20
0.0
 11
420.0
 21
297.0
 12
0.0
 22
0.0
 32
0.0
 14
1.000000000000000E+20
 24
1.000000000000000E+20
 34
1.000000000000000E+20
 15
-1.000000000000000E+20
 25
-1.000000000000000E+20
 35
-1.000000000000000E+20
146
0.0
 13
0.0
 23
0.0
 33
0.0
 16
1.0
 26
0.0
 36
0.0
 17
0.0
 27
1.0
 37
0.0
 76
     0
330
1B
  0
LAYOUT
  5
26
102
{ACAD_REACTORS
330
1A
102
}
330
1A
100
AcDbPlotSettings
  1

  2
none_device
  4

  6

 40
0.0
 41
0.0
 42
0.0
 43
0.0
 44
0.0
 45
0.0
 46
0.0
 47
0.0
 48
0.0
 49
0.0
140
0.0
141
0.0
142
1.0
143
1.0
 70
   688
 72
     1
 73
     0
 74
     5
  7

 75
    16
 76
     0
 77
     2
 78
   300
147
1.0
148
0.0
149
0.0
100
AcDbLayout
  1
Layout2
 70
     1
 71
     2
 10
0.0
 20
0.0
 11
0.0
 21
0.0
 12
0.0
 22
0.0
 32
0.0
 14
0.0
 24
0.0
 34
0.0
 15
0.0
 25
0.0
 35
0.0
146
0.0
 13
0.0
 23
0.0
 33
0.0
 16
1.0
 26
0.0
 36
0.0
 17
0.0
 27
1.0
 37
0.0
 76
     0
330
23
  0
LAYOUT
  5
22
102
{ACAD_REACTORS
330
1A
102
}
330
1A
100
AcDbPlotSettings
  1

  2
none_device
  4
Letter_(8.50_x_11.00_Inches)
  6

 40
6.35
 41
6.35
 42
6.35000508
 43
6.35000508
 44
215.9
 45
279.4
 46
0.0
 47
0.0
 48
0.0
 49
0.0
140
0.0
141
0.0
142
1.0
143
1.0
 70
  1712
 72
     1
 73
     0
 74
     0
  7

 75
     0
 76
     0
 77
     2
 78
   300
147
1.0
148
0.0
149
0.0
100
AcDbLayout
  1
Model
 70
     1
 71
     0
 10
0.0
 20
0.0
 11
420.0
 21
297.0
 12
0.0
 22
0.0
 32
0.0
 14
-6.026237932942641
 24
65.36580543925459
 34
0.0
 15
585.929119360928
 25
899.6412452177337
 35
0.0
146
0.0
 13
0.0
 23
0.0
 33
0.0
 16
1.0
 26
0.0
 36
0.0
 17
0.0
 27
1.0
 37
0.0
 76
     0
330
1F
331
29
  0
MATERIAL
  5
45
102
{ACAD_REACTORS
330
43
102
}
330
43
100
AcDbMaterial
  1
ByBlock
 72
     1
 94
      127
  0
MATERIAL
  5
44
102
{ACAD_REACTORS
330
43
102
}
330
43
100
AcDbMaterial
  1
ByLayer
 72
     1
 94
      127
  0
MATERIAL
  5
46
102
{ACAD_REACTORS
330
43
102
}
330
43
100
AcDbMaterial
  1
Global
 72
     1
 94
      127
  0
MLEADERSTYLE
  5
6C
102
{ACAD_REACTORS
330
6B
102
}
330
6B
100
AcDbMLeaderStyle
179
     2
170
     2
171
     1
172
     0
 90
        2
 40
0.0
 41
0.0
173
     1
 91
-1056964608
340
14
 92
       -2
290
     1
 42
2.0
291
     1
 43
8.0
  3
Standard
341
0
 44
4.0
300

342
11
174
     1
178
     6
175
     1
176
     0
 93
-1056964608
 45
4.0
292
     0
297
     0
 46
4.0
343
0
 94
-1056964608
 47
1.0
 49
1.0
140
1.0
293
     1
141
0.0
294
     1
177
     0
142
1.0
295
     0
296
     0
143
3.75
271
     0
272
     9
273
     9
298
     0
  0
MLINESTYLE
  5
18
102
{ACAD_REACTORS
330
17
102
}
330
17
100
AcDbMlineStyle
  2
Standard
 70
     0
  3

 62
   256
 51
90.0
 52
90.0
 71
     2
 49
0.5
 62
   256
  6
BYLAYER
 49
-0.5
 62
   256
  6
BYLAYER
  0
ACDBPLACEHOLDER
  5
F
102
{ACAD_REACTORS
330
E
102
}
330
E
  0
SCALE
  5
48
102
{ACAD_REACTORS
330
47
102
}
330
47
100
AcDbScale
 70
     0
300
1:1
140
1.0
141
1.0
290
     1
  0
SCALE
  5
49
102
{ACAD_REACTORS
330
47
102
}
330
47
100
AcDbScale
 70
     0
300
1:2
140
1.0
141
2.0
290
     0
  0
SCALE
  5
4A
102
{ACAD_REACTORS
330
47
102
}
330
47
100
AcDbScale
 70
     0
300
1:4
140
1.0
141
4.0
290
     0
  0
SCALE
  5
4B
102
{ACAD_REACTORS
330
47
102
}
330
47
100
AcDbScale
 70
     0
300
1:5
140
1.0
141
5.0
290
     0
  0
SCALE
  5
4C
102
{ACAD_REACTORS
330
47
102
}
330
47
100
AcDbScale
 70
     0
300
1:8
140
1.0
141
8.0
290
     0
  0
SCALE
  5
4D
102
{ACAD_REACTORS
330
47
102
}
330
47
100
AcDbScale
 70
     0
300
1:10
140
1.0
141
10.0
290
     0
  0
SCALE
  5
4E
102
{ACAD_REACTORS
330
47
102
}
330
47
100
AcDbScale
 70
     0
300
1:16
140
1.0
141
16.0
290
     0
  0
SCALE
  5
4F
102
{ACAD_REACTORS
330
47
102
}
330
47
100
AcDbScale
 70
     0
300
1:20
140
1.0
141
20.0
290
     0
  0
SCALE
  5
50
102
{ACAD_REACTORS
330
47
102
}
330
47
100
AcDbScale
 70
     0
300
1:30
140
1.0
141
30.0
290
     0
  0
SCALE
  5
51
102
{ACAD_REACTORS
330
47
102
}
330
47
100
AcDbScale
 70
     0
300
1:40
140
1.0
141
40.0
290
     0
  0
SCALE
  5
52
102
{ACAD_REACTORS
330
47
102
}
330
47
100
AcDbScale
 70
     0
300
1:50
140
1.0
141
50.0
290
     0
  0
SCALE
  5
53
102
{ACAD_REACTORS
330
47
102
}
330
47
100
AcDbScale
 70
     0
300
1:100
140
1.0
141
100.0
290
     0
  0
SCALE
  5
54
102
{ACAD_REACTORS
330
47
102
}
330
47
100
AcDbScale
 70
     0
300
2:1
140
2.0
141
1.0
290
     0
  0
SCALE
  5
55
102
{ACAD_REACTORS
330
47
102
}
330
47
100
AcDbScale
 70
     0
300
4:1
140
4.0
141
1.0
290
     0
  0
SCALE
  5
56
102
{ACAD_REACTORS
330
47
102
}
330
47
100
AcDbScale
 70
     0
300
8:1
140
8.0
141
1.0
290
     0
  0
SCALE
  5
57
102
{ACAD_REACTORS
330
47
102
}
330
47
100
AcDbScale
 70
     0
300
10:1
140
10.0
141
1.0
290
     0
  0
SCALE
  5
58
102
{ACAD_REACTORS
330
47
102
}
330
47
100
AcDbScale
 70
     0
300
100:1
140
100.0
141
1.0
290
     0
  0
SCALE
  5
59
102
{ACAD_REACTORS
330
47
102
}
330
47
100
AcDbScale
 70
     0
300
1/128" = 1'-0"
140
0.0078125
141
12.0
290
     0
  0
SCALE
  5
5A
102
{ACAD_REACTORS
330
47
102
}
330
47
100
AcDbScale
 70
     0
300
1/64" = 1'-0"
140
0.015625
141
12.0
290
     0
  0
SCALE
  5
5B
102
{ACAD_REACTORS
330
47
102
}
330
47
100
AcDbScale
 70
     0
300
1/32" = 1'-0"
140
0.03125
141
12.0
290
     0
  0
SCALE
  5
5C
102
{ACAD_REACTORS
330
47
102
}
330
47
100
AcDbScale
 70
     0
300
1/16" = 1'-0"
140
0.0625
141
12.0
290
     0
  0
SCALE
  5
5D
102
{ACAD_REACTORS
330
47
102
}
330
47
100
AcDbScale
 70
     0
300
3/32" = 1'-0"
140
0.09375
141
12.0
290
     0
  0
SCALE
  5
5E
102
{ACAD_REACTORS
330
47
102
}
330
47
100
AcDbScale
 70
     0
300
1/8" = 1'-0"
140
0.125
141
12.0
290
     0
  0
SCALE
  5
5F
102
{ACAD_REACTORS
330
47
102
}
330
47
100
AcDbScale
 70
     0
300
3/16" = 1'-0"
140
0.1875
141
12.0
290
     0
  0
SCALE
  5
60
102
{ACAD_REACTORS
330
47
102
}
330
47
100
AcDbScale
 70
     0
300
1/4" = 1'-0"
140
0.25
141
12.0
290
     0
  0
SCALE
  5
61
102
{ACAD_REACTORS
330
47
102
}
330
47
100
AcDbScale
 70
     0
300
3/8" = 1'-0"
140
0.375
141
12.0
290
     0
  0
SCALE
  5
62
102
{ACAD_REACTORS
330
47
102
}
330
47
100
AcDbScale
 70
     0
300
1/2" = 1'-0"
140
0.5
141
12.0
290
     0
  0
SCALE
  5
63
102
{ACAD_REACTORS
330
47
102
}
330
47
100
AcDbScale
 70
     0
300
3/4" = 1'-0"
140
0.75
141
12.0
290
     0
  0
SCALE
  5
64
102
{ACAD_REACTORS
330
47
102
}
330
47
100
AcDbScale
 70
     0
300
1" = 1'-0"
140
1.0
141
12.0
290
     0
  0
SCALE
  5
65
102
{ACAD_REACTORS
330
47
102
}
330
47
100
AcDbScale
 70
     0
300
1-1/2" = 1'-0"
140
1.5
141
12.0
290
     0
  0
SCALE
  5
66
102
{ACAD_REACTORS
330
47
102
}
330
47
100
AcDbScale
 70
     0
300
3" = 1'-0"
140
3.0
141
12.0
290
     0
  0
SCALE
  5
67
102
{ACAD_REACTORS
330
47
102
}
330
47
100
AcDbScale
 70
     0
300
6" = 1'-0"
140
6.0
141
12.0
290
     0
  0
SCALE
  5
68
102
{ACAD_REACTORS
330
47
102
}
330
47
100
AcDbScale
 70
     0
300
1'-0" = 1'-0"
140
12.0
141
12.0
290
     0
  0
TABLESTYLE
  5
6A
102
{ACAD_REACTORS
330
69
102
}
102
{ACAD_XDICTIONARY
360
239
102
}
330
69
100
AcDbTableStyle
  3
Standard
 70
     0
 71
     0
 40
0.06
 41
0.06
280
     0
281
     0
  7
Standard
140
4.5
170
     2
 62
     0
 63
   257
283
     0
 90
        4
 91
        0
  1

274
    -2
284
     1
 64
     0
275
    -2
285
     1
 65
     0
276
    -2
286
     1
 66
     0
277
    -2
287
     1
 67
     0
278
    -2
288
     1
 68
     0
279
    -2
289
     1
 69
     0
  7
Standard
140
6.0
170
     5
 62
     0
 63
   257
283
     0
 90
        4
 91
        0
  1

274
    -2
284
     1
 64
     0
275
    -2
285
     1
 65
     0
276
    -2
286
     1
 66
     0
277
    -2
287
     1
 67
     0
278
    -2
288
     1
 68
     0
279
    -2
289
     1
 69
     0
  7
Standard
140
4.5
170
     5
 62
     0
 63
   257
283
     0
 90
        4
 91
        0
  1

274
    -2
284
     1
 64
     0
275
    -2
285
     1
 65
     0
276
    -2
286
     1
 66
     0
277
    -2
287
     1
 67
     0
278
    -2
288
     1
 68
     0
279
    -2
289
     1
 69
     0
  0
VISUALSTYLE
  5
2F
102
{ACAD_REACTORS
330
2A
102
}
330
2A
100
AcDbVisualStyle
  2
2dWireframe
 70
     4
177
     3
291
     0
 70
    58
 90
        0
176
     1
 90
        2
176
     1
 90
        0
176
     1
 90
        0
176
     1
 40
0.6
176
     1
 40
30.0
176
     1
 62
     7
420
 16777215
176
     1
 90
        1
176
     1
 90
        4
176
     1
 62
     7
176
     1
 62
   257
176
     1
 90
        1
176
     1
 90
        1
176
     1
 40
1.0
176
     1
 90
        0
176
     1
 62
   257
176
     1
 40
1.0
176
     1
 90
        1
176
     1
 90
        6
176
     1
 90
        2
176
     1
 62
     7
176
     1
 90
        5
176
     1
 90
        0
176
     1
 90
        0
176
     1
290
     0
176
     1
 90
        1
176
     1
 40
0.0
176
     1
 90
        0
176
     1
290
     1
176
     1
290
     1
176
     1
290
     0
176
     1
290
     0
176
     1
290
     0
176
     1
290
     0
176
     1
290
     0
176
     1
290
     0
176
     1
290
     0
176
     1
 90
       50
176
     1
 40
0.0
176
     1
 40
1.0
176
     1
 90
        0
176
     1
 62
    18
420
        0
176
     1
 90
       50
176
     1
 90
        3
176
     1
 62
     5
420
      255
176
     1
290
     0
176
     1
 90
       50
176
     1
 90
       50
176
     1
 90
       50
176
     1
290
     0
176
     1
 90
       50
176
     1
 62
   256
176
     0
 40
1.0
176
     0
 90
        2
176
     1
  1
strokes_ogs.tif
176
     1
290
     0
176
     1
 40
1.0
176
     1
 40
1.0
176
     1
  0
VISUALSTYLE
  5
32
102
{ACAD_REACTORS
330
2A
102
}
330
2A
100
AcDbVisualStyle
  2
Basic
 70
     7
177
     3
291
     1
 70
    58
 90
        1
176
     1
 90
        0
176
     1
 90
        1
176
     1
 90
        0
176
     1
 40
0.6
176
     1
 40
30.0
176
     1
 62
     7
420
 16777215
176
     1
 90
        0
176
     1
 90
        4
176
     1
 62
     7
176
     1
 62
   257
176
     1
 90
        1
176
     1
 90
        1
176
     1
 40
1.0
176
     1
 90
        8
176
     1
 62
     7
176
     1
 40
1.0
176
     1
 90
        1
176
     1
 90
        6
176
     1
 90
        2
176
     1
 62
     7
176
     1
 90
        5
176
     1
 90
        0
176
     1
 90
        0
176
     1
290
     0
176
     1
 90
        1
176
     1
 40
0.0
176
     1
 90
        0
176
     1
290
     0
176
     1
290
     1
176
     1
290
     1
176
     1
290
     0
176
     1
290
     0
176
     1
290
     0
176
     1
290
     0
176
     1
290
     0
176
     1
290
     0
176
     1
 90
       50
176
     1
 40
0.0
176
     1
 40
1.0
176
     1
 90
        0
176
     1
 62
    18
420
        0
176
     1
 90
       50
176
     1
 90
        3
176
     1
 62
     5
420
      255
176
     1
290
     0
176
     1
 90
       50
176
     1
 90
       50
176
     1
 90
       50
176
     1
290
     0
176
     1
 90
       50
176
     1
 62
   256
176
     0
 40
1.0
176
     0
 90
        2
176
     1
  1
strokes_ogs.tif
176
     1
290
     0
176
     1
 40
1.0
176
     1
 40
1.0
176
     1
  0
VISUALSTYLE
  5
36
102
{ACAD_REACTORS
330
2A
102
}
330
2A
100
AcDbVisualStyle
  2
Brighten
 70
    12
177
     3
291
     1
 70
    58
 90
        2
176
     1
 90
        2
176
     1
 90
        0
176
     1
 90
        0
176
     1
 40
0.6
176
     1
 40
30.0
176
     1
 62
     7
420
 16777215
176
     1
 90
        1
176
     1
 90
        4
176
     1
 62
     7
176
     1
 62
   257
176
     1
 90
        1
176
     1
 90
        1
176
     1
 40
1.0
176
     1
 90
        8
176
     1
 62
     7
176
     1
 40
1.0
176
     1
 90
        1
176
     1
 90
        6
176
     1
 90
        2
176
     1
 62
     7
176
     1
 90
        5
176
     1
 90
        0
176
     1
 90
        0
176
     1
290
     0
176
     1
 90
        1
176
     1
 40
50.0
176
     1
 90
        0
176
     1
290
     0
176
     1
290
     1
176
     1
290
     1
176
     1
290
     0
176
     1
290
     0
176
     1
290
     0
176
     1
290
     0
176
     1
290
     0
176
     1
290
     0
176
     1
 90
       50
176
     1
 40
0.0
176
     1
 40
1.0
176
     1
 90
        0
176
     1
 62
    18
420
        0
176
     1
 90
       50
176
     1
 90
        3
176
     1
 62
     5
420
      255
176
     1
290
     0
176
     1
 90
       50
176
     1
 90
       50
176
     1
 90
       50
176
     1
290
     0
176
     1
 90
       50
176
     1
 62
   256
176
     0
 40
1.0
176
     0
 90
        2
176
     1
  1
strokes_ogs.tif
176
     1
290
     0
176
     1
 40
1.0
176
     1
 40
1.0
176
     1
  0
VISUALSTYLE
  5
3A
102
{ACAD_REACTORS
330
2A
102
}
330
2A
100
AcDbVisualStyle
  2
ColorChange
 70
    16
177
     3
291
     1
 70
    58
 90
        2
176
     1
 90
        2
176
     1
 90
        3
176
     1
 90
        0
176
     1
 40
0.6
176
     1
 40
30.0
176
     1
 62
     8
420
  8421504
176
     1
 90
        1
176
     1
 90
        4
176
     1
 62
     7
176
     1
 62
   257
176
     1
 90
        1
176
     1
 90
        1
176
     1
 40
1.0
176
     1
 90
        8
176
     1
 62
     8
420
  8421504
176
     1
 40
1.0
176
     1
 90
        1
176
     1
 90
        6
176
     1
 90
        2
176
     1
 62
     7
176
     1
 90
        5
176
     1
 90
        0
176
     1
 90
        0
176
     1
290
     0
176
     1
 90
        1
176
     1
 40
0.0
176
     1
 90
        0
176
     1
290
     0
176
     1
290
     1
176
     1
290
     1
176
     1
290
     0
176
     1
290
     0
176
     1
290
     0
176
     1
290
     0
176
     1
290
     0
176
     1
290
     0
176
     1
 90
       50
176
     1
 40
0.0
176
     1
 40
1.0
176
     1
 90
        0
176
     1
 62
    18
420
        0
176
     1
 90
       50
176
     1
 90
        3
176
     1
 62
     5
420
      255
176
     1
290
     0
176
     1
 90
       50
176
     1
 90
       50
176
     1
 90
       50
176
     1
290
     0
176
     1
 90
       50
176
     1
 62
   256
176
     0
 40
1.0
176
     0
 90
        2
176
     1
  1
strokes_ogs.tif
176
     1
290
     0
176
     1
 40
1.0
176
     1
 40
1.0
176
     1
  0
VISUALSTYLE
  5
34
102
{ACAD_REACTORS
330
2A
102
}
330
2A
100
AcDbVisualStyle
  2
Conceptual
 70
     9
177
     3
291
     0
 70
    58
 90
        3
176
     1
 90
        2
176
     1
 90
        0
176
     1
 90
        0
176
     1
 40
0.6
176
     1
 40
30.0
176
     1
 62
     7
420
 16777215
176
     1
 90
        2
176
     1
 90
        2
176
     1
 62
     7
176
     1
 62
   257
176
     1
 90
        1
176
     1
 90
        1
176
     1
 40
179.0
176
     1
 90
        8
176
     1
 62
     7
176
     1
 40
1.0
176
     1
 90
        1
176
     1
 90
        6
176
     1
 90
        2
176
     1
 62
     7
176
     1
 90
        3
176
     1
 90
        0
176
     1
 90
        0
176
     1
290
     0
176
     1
 90
        1
176
     1
 40
0.0
176
     1
 90
        0
176
     1
290
     0
176
     1
290
     1
176
     1
290
     1
176
     1
290
     0
176
     1
290
     0
176
     1
290
     0
176
     1
290
     0
176
     1
290
     0
176
     1
290
     0
176
     1
 90
       50
176
     1
 40
0.0
176
     1
 40
1.0
176
     1
 90
        0
176
     1
 62
    18
420
        0
176
     1
 90
       50
176
     1
 90
        3
176
     1
 62
     5
420
      255
176
     1
290
     0
176
     1
 90
       50
176
     1
 90
       50
176
     1
 90
       50
176
     1
290
     0
176
     1
 90
       50
176
     1
 62
   256
176
     0
 40
1.0
176
     0
 90
        2
176
     1
  1
strokes_ogs.tif
176
     1
290
     0
176
     1
 40
1.0
176
     1
 40
1.0
176
     1
  0
VISUALSTYLE
  5
35
102
{ACAD_REACTORS
330
2A
102
}
330
2A
100
AcDbVisualStyle
  2
Dim
 70
    11
177
     3
291
     1
 70
    58
 90
        2
176
     1
 90
        2
176
     1
 90
        0
176
     1
 90
        0
176
     1
 40
0.6
176
     1
 40
30.0
176
     1
 62
     7
420
 16777215
176
     1
 90
        1
176
     1
 90
        4
176
     1
 62
     7
176
     1
 62
   257
176
     1
 90
        1
176
     1
 90
        1
176
     1
 40
1.0
176
     1
 90
        8
176
     1
 62
     7
176
     1
 40
1.0
176
     1
 90
        1
176
     1
 90
        6
176
     1
 90
        2
176
     1
 62
     7
176
     1
 90
        5
176
     1
 90
        0
176
     1
 90
        0
176
     1
290
     0
176
     1
 90
        1
176
     1
 40
-50.0
176
     1
 90
        0
176
     1
290
     0
176
     1
290
     1
176
     1
290
     1
176
     1
290
     0
176
     1
290
     0
176
     1
290
     0
176
     1
290
     0
176
     1
290
     0
176
     1
290
     0
176
     1
 90
       50
176
     1
 40
0.0
176
     1
 40
1.0
176
     1
 90
        0
176
     1
 62
    18
420
        0
176
     1
 90
       50
176
     1
 90
        3
176
     1
 62
     5
420
      255
176
     1
290
     0
176
     1
 90
       50
176
     1
 90
       50
176
     1
 90
       50
176
     1
290
     0
176
     1
 90
       50
176
     1
 62
   256
176
     0
 40
1.0
176
     0
 90
        2
176
     1
  1
strokes_ogs.tif
176
     1
290
     0
176
     1
 40
1.0
176
     1
 40
1.0
176
     1
  0
VISUALSTYLE
  5
3D
102
{ACAD_REACTORS
330
2A
102
}
330
2A
100
AcDbVisualStyle
  2
EdgeColorOff
 70
    22
177
     3
291
     1
 70
    58
 90
        2
176
     0
 90
        2
176
     0
 90
        0
176
     0
 90
        0
176
     0
 40
0.6
176
     0
 40
30.0
176
     0
 62
     7
420
 16777215
176
     0
 90
        1
176
     0
 90
        4
176
     0
 62
     7
176
     0
 62
   257
176
     0
 90
        1
176
     0
 90
        1
176
     0
 40
1.0
176
     0
 90
        8
176
     2
 62
     7
176
     0
 40
1.0
176
     0
 90
        1
176
     0
 90
        6
176
     0
 90
        2
176
     0
 62
     7
176
     0
 90
        5
176
     0
 90
        0
176
     0
 90
        0
176
     0
290
     0
176
     0
 90
        1
176
     0
 40
0.0
176
     0
 90
        0
176
     0
290
     0
176
     0
290
     1
176
     0
290
     1
176
     0
290
     0
176
     0
290
     0
176
     0
290
     0
176
     0
290
     0
176
     0
290
     0
176
     0
290
     0
176
     0
 90
       50
176
     0
 40
0.0
176
     0
 40
1.0
176
     0
 90
        0
176
     0
 62
    18
420
        0
176
     0
 90
       50
176
     0
 90
        3
176
     0
 62
     5
420
      255
176
     0
290
     0
176
     0
 90
       50
176
     0
 90
       50
176
     0
 90
       50
176
     0
290
     0
176
     0
 90
       50
176
     0
 62
   256
176
     0
 40
1.0
176
     0
 90
        2
176
     0
  1
strokes_ogs.tif
176
     0
290
     0
176
     0
 40
1.0
176
     0
 40
1.0
176
     0
  0
VISUALSTYLE
  5
39
102
{ACAD_REACTORS
330
2A
102
}
330
2A
100
AcDbVisualStyle
  2
Facepattern
 70
    15
177
     3
291
     1
 70
    58
 90
        2
176
     1
 90
        2
176
     1
 90
        0
176
     1
 90
        0
176
     1
 40
0.6
176
     1
 40
30.0
176
     1
 62
     7
420
 16777215
176
     1
 90
        1
176
     1
 90
        4
176
     1
 62
     7
176
     1
 62
   257
176
     1
 90
        1
176
     1
 90
        1
176
     1
 40
1.0
176
     1
 90
        8
176
     1
 62
     7
176
     1
 40
1.0
176
     1
 90
        1
176
     1
 90
        6
176
     1
 90
        2
176
     1
 62
     7
176
     1
 90
        5
176
     1
 90
        0
176
     1
 90
        0
176
     1
290
     0
176
     1
 90
        1
176
     1
 40
0.0
176
     1
 90
        0
176
     1
290
     0
176
     1
290
     1
176
     1
290
     1
176
     1
290
     0
176
     1
290
     0
176
     1
290
     0
176
     1
290
     0
176
     1
290
     0
176
     1
290
     0
176
     1
 90
       50
176
     1
 40
0.0
176
     1
 40
1.0
176
     1
 90
        0
176
     1
 62
    18
420
        0
176
     1
 90
       50
176
     1
 90
        3
176
     1
 62
     5
420
      255
176
     1
290
     0
176
     1
 90
       50
176
     1
 90
       50
176
     1
 90
       50
176
     1
290
     0
176
     1
 90
       50
176
     1
 62
   256
176
     0
 40
1.0
176
     0
 90
        2
176
     1
  1
strokes_ogs.tif
176
     1
290
     0
176
     1
 40
1.0
176
     1
 40
1.0
176
     1
  0
VISUALSTYLE
  5
2B
102
{ACAD_REACTORS
330
2A
102
}
330
2A
100
AcDbVisualStyle
  2
Flat
 70
     0
177
     3
291
     1
 70
    58
 90
        2
176
     1
 90
        1
176
     1
 90
        1
176
     1
 90
        2
176
     1
 40
0.6
176
     1
 40
30.0
176
     1
 62
     7
420
 16777215
176
     1
 90
        0
176
     1
 90
        0
176
     1
 62
     7
176
     1
 62
   257
176
     1
 90
        1
176
     1
 90
        1
176
     1
 40
1.0
176
     1
 90
        8
176
     1
 62
     7
176
     1
 40
1.0
176
     1
 90
        1
176
     1
 90
        6
176
     1
 90
        2
176
     1
 62
     7
176
     1
 90
        5
176
     1
 90
        0
176
     1
 90
        0
176
     1
290
     0
176
     1
 90
       13
176
     1
 40
0.0
176
     1
 90
        0
176
     1
290
     0
176
     1
290
     1
176
     1
290
     1
176
     1
290
     0
176
     1
290
     0
176
     1
290
     0
176
     1
290
     0
176
     1
290
     0
176
     1
290
     0
176
     1
 90
       50
176
     1
 40
0.0
176
     1
 40
1.0
176
     1
 90
        0
176
     1
 62
    18
420
        0
176
     1
 90
       50
176
     1
 90
        3
176
     1
 62
     5
420
      255
176
     1
290
     0
176
     1
 90
       50
176
     1
 90
       50
176
     1
 90
       50
176
     1
290
     0
176
     1
 90
       50
176
     1
 62
   256
176
     0
 40
1.0
176
     0
 90
        2
176
     1
  1
strokes_ogs.tif
176
     1
290
     0
176
     1
 40
1.0
176
     1
 40
1.0
176
     1
  0
VISUALSTYLE
  5
2C
102
{ACAD_REACTORS
330
2A
102
}
330
2A
100
AcDbVisualStyle
  2
FlatWithEdges
 70
     1
177
     3
291
     1
 70
    58
 90
        2
176
     1
 90
        1
176
     1
 90
        1
176
     1
 90
        2
176
     1
 40
0.6
176
     1
 40
30.0
176
     1
 62
     7
420
 16777215
176
     1
 90
        1
176
     1
 90
        0
176
     1
 62
     7
176
     1
 62
   257
176
     1
 90
        1
176
     1
 90
        1
176
     1
 40
1.0
176
     1
 90
        0
176
     1
 62
   257
176
     1
 40
1.0
176
     1
 90
        1
176
     1
 90
        6
176
     1
 90
        2
176
     1
 62
     7
176
     1
 90
        5
176
     1
 90
        0
176
     1
 90
        0
176
     1
290
     0
176
     1
 90
       13
176
     1
 40
0.0
176
     1
 90
        0
176
     1
290
     0
176
     1
290
     1
176
     1
290
     1
176
     1
290
     0
176
     1
290
     0
176
     1
290
     0
176
     1
290
     0
176
     1
290
     0
176
     1
290
     0
176
     1
 90
       50
176
     1
 40
0.0
176
     1
 40
1.0
176
     1
 90
        0
176
     1
 62
    18
420
        0
176
     1
 90
       50
176
     1
 90
        3
176
     1
 62
     5
420
      255
176
     1
290
     0
176
     1
 90
       50
176
     1
 90
       50
176
     1
 90
       50
176
     1
290
     0
176
     1
 90
       50
176
     1
 62
   256
176
     0
 40
1.0
176
     0
 90
        2
176
     1
  1
strokes_ogs.tif
176
     1
290
     0
176
     1
 40
1.0
176
     1
 40
1.0
176
     1
  0
VISUALSTYLE
  5
2D
102
{ACAD_REACTORS
330
2A
102
}
330
2A
100
AcDbVisualStyle
  2
Gouraud
 70
     2
177
     3
291
     1
 70
    58
 90
        2
176
     1
 90
        2
176
     1
 90
        1
176
     1
 90
        2
176
     1
 40
0.6
176
     1
 40
30.0
176
     1
 62
     7
420
 16777215
176
     1
 90
        0
176
     1
 90
        0
176
     1
 62
     7
176
     1
 62
   257
176
     1
 90
        1
176
     1
 90
        1
176
     1
 40
1.0
176
     1
 90
        0
176
     1
 62
     7
176
     1
 40
1.0
176
     1
 90
        1
176
     1
 90
        6
176
     1
 90
        2
176
     1
 62
     7
176
     1
 90
        5
176
     1
 90
        0
176
     1
 90
        0
176
     1
290
     0
176
     1
 90
       13
176
     1
 40
0.0
176
     1
 90
        0
176
     1
290
     0
176
     1
290
     1
176
     1
290
     1
176
     1
290
     0
176
     1
290
     0
176
     1
290
     0
176
     1
290
     0
176
     1
290
     0
176
     1
290
     0
176
     1
 90
       50
176
     1
 40
0.0
176
     1
 40
1.0
176
     1
 90
        0
176
     1
 62
    18
420
        0
176
     1
 90
       50
176
     1
 90
        3
176
     1
 62
     5
420
      255
176
     1
290
     0
176
     1
 90
       50
176
     1
 90
       50
176
     1
 90
       50
176
     1
290
     0
176
     1
 90
       50
176
     1
 62
   256
176
     0
 40
1.0
176
     0
 90
        2
176
     1
  1
strokes_ogs.tif
176
     1
290
     0
176
     1
 40
1.0
176
     1
 40
1.0
176
     1
  0
VISUALSTYLE
  5
2E
102
{ACAD_REACTORS
330
2A
102
}
330
2A
100
AcDbVisualStyle
  2
GouraudWithEdges
 70
     3
177
     3
291
     1
 70
    58
 90
        2
176
     1
 90
        2
176
     1
 90
        1
176
     1
 90
        2
176
     1
 40
0.6
176
     1
 40
30.0
176
     1
 62
     7
420
 16777215
176
     1
 90
        1
176
     1
 90
        0
176
     1
 62
     7
176
     1
 62
   257
176
     1
 90
        1
176
     1
 90
        1
176
     1
 40
1.0
176
     1
 90
        0
176
     1
 62
   257
176
     1
 40
1.0
176
     1
 90
        1
176
     1
 90
        6
176
     1
 90
        2
176
     1
 62
     7
176
     1
 90
        5
176
     1
 90
        0
176
     1
 90
        0
176
     1
290
     0
176
     1
 90
       13
176
     1
 40
0.0
176
     1
 90
        0
176
     1
290
     0
176
     1
290
     1
176
     1
290
     1
176
     1
290
     0
176
     1
290
     0
176
     1
290
     0
176
     1
290
     0
176
     1
290
     0
176
     1
290
     0
176
     1
 90
       50
176
     1
 40
0.0
176
     1
 40
1.0
176
     1
 90
        0
176
     1
 62
    18
420
        0
176
     1
 90
       50
176
     1
 90
        3
176
     1
 62
     5
420
      255
176
     1
290
     0
176
     1
 90
       50
176
     1
 90
       50
176
     1
 90
       50
176
     1
290
     0
176
     1
 90
       50
176
     1
 62
   256
176
     0
 40
1.0
176
     0
 90
        2
176
     1
  1
strokes_ogs.tif
176
     1
290
     0
176
     1
 40
1.0
176
     1
 40
1.0
176
     1
  0
VISUALSTYLE
  5
31
102
{ACAD_REACTORS
330
2A
102
}
330
2A
100
AcDbVisualStyle
  2
Hidden
 70
     6
177
     3
291
     0
 70
    58
 90
        1
176
     1
 90
        2
176
     1
 90
        2
176
     1
 90
        0
176
     1
 40
0.6
176
     1
 40
30.0
176
     1
 62
     7
420
 16777215
176
     1
 90
        2
176
     1
 90
        2
176
     1
 62
     7
176
     1
 62
   257
176
     1
 90
        2
176
     1
 90
        1
176
     1
 40
40.0
176
     1
 90
        0
176
     1
 62
   257
176
     1
 40
1.0
176
     1
 90
        1
176
     1
 90
        6
176
     1
 90
        2
176
     1
 62
     7
176
     1
 90
        3
176
     1
 90
        0
176
     1
 90
        0
176
     1
290
     0
176
     1
 90
        1
176
     1
 40
0.0
176
     1
 90
        0
176
     1
290
     0
176
     1
290
     1
176
     1
290
     1
176
     1
290
     0
176
     1
290
     0
176
     1
290
     0
176
     1
290
     0
176
     1
290
     0
176
     1
290
     0
176
     1
 90
       50
176
     1
 40
0.0
176
     1
 40
1.0
176
     1
 90
        0
176
     1
 62
    18
420
        0
176
     1
 90
       50
176
     1
 90
        3
176
     1
 62
     5
420
      255
176
     1
290
     0
176
     1
 90
       50
176
     1
 90
       50
176
     1
 90
       50
176
     1
290
     0
176
     1
 90
       50
176
     1
 62
   256
176
     0
 40
1.0
176
     0
 90
        2
176
     1
  1
strokes_ogs.tif
176
     1
290
     0
176
     1
 40
1.0
176
     1
 40
1.0
176
     1
  0
VISUALSTYLE
  5
3B
102
{ACAD_REACTORS
330
2A
102
}
330
2A
100
AcDbVisualStyle
  2
JitterOff
 70
    20
177
     3
291
     1
 70
    58
 90
        2
176
     0
 90
        2
176
     0
 90
        0
176
     0
 90
        0
176
     0
 40
0.6
176
     0
 40
30.0
176
     0
 62
     7
420
 16777215
176
     0
 90
        1
176
     0
 90
        4
176
     0
 62
     7
176
     0
 62
   257
176
     0
 90
        1
176
     0
 90
        1
176
     0
 40
1.0
176
     0
 90
       10
176
     2
 62
     7
176
     0
 40
1.0
176
     0
 90
        1
176
     0
 90
        6
176
     0
 90
        2
176
     0
 62
     7
176
     0
 90
        5
176
     0
 90
        0
176
     0
 90
        0
176
     0
290
     0
176
     0
 90
        1
176
     0
 40
0.0
176
     0
 90
        0
176
     0
290
     0
176
     0
290
     1
176
     0
290
     1
176
     0
290
     0
176
     0
290
     0
176
     0
290
     0
176
     0
290
     0
176
     0
290
     0
176
     0
290
     0
176
     0
 90
       50
176
     0
 40
0.0
176
     0
 40
1.0
176
     0
 90
        0
176
     0
 62
    18
420
        0
176
     0
 90
       50
176
     0
 90
        3
176
     0
 62
     5
420
      255
176
     0
290
     0
176
     0
 90
       50
176
     0
 90
       50
176
     0
 90
       50
176
     0
290
     0
176
     0
 90
       50
176
     0
 62
   256
176
     0
 40
1.0
176
     0
 90
        2
176
     0
  1
strokes_ogs.tif
176
     0
290
     0
176
     0
 40
1.0
176
     0
 40
1.0
176
     0
  0
VISUALSTYLE
  5
38
102
{ACAD_REACTORS
330
2A
102
}
330
2A
100
AcDbVisualStyle
  2
Linepattern
 70
    14
177
     3
291
     1
 70
    58
 90
        2
176
     1
 90
        2
176
     1
 90
        0
176
     1
 90
        0
176
     1
 40
0.6
176
     1
 40
30.0
176
     1
 62
     7
420
 16777215
176
     1
 90
        1
176
     1
 90
        4
176
     1
 62
     7
176
     1
 62
   257
176
     1
 90
        7
176
     1
 90
        7
176
     1
 40
1.0
176
     1
 90
        8
176
     1
 62
     7
176
     1
 40
1.0
176
     1
 90
        1
176
     1
 90
        6
176
     1
 90
        2
176
     1
 62
     7
176
     1
 90
        5
176
     1
 90
        0
176
     1
 90
        0
176
     1
290
     0
176
     1
 90
        1
176
     1
 40
0.0
176
     1
 90
        0
176
     1
290
     0
176
     1
290
     1
176
     1
290
     1
176
     1
290
     0
176
     1
290
     0
176
     1
290
     0
176
     1
290
     0
176
     1
290
     0
176
     1
290
     0
176
     1
 90
       50
176
     1
 40
0.0
176
     1
 40
1.0
176
     1
 90
        0
176
     1
 62
    18
420
        0
176
     1
 90
       50
176
     1
 90
        3
176
     1
 62
     5
420
      255
176
     1
290
     0
176
     1
 90
       50
176
     1
 90
       50
176
     1
 90
       50
176
     1
290
     0
176
     1
 90
       50
176
     1
 62
   256
176
     0
 40
1.0
176
     0
 90
        2
176
     1
  1
strokes_ogs.tif
176
     1
290
     0
176
     1
 40
1.0
176
     1
 40
1.0
176
     1
  0
VISUALSTYLE
  5
3C
102
{ACAD_REACTORS
330
2A
102
}
330
2A
100
AcDbVisualStyle
  2
OverhangOff
 70
    21
177
     3
291
     1
 70
    58
 90
        2
176
     0
 90
        2
176
     0
 90
        0
176
     0
 90
        0
176
     0
 40
0.6
176
     0
 40
30.0
176
     0
 62
     7
420
 16777215
176
     0
 90
        1
176
     0
 90
        4
176
     0
 62
     7
176
     0
 62
   257
176
     0
 90
        1
176
     0
 90
        1
176
     0
 40
1.0
176
     0
 90
        9
176
     2
 62
     7
176
     0
 40
1.0
176
     0
 90
        1
176
     0
 90
        6
176
     0
 90
        2
176
     0
 62
     7
176
     0
 90
        5
176
     0
 90
        0
176
     0
 90
        0
176
     0
290
     0
176
     0
 90
        1
176
     0
 40
0.0
176
     0
 90
        0
176
     0
290
     0
176
     0
290
     1
176
     0
290
     1
176
     0
290
     0
176
     0
290
     0
176
     0
290
     0
176
     0
290
     0
176
     0
290
     0
176
     0
290
     0
176
     0
 90
       50
176
     0
 40
0.0
176
     0
 40
1.0
176
     0
 90
        0
176
     0
 62
    18
420
        0
176
     0
 90
       50
176
     0
 90
        3
176
     0
 62
     5
420
      255
176
     0
290
     0
176
     0
 90
       50
176
     0
 90
       50
176
     0
 90
       50
176
     0
290
     0
176
     0
 90
       50
176
     0
 62
   256
176
     0
 40
1.0
176
     0
 90
        2
176
     0
  1
strokes_ogs.tif
176
     0
290
     0
176
     0
 40
1.0
176
     0
 40
1.0
176
     0
  0
VISUALSTYLE
  5
33
102
{ACAD_REACTORS
330
2A
102
}
330
2A
100
AcDbVisualStyle
  2
Realistic
 70
     8
177
     3
291
     0
 70
    58
 90
        2
176
     1
 90
        3
176
     1
 90
        0
176
     1
 90
        2
176
     1
 40
0.6
176
     1
 40
30.0
176
     1
 62
     7
420
 16777215
176
     1
 90
        0
176
     1
 90
        0
176
     1
 62
     7
176
     1
 62
   257
176
     1
 90
        1
176
     1
 90
        1
176
     1
 40
1.0
176
     1
 90
        8
176
     1
 62
   257
176
     1
 40
1.0
176
     1
 90
        1
176
     1
 90
        6
176
     1
 90
        2
176
     1
 62
     7
176
     1
 90
        3
176
     1
 90
        0
176
     1
 90
        0
176
     1
290
     0
176
     1
 90
       13
176
     1
 40
0.0
176
     1
 90
        0
176
     1
290
     0
176
     1
290
     1
176
     1
290
     1
176
     1
290
     0
176
     1
290
     0
176
     1
290
     0
176
     1
290
     0
176
     1
290
     0
176
     1
290
     0
176
     1
 90
       50
176
     1
 40
0.0
176
     1
 40
1.0
176
     1
 90
        0
176
     1
 62
    18
420
        0
176
     1
 90
       50
176
     1
 90
        3
176
     1
 62
     5
420
      255
176
     1
290
     0
176
     1
 90
       50
176
     1
 90
       50
176
     1
 90
       50
176
     1
290
     0
176
     1
 90
       50
176
     1
 62
   256
176
     0
 40
1.0
176
     0
 90
        2
176
     1
  1
strokes_ogs.tif
176
     1
290
     0
176
     1
 40
1.0
176
     1
 40
1.0
176
     1
  0
VISUALSTYLE
  5
42
102
{ACAD_REACTORS
330
2A
102
}
330
2A
100
AcDbVisualStyle
  2
Shaded
 70
    27
177
     3
291
     0
 70
    58
 90
        2
176
     1
 90
        2
176
     1
 90
        1
176
     1
 90
        2
176
     1
 40
0.6
176
     1
 40
30.0
176
     1
 62
     7
420
 16777215
176
     1
 90
        0
176
     1
 90
        4
176
     1
 62
     7
176
     1
 62
   257
176
     1
 90
        1
176
     1
 90
        1
176
     1
 40
1.0
176
     1
 90
        8
176
     1
 62
   257
176
     1
 40
1.0
176
     1
 90
        1
176
     1
 90
        6
176
     1
 90
        2
176
     1
 62
     8
420
  7895160
176
     1
 90
        3
176
     1
 90
        0
176
     1
 90
        0
176
     1
290
     0
176
     1
 90
        5
176
     1
 40
0.0
176
     1
 90
        0
176
     1
290
     0
176
     1
290
     1
176
     1
290
     1
176
     1
290
     0
176
     1
290
     0
176
     1
290
     0
176
     1
290
     0
176
     1
290
     0
176
     1
290
     0
176
     1
 90
       50
176
     1
 40
0.0
176
     1
 40
1.0
176
     1
 90
        0
176
     1
 62
    18
420
        0
176
     1
 90
       50
176
     1
 90
        3
176
     1
 62
     5
420
      255
176
     1
290
     0
176
     1
 90
       50
176
     1
 90
       50
176
     1
 90
       50
176
     1
290
     0
176
     1
 90
       50
176
     1
 62
   256
176
     0
 40
1.0
176
     0
 90
        2
176
     1
  1
strokes_ogs.tif
176
     1
290
     0
176
     1
 40
1.0
176
     1
 40
1.0
176
     1
  0
VISUALSTYLE
  5
41
102
{ACAD_REACTORS
330
2A
102
}
330
2A
100
AcDbVisualStyle
  2
Shaded with edges
 70
    26
177
     3
291
     0
 70
    58
 90
        2
176
     1
 90
        2
176
     1
 90
        1
176
     1
 90
        2
176
     1
 40
0.6
176
     1
 40
30.0
176
     1
 62
     7
420
 16777215
176
     1
 90
        1
176
     1
 90
       10
176
     1
 62
     7
176
     1
 62
   257
176
     1
 90
        2
176
     1
 90
        1
176
     1
 40
1.0
176
     1
 90
        8
176
     1
 62
   257
176
     1
 40
1.0
176
     1
 90
        1
176
     1
 90
        6
176
     1
 90
        2
176
     1
 62
     7
176
     1
 90
        3
176
     1
 90
        0
176
     1
 90
        0
176
     1
290
     0
176
     1
 90
        5
176
     1
 40
0.0
176
     1
 90
        0
176
     1
290
     0
176
     1
290
     1
176
     1
290
     1
176
     1
290
     0
176
     1
290
     0
176
     1
290
     0
176
     1
290
     0
176
     1
290
     0
176
     1
290
     0
176
     1
 90
       50
176
     1
 40
0.0
176
     1
 40
1.0
176
     1
 90
        0
176
     1
 62
    18
420
        0
176
     1
 90
       50
176
     1
 90
        3
176
     1
 62
     5
420
      255
176
     1
290
     0
176
     1
 90
       50
176
     1
 90
       50
176
     1
 90
       50
176
     1
290
     0
176
     1
 90
       50
176
     1
 62
   256
176
     0
 40
1.0
176
     0
 90
        2
176
     1
  1
strokes_ogs.tif
176
     1
290
     0
176
     1
 40
1.0
176
     1
 40
1.0
176
     1
  0
VISUALSTYLE
  5
3E
102
{ACAD_REACTORS
330
2A
102
}
330
2A
100
AcDbVisualStyle
  2
Shades of Gray
 70
    23
177
     3
291
     0
 70
    58
 90
        2
176
     1
 90
        2
176
     1
 90
        3
176
     1
 90
        0
176
     1
 40
0.6
176
     1
 40
30.0
176
     1
 62
     7
420
 16777215
176
     1
 90
        2
176
     1
 90
        2
176
     1
 62
     7
176
     1
 62
     7
176
     1
 90
        1
176
     1
 90
        1
176
     1
 40
40.0
176
     1
 90
        8
176
     1
 62
     7
176
     1
 40
1.0
176
     1
 90
        1
176
     1
 90
        6
176
     1
 90
        2
176
     1
 62
     7
176
     1
 90
        3
176
     1
 90
        0
176
     1
 90
        0
176
     1
290
     0
176
     1
 90
        1
176
     1
 40
0.0
176
     1
 90
        0
176
     1
290
     0
176
     1
290
     1
176
     1
290
     1
176
     1
290
     0
176
     1
290
     0
176
     1
290
     0
176
     1
290
     0
176
     1
290
     0
176
     1
290
     0
176
     1
 90
       50
176
     1
 40
0.0
176
     1
 40
1.0
176
     1
 90
        0
176
     1
 62
    18
420
        0
176
     1
 90
       50
176
     1
 90
        3
176
     1
 62
     5
420
      255
176
     1
290
     0
176
     1
 90
       50
176
     1
 90
       50
176
     1
 90
       50
176
     1
290
     0
176
     1
 90
       50
176
     1
 62
   256
176
     0
 40
1.0
176
     0
 90
        2
176
     1
  1
strokes_ogs.tif
176
     1
290
     0
176
     1
 40
1.0
176
     1
 40
1.0
176
     1
  0
VISUALSTYLE
  5
3F
102
{ACAD_REACTORS
330
2A
102
}
330
2A
100
AcDbVisualStyle
  2
Sketchy
 70
    24
177
     3
291
     0
 70
    58
 90
        1
176
     1
 90
        2
176
     1
 90
        2
176
     1
 90
        0
176
     1
 40
0.6
176
     1
 40
30.0
176
     1
 62
     7
420
 16777215
176
     1
 90
        2
176
     1
 90
        2
176
     1
 62
     7
176
     1
 62
     7
176
     1
 90
        1
176
     1
 90
        1
176
     1
 40
40.0
176
     1
 90
       11
176
     1
 62
     7
176
     1
 40
1.0
176
     1
 90
        1
176
     1
 90
        6
176
     1
 90
        2
176
     1
 62
     7
176
     1
 90
        6
176
     1
 90
        0
176
     1
 90
        0
176
     1
290
     0
176
     1
 90
        1
176
     1
 40
0.0
176
     1
 90
        0
176
     1
290
     0
176
     1
290
     1
176
     1
290
     1
176
     1
290
     0
176
     1
290
     0
176
     1
290
     0
176
     1
290
     0
176
     1
290
     0
176
     1
290
     0
176
     1
 90
       50
176
     1
 40
0.0
176
     1
 40
1.0
176
     1
 90
        0
176
     1
 62
    18
420
        0
176
     1
 90
       50
176
     1
 90
        3
176
     1
 62
     5
420
      255
176
     1
290
     0
176
     1
 90
       50
176
     1
 90
       50
176
     1
 90
       50
176
     1
290
     0
176
     1
 90
       50
176
     1
 62
   256
176
     0
 40
1.0
176
     0
 90
        2
176
     1
  1
strokes_ogs.tif
176
     1
290
     0
176
     1
 40
1.0
176
     1
 40
1.0
176
     1
  0
VISUALSTYLE
  5
37
102
{ACAD_REACTORS
330
2A
102
}
330
2A
100
AcDbVisualStyle
  2
Thicken
 70
    13
177
     3
291
     1
 70
    58
 90
        2
176
     1
 90
        2
176
     1
 90
        0
176
     1
 90
        0
176
     1
 40
0.6
176
     1
 40
30.0
176
     1
 62
     7
420
 16777215
176
     1
 90
        1
176
     1
 90
        4
176
     1
 62
     7
176
     1
 62
   257
176
     1
 90
        1
176
     1
 90
        1
176
     1
 40
1.0
176
     1
 90
       12
176
     1
 62
     7
176
     1
 40
1.0
176
     1
 90
        1
176
     1
 90
        6
176
     1
 90
        2
176
     1
 62
     7
176
     1
 90
        5
176
     1
 90
        0
176
     1
 90
        0
176
     1
290
     0
176
     1
 90
        1
176
     1
 40
0.0
176
     1
 90
        0
176
     1
290
     0
176
     1
290
     1
176
     1
290
     1
176
     1
290
     0
176
     1
290
     0
176
     1
290
     0
176
     1
290
     0
176
     1
290
     0
176
     1
290
     0
176
     1
 90
       50
176
     1
 40
0.0
176
     1
 40
1.0
176
     1
 90
        0
176
     1
 62
    18
420
        0
176
     1
 90
       50
176
     1
 90
        3
176
     1
 62
     5
420
      255
176
     1
290
     0
176
     1
 90
       50
176
     1
 90
       50
176
     1
 90
       50
176
     1
290
     0
176
     1
 90
       50
176
     1
 62
   256
176
     0
 40
1.0
176
     0
 90
        2
176
     1
  1
strokes_ogs.tif
176
     1
290
     0
176
     1
 40
1.0
176
     1
 40
1.0
176
     1
  0
VISUALSTYLE
  5
30
102
{ACAD_REACTORS
330
2A
102
}
330
2A
100
AcDbVisualStyle
  2
Wireframe
 70
     5
177
     3
291
     0
 70
    58
 90
        0
176
     1
 90
        2
176
     1
 90
        0
176
     1
 90
        0
176
     1
 40
0.6
176
     1
 40
30.0
176
     1
 62
     7
420
 16777215
176
     1
 90
        1
176
     1
 90
        4
176
     1
 62
     7
176
     1
 62
   257
176
     1
 90
        1
176
     1
 90
        1
176
     1
 40
1.0
176
     1
 90
        0
176
     1
 62
   257
176
     1
 40
1.0
176
     1
 90
        1
176
     1
 90
        6
176
     1
 90
        2
176
     1
 62
     7
176
     1
 90
        3
176
     1
 90
        0
176
     1
 90
        0
176
     1
290
     0
176
     1
 90
        1
176
     1
 40
0.0
176
     1
 90
        0
176
     1
290
     0
176
     1
290
     1
176
     1
290
     1
176
     1
290
     0
176
     1
290
     0
176
     1
290
     0
176
     1
290
     0
176
     1
290
     0
176
     1
290
     0
176
     1
 90
       50
176
     1
 40
0.0
176
     1
 40
1.0
176
     1
 90
        0
176
     1
 62
    18
420
        0
176
     1
 90
       50
176
     1
 90
        3
176
     1
 62
     5
420
      255
176
     1
290
     0
176
     1
 90
       50
176
     1
 90
       50
176
     1
 90
       50
176
     1
290
     0
176
     1
 90
       50
176
     1
 62
   256
176
     0
 40
1.0
176
     0
 90
        2
176
     1
  1
strokes_ogs.tif
176
     1
290
     0
176
     1
 40
1.0
176
     1
 40
1.0
176
     1
  0
VISUALSTYLE
  5
40
102
{ACAD_REACTORS
330
2A
102
}
330
2A
100
AcDbVisualStyle
  2
X-Ray
 70
    25
177
     3
291
     0
 70
    58
 90
        2
176
     1
 90
        2
176
     1
 90
        1
176
     1
 90
        1
176
     1
 40
0.5
176
     1
 40
30.0
176
     1
 62
     7
420
 16777215
176
     1
 90
        1
176
     1
 90
        0
176
     1
 62
     7
176
     1
 62
   257
176
     1
 90
        1
176
     1
 90
        1
176
     1
 40
1.0
176
     1
 90
        8
176
     1
 62
     7
176
     1
 40
1.0
176
     1
 90
        1
176
     1
 90
        6
176
     1
 90
        2
176
     1
 62
     7
176
     1
 90
        3
176
     1
 90
        0
176
     1
 90
        0
176
     1
290
     0
176
     1
 90
       13
176
     1
 40
0.0
176
     1
 90
        0
176
     1
290
     0
176
     1
290
     1
176
     1
290
     1
176
     1
290
     0
176
     1
290
     0
176
     1
290
     0
176
     1
290
     0
176
     1
290
     0
176
     1
290
     0
176
     1
 90
       50
176
     1
 40
0.0
176
     1
 40
1.0
176
     1
 90
        0
176
     1
 62
    18
420
        0
176
     1
 90
       50
176
     1
 90
        3
176
     1
 62
     5
420
      255
176
     1
290
     0
176
     1
 90
       50
176
     1
 90
       50
176
     1
 90
       50
176
     1
290
     0
176
     1
 90
       50
176
     1
 62
   256
176
     0
 40
1.0
176
     0
 90
        2
176
     1
  1
strokes_ogs.tif
176
     1
290
     0
176
     1
 40
1.0
176
     1
 40
1.0
176
     1
  0
DICTIONARYVAR
  5
238
102
{ACAD_REACTORS
330
237
102
}
330
237
100
DictionaryVariables
280
     0
  1
1:1
  0
DICTIONARYVAR
  5
241
102
{ACAD_REACTORS
330
237
102
}
330
237
100
DictionaryVariables
280
     0
  1
3.500000
  0
DICTIONARYVAR
  5
242
102
{ACAD_REACTORS
330
237
102
}
330
237
100
DictionaryVariables
280
     0
  1
acadiso.lin
  0
DICTIONARYVAR
  5
23D
102
{ACAD_REACTORS
330
237
102
}
330
237
100
DictionaryVariables
280
     0
  1
Standard
  0
DICTIONARYVAR
  5
23C
102
{ACAD_REACTORS
330
237
102
}
330
237
100
DictionaryVariables
280
     0
  1
Standard
  0
DICTIONARYVAR
  5
240
102
{ACAD_REACTORS
330
237
102
}
330
237
100
DictionaryVariables
280
     0
  1
0
  0
DICTIONARY
  5
239
330
6A
100
AcDbDictionary
280
     1
281
     1
  3
ACAD_ROUNDTRIP_2008_TABLESTYLE_CELLSTYLEMAP
360
23A
  0
CELLSTYLEMAP
  5
23A
102
{ACAD_REACTORS
330
239
102
}
330
239
100
AcDbCellStyleMap
 90
        3
300
CELLSTYLE
  1
TABLEFORMAT_BEGIN
 90
        5
170
     1
 91
        0
 92
    32768
 62
   257
 93
        1
300
CONTENTFORMAT
  1
CONTENTFORMAT_BEGIN
 90
        0
 91
        0
 92
        4
 93
        0
300

 40
0.0
140
1.0
 94
        5
 62
     0
340
11
144
6.0
309
CONTENTFORMAT_END
171
     1
301
MARGIN
  1
CELLMARGIN_BEGIN
 40
1.5
 40
1.5
 40
1.5
 40
1.5
 40
1.5
 40
1.5
309
CELLMARGIN_END
 94
        6
 95
        1
302
GRIDFORMAT
  1
GRIDFORMAT_BEGIN
 90
        0
 91
        1
 62
     0
 92
       -2
340
14
 93
        0
 40
0.045
309
GRIDFORMAT_END
 95
        2
302
GRIDFORMAT
  1
GRIDFORMAT_BEGIN
 90
        0
 91
        1
 62
     0
 92
       -2
340
14
 93
        0
 40
0.045
309
GRIDFORMAT_END
 95
        4
302
GRIDFORMAT
  1
GRIDFORMAT_BEGIN
 90
        0
 91
        1
 62
     0
 92
       -2
340
14
 93
        0
 40
0.045
309
GRIDFORMAT_END
 95
        8
302
GRIDFORMAT
  1
GRIDFORMAT_BEGIN
 90
        0
 91
        1
 62
     0
 92
       -2
340
14
 93
        0
 40
0.045
309
GRIDFORMAT_END
 95
       16
302
GRIDFORMAT
  1
GRIDFORMAT_BEGIN
 90
        0
 91
        1
 62
     0
 92
       -2
340
14
 93
        0
 40
0.045
309
GRIDFORMAT_END
 95
       32
302
GRIDFORMAT
  1
GRIDFORMAT_BEGIN
 90
        0
 91
        1
 62
     0
 92
       -2
340
14
 93
        0
 40
0.045
309
GRIDFORMAT_END
309
TABLEFORMAT_END
  1
CELLSTYLE_BEGIN
 90
        1
 91
        1
300
_TITLE
309
CELLSTYLE_END
300
CELLSTYLE
  1
TABLEFORMAT_BEGIN
 90
        5
170
     1
 91
        0
 92
        0
 62
   257
 93
        1
300
CONTENTFORMAT
  1
CONTENTFORMAT_BEGIN
 90
        0
 91
        0
 92
        4
 93
        0
300

 40
0.0
140
1.0
 94
        5
 62
     0
340
11
144
4.5
309
CONTENTFORMAT_END
171
     1
301
MARGIN
  1
CELLMARGIN_BEGIN
 40
1.5
 40
1.5
 40
1.5
 40
1.5
 40
1.5
 40
1.5
309
CELLMARGIN_END
 94
        6
 95
        1
302
GRIDFORMAT
  1
GRIDFORMAT_BEGIN
 90
        0
 91
        1
 62
     0
 92
       -2
340
14
 93
        0
 40
0.045
309
GRIDFORMAT_END
 95
        2
302
GRIDFORMAT
  1
GRIDFORMAT_BEGIN
 90
        0
 91
        1
 62
     0
 92
       -2
340
14
 93
        0
 40
0.045
309
GRIDFORMAT_END
 95
        4
302
GRIDFORMAT
  1
GRIDFORMAT_BEGIN
 90
        0
 91
        1
 62
     0
 92
       -2
340
14
 93
        0
 40
0.045
309
GRIDFORMAT_END
 95
        8
302
GRIDFORMAT
  1
GRIDFORMAT_BEGIN
 90
        0
 91
        1
 62
     0
 92
       -2
340
14
 93
        0
 40
0.045
309
GRIDFORMAT_END
 95
       16
302
GRIDFORMAT
  1
GRIDFORMAT_BEGIN
 90
        0
 91
        1
 62
     0
 92
       -2
340
14
 93
        0
 40
0.045
309
GRIDFORMAT_END
 95
       32
302
GRIDFORMAT
  1
GRIDFORMAT_BEGIN
 90
        0
 91
        1
 62
     0
 92
       -2
340
14
 93
        0
 40
0.045
309
GRIDFORMAT_END
309
TABLEFORMAT_END
  1
CELLSTYLE_BEGIN
 90
        2
 91
        1
300
_HEADER
309
CELLSTYLE_END
300
CELLSTYLE
  1
TABLEFORMAT_BEGIN
 90
        5
170
     1
 91
        0
 92
        0
 62
   257
 93
        1
300
CONTENTFORMAT
  1
CONTENTFORMAT_BEGIN
 90
        0
 91
        0
 92
        4
 93
        0
300

 40
0.0
140
1.0
 94
        2
 62
     0
340
11
144
4.5
309
CONTENTFORMAT_END
171
     1
301
MARGIN
  1
CELLMARGIN_BEGIN
 40
1.5
 40
1.5
 40
1.5
 40
1.5
 40
1.5
 40
1.5
309
CELLMARGIN_END
 94
        6
 95
        1
302
GRIDFORMAT
  1
GRIDFORMAT_BEGIN
 90
        0
 91
        1
 62
     0
 92
       -2
340
14
 93
        0
 40
0.045
309
GRIDFORMAT_END
 95
        2
302
GRIDFORMAT
  1
GRIDFORMAT_BEGIN
 90
        0
 91
        1
 62
     0
 92
       -2
340
14
 93
        0
 40
0.045
309
GRIDFORMAT_END
 95
        4
302
GRIDFORMAT
  1
GRIDFORMAT_BEGIN
 90
        0
 91
        1
 62
     0
 92
       -2
340
14
 93
        0
 40
0.045
309
GRIDFORMAT_END
 95
        8
302
GRIDFORMAT
  1
GRIDFORMAT_BEGIN
 90
        0
 91
        1
 62
     0
 92
       -2
340
14
 93
        0
 40
0.045
309
GRIDFORMAT_END
 95
       16
302
GRIDFORMAT
  1
GRIDFORMAT_BEGIN
 90
        0
 91
        1
 62
     0
 92
       -2
340
14
 93
        0
 40
0.045
309
GRIDFORMAT_END
 95
       32
302
GRIDFORMAT
  1
GRIDFORMAT_BEGIN
 90
        0
 91
        1
 62
     0
 92
       -2
340
14
 93
        0
 40
0.045
309
GRIDFORMAT_END
309
TABLEFORMAT_END
  1
CELLSTYLE_BEGIN
 90
        3
 91
        2
300
_DATA
309
CELLSTYLE_END
  0
ENDSEC
  0
EOF
